fira-sans_thin-italic.sfdir
StartChar: exclam
Encoding: 33 33 2126
Width: 238
Flags: MW
HStem: -8 46<81 92.5> 661 20G<167 188 188 188>
VStem: 63 47<9 20.5>
LayerCount: 2
Back
Fore
SplineSet
101 202 m 1
 167 681 l 1
 188 681 l 1
 122 202 l 1
 101 202 l 1
88 38 m 0
 102 38 110 28 110 16 c 0
 110 2 100 -8 85 -8 c 0
 72 -8 63 1 63 13 c 0
 63 28 74 38 88 38 c 0
EndSplineSet
EndChar

StartChar: quotedbl
Encoding: 34 34 993
Width: 327
Flags: MW
HStem: 661 20G<142 165 165 165 280 304 304 304>
VStem: 111 193
LayerCount: 2
Fore
SplineSet
142 681 m 1
 165 681 l 1
 129 441 l 1
 111 441 l 1
 142 681 l 1
280 681 m 1
 304 681 l 1
 267 441 l 1
 250 441 l 1
 280 681 l 1
EndSplineSet
EndChar
StartChar: numbersign
Encoding: 35 35 2128
Width: 488
Flags: MW
HStem: 0 21G<35 59 35 35 268 293 268 268> 200 20<10 89 7 95 119 322 10 113 353 427> 459 20<82 160 80 165 82 184 190 393 424 501>
VStem: 7 496<200 479>
LayerCount: 2
Back
Fore
SplineSet
501 459 m 1
 418 459 l 1
 353 220 l 1
 431 220 l 1
 427 200 l 1
 347 200 l 1
 293 0 l 1
 268 0 l 1
 322 200 l 1
 113 200 l 1
 59 0 l 1
 35 0 l 1
 89 200 l 1
 7 200 l 1
 10 220 l 1
 95 220 l 1
 160 459 l 1
 80 459 l 1
 82 479 l 1
 165 479 l 1
 215 662 l 1
 239 662 l 1
 190 479 l 1
 399 479 l 1
 448 662 l 1
 473 662 l 1
 424 479 l 1
 503 479 l 1
 501 459 l 1
328 220 m 1
 393 459 l 1
 184 459 l 1
 119 220 l 1
 328 220 l 1
EndSplineSet
Substitution2: "'onum' Oldstyle Figures lookup 26 subtable" numbersign.osf
Substitution2: "'tnum' Tabular Numbers lookup 25 subtable" numbersign.tf
AlternateSubs2: "'aalt' Access All Alternates lookup 1 subtable" numbersign.tf numbersign.osf
EndChar

StartChar: dollar
Encoding: 36 36 1064
Width: 521
Flags: MW
HStem: -10 21<210 210 230 230> 651 19<307 307>
VStem: 113 22<470 542.5> 422 22<154.5 234>
LayerCount: 2
Fore
SplineSet
312 651 m 0
 200 651 135 589 135 504 c 0
 135 436 177 401 280 367 c 0
 390 331 444 282 444 198 c 0
 444 103 388 -3 230 -10 c 1
 211 -146 l 1
 191 -146 l 1
 210 -10 l 1
 134 -9 72 23 27 69 c 1
 43 83 l 1
 83 40 141 11 214 11 c 0
 373 11 422 112 422 197 c 0
 422 271 376 312 274 347 c 1
 159 385 113 428 113 504 c 0
 113 581 166 668 307 670 c 1
 326 811 l 1
 346 811 l 1
 327 670 l 1
 394 666 439 640 481 602 c 1
 465 588 l 1
 421 631 375 651 312 651 c 0
EndSplineSet
Substitution2: "'onum' Oldstyle Figures lookup 22 subtable" dollar.osf
Substitution2: "'tnum' Tabular Numbers lookup 21 subtable" dollar.tf
AlternateSubs2: "'aalt' Access All Alternates lookup 1 subtable" dollar.tf dollar.osf
EndChar
StartChar: percent
Encoding: 37 37 2271
Width: 760
GlyphClass: 2
Flags: MW
HStem: -10 19<493.5 578.5 493.5 584.5> -4 21G<107 107> 283 19<513.5 599.5> 361 19<180.5 266 180.5 271.5> 654 19<201.5 287.5> 664 20G<684 684>
VStem: 97 23<454 514.5 454 523.5> 348 22<520 580.5> 410 22<83.5 144 83.5 153> 661 22<149 209.5>
LayerCount: 2
Back
Fore
SplineSet
666 695 m 1xbbc0
 684 684 l 1
 125 -15 l 1
 107 -4 l 1x77c0
 666 695 l 1xbbc0
254 673 m 0xbbc0
 327 673 370 626 370 548 c 0
 370 474 330 361 213 361 c 0
 140 361 97 409 97 486 c 0
 97 561 137 673 254 673 c 0xbbc0
255 654 m 0
 148 654 120 545 120 484 c 0
 120 424 148 380 213 380 c 0
 319 380 348 490 348 550 c 0
 348 611 320 654 255 654 c 0
567 302 m 0
 639 302 683 255 683 178 c 0
 683 103 643 -10 526 -10 c 0
 453 -10 410 38 410 116 c 0
 410 190 450 302 567 302 c 0
567 283 m 0
 460 283 432 174 432 114 c 0
 432 53 461 9 526 9 c 0
 631 9 661 119 661 179 c 0
 661 240 632 283 567 283 c 0
EndSplineSet
Substitution2: "'onum' Oldstyle Figures lookup 26 subtable" percent.osf
Substitution2: "'tnum' Tabular Numbers lookup 25 subtable" percent.tf
AlternateSubs2: "'aalt' Access All Alternates lookup 1 subtable" percent.tf percent.osf
EndChar

StartChar: ampersand
Encoding: 38 38 1221
Width: 729
Flags: MW
HStem: -10 21<220 315 220 319.5> -7 21G<608 608> 672 20<302 385.5>
VStem: 94 23<111 183.5 111 190> 187 22<507.5 561 507.5 575.5> 472 23<532.5 600>
LayerCount: 2
Fore
SplineSet
352 692 m 0xbc
 436 692 495 639 495 568 c 0
 495 488 454 440 300 361 c 1
 505 140 l 1
 549 207 576 268 603 336 c 1
 623 328 l 1
 594 257 564 190 518 125 c 1
 628 6 l 1
 608 -7 l 1x7c
 504 108 l 1
 445 38 374 -10 265 -10 c 0
 165 -10 94 60 94 149 c 0
 94 231 131 299 267 366 c 1
 214 425 187 475 187 529 c 0
 187 622 252 692 352 692 c 0xbc
352 672 m 0
 247 672 209 593 209 529 c 0
 209 486 226 442 286 375 c 1
 438 451 472 497 472 568 c 0
 472 632 419 672 352 672 c 0
281 352 m 1
 150 288 117 218 117 149 c 0
 117 73 175 11 265 11 c 0
 365 11 432 54 490 123 c 1
 281 352 l 1
EndSplineSet
EndChar
StartChar: quotesingle
Encoding: 39 39 2133
Width: 189
Flags: MW
HStem: 661 20G<142 165 165 165>
VStem: 111 54
LayerCount: 2
Back
Fore
SplineSet
111 441 m 1
 142 681 l 1
 165 681 l 1
 129 441 l 1
 111 441 l 1
EndSplineSet
EndChar
StartChar: parenleft
Encoding: 40 40 2150
Width: 325
Flags: MW
HStem: -129 959<187 321>
VStem: 73.28 22.25
LayerCount: 2
Back
Fore
SplineSet
321 830 m 1
 334 820 l 1
 227 689 135 571 104 349 c 0
 73 127 132 10 203 -121 c 1
 187 -129 l 1
 111 6 50 122 82 351 c 0
 114 579 208 696 321 830 c 1
EndSplineSet
Substitution2: "'case' Case-Sensitive Forms lookup 29 subtable" parenleft.case
Substitution2: "'dnom' Denominators lookup 17 subtable" parenleft.dnom
Substitution2: "'numr' Numerators lookup 16 subtable" parenleft.numr
Substitution2: "'sups' Superscript lookup 15 subtable" uni207D
Substitution2: "'subs' Subscript lookup 14 subtable" uni208D
AlternateSubs2: "'aalt' Access All Alternates lookup 1 subtable" uni208D uni207D parenleft.numr parenleft.dnom parenleft.case
EndChar

StartChar: parenright
Encoding: 41 41 1010
Width: 324
Flags: MW
HStem: -130 959<29 163>
VStem: 254.45 21.61
LayerCount: 2
Fore
SplineSet
163 829 m 1
 238 694 300 578 267 349 c 0
 235 121 142 4 29 -130 c 1
 15 -120 l 1
 122 11 215 129 246 351 c 0
 277 573 218 690 148 821 c 1
 163 829 l 1
EndSplineSet
Substitution2: "'case' Case-Sensitive Forms lookup 25 subtable" parenright.case
Substitution2: "'dnom' Denominators lookup 14 subtable" parenright.dnom
Substitution2: "'numr' Numerators lookup 13 subtable" parenright.numr
Substitution2: "'sups' Superscript lookup 12 subtable" parenrightsuperior
Substitution2: "'subs' Subscript lookup 11 subtable" uni208E
AlternateSubs2: "'aalt' Access All Alternates lookup 1 subtable" uni208E parenrightsuperior parenright.numr parenright.dnom parenright.case
EndChar
StartChar: asterisk
Encoding: 42 42 2118
Width: 432
Flags: MW
HStem: 551 20G<251 251> 712 20G<272 294 294 294>
VStem: 98 333<603 603>
LayerCount: 2
Back
Fore
SplineSet
431 603 m 1
 273 557 l 1
 349 429 l 1
 330 416 l 1
 257 546 l 1
 147 416 l 1
 129 429 l 1
 243 556 l 1
 98 603 l 1
 106 622 l 1
 251 571 l 1
 272 732 l 1
 294 732 l 1
 269 572 l 1
 426 624 l 1
 431 603 l 1
EndSplineSet
EndChar
StartChar: plus
Encoding: 43 43 2273
Width: 485
GlyphClass: 2
Flags: MW
HStem: 320 21<90 240 86 243 266 416 90 263>
VStem: 86 333<320 341>
LayerCount: 2
Back
Fore
SplineSet
288 496 m 1
 266 341 l 1
 419 341 l 1
 416 320 l 1
 263 320 l 1
 241 165 l 1
 218 165 l 1
 240 320 l 1
 86 320 l 1
 90 341 l 1
 243 341 l 1
 265 496 l 1
 288 496 l 1
EndSplineSet
Substitution2: "'onum' Oldstyle Figures lookup 26 subtable" plus.osf
Substitution2: "'tnum' Tabular Numbers lookup 25 subtable" plus.tf
Substitution2: "'dnom' Denominators lookup 17 subtable" plus.dnom
Substitution2: "'numr' Numerators lookup 16 subtable" plus.numr
Substitution2: "'sups' Superscript lookup 15 subtable" uni207A
Substitution2: "'subs' Subscript lookup 14 subtable" uni208A
AlternateSubs2: "'aalt' Access All Alternates lookup 1 subtable" uni208A uni207A plus.numr plus.dnom plus.tf plus.osf
EndChar

StartChar: comma
Encoding: 44 44 985
Width: 163
Flags: MW
HStem: -6 21G<34 34>
VStem: 22 47<11 20.5>
LayerCount: 2
Fore
SplineSet
47 38 m 0
 61 38 69 28 69 16 c 0
 69 6 64 -3 56 -18 c 2
 -4 -130 l 1
 -22 -130 l 1
 34 -6 l 1
 26 -3 22 4 22 14 c 0
 22 27 33 38 47 38 c 0
EndSplineSet
EndChar

StartChar: hyphen
Encoding: 45 45 1027
Width: 399
Flags: MW
HStem: 302 21<87 327 84 330>
VStem: 84 246<302 323>
LayerCount: 2
Fore
SplineSet
87 323 m 1
 330 323 l 1
 327 302 l 1
 84 302 l 1
 87 323 l 1
EndSplineSet
Substitution2: "'case' Case-Sensitive Forms lookup 25 subtable" hyphen.case
Substitution2: "'aalt' Access All Alternates lookup 0 subtable" hyphen.case
EndChar
StartChar: period
Encoding: 46 46 2129
Width: 163
Flags: MW
HStem: -8 46<40 51>
VStem: 22 47<9 20.5>
LayerCount: 2
Back
Fore
SplineSet
47 38 m 0
 61 38 69 28 69 16 c 0
 69 2 58 -8 44 -8 c 0
 30 -8 22 1 22 13 c 0
 22 28 33 38 47 38 c 0
EndSplineSet
EndChar
StartChar: slash
Encoding: 47 47 2135
Width: 520
Flags: MW
HStem: -95 893<104 441>
VStem: 85 376
LayerCount: 2
Back
Fore
SplineSet
441 798 m 1
 461 792 l 1
 104 -95 l 1
 85 -90 l 1
 441 798 l 1
EndSplineSet
Substitution2: "'frac' Diagonal Fractions lookup 18 subtable" fraction
Substitution2: "'aalt' Access All Alternates lookup 0 subtable" fraction
EndChar

StartChar: zero
Encoding: 48 48 879
Width: 541
Flags: MW
HStem: -10 21<190.5 291.5 190.5 332.5> 652 21<271 371.5>
VStem: 77 23<145 229.5 145 299> 461 23<434 518.5>
LayerCount: 2
Fore
SplineSet
327 673 m 0
 430 673 484 598 484 447 c 0
 484 278 430 -10 235 -10 c 0
 132 -10 77 66 77 215 c 0
 77 383 131 673 327 673 c 0
327 652 m 0
 215 652 138 543 109 332 c 0
 103 286 100 247 100 212 c 0
 100 78 146 11 235 11 c 0
 348 11 423 121 452 329 c 0
 459 377 461 417 461 451 c 0
 461 586 416 652 327 652 c 0
EndSplineSet
Substitution2: "'zero' Slashed Zero lookup 28 subtable" zero.zero
Substitution2: "'onum' Oldstyle Figures lookup 22 subtable" zero.osf
Substitution2: "'tnum' Tabular Numbers lookup 21 subtable" zero.tf
Substitution2: "'frac' Diagonal Fractions lookup 16 subtable" zero.numr
Substitution2: "'dnom' Denominators lookup 14 subtable" zero.dnom
Substitution2: "'numr' Numerators lookup 13 subtable" zero.numr
Substitution2: "'sups' Superscript lookup 12 subtable" zerosuperior
Substitution2: "'subs' Subscript lookup 11 subtable" zeroinferior
AlternateSubs2: "'aalt' Access All Alternates lookup 1 subtable" zeroinferior zerosuperior zero.numr zero.dnom zero.tf zero.osf zero.zero
EndChar
StartChar: one
Encoding: 49 49 2018
Width: 393
Flags: MW
HStem: 0 21G<201 223 201 201>
VStem: 92 224<542 661>
LayerCount: 2
Back
Fore
SplineSet
316 661 m 1
 223 0 l 1
 201 0 l 1
 290 634 l 1
 102 524 l 1
 92 542 l 1
 298 661 l 1
 316 661 l 1
EndSplineSet
Substitution2: "'onum' Oldstyle Figures lookup 26 subtable" one.osf
Substitution2: "'tnum' Tabular Numbers lookup 25 subtable" one.tf
Substitution2: "'frac' Diagonal Fractions lookup 19 subtable" one.numr
Substitution2: "'dnom' Denominators lookup 17 subtable" one.dnom
Substitution2: "'numr' Numerators lookup 16 subtable" one.numr
Substitution2: "'sups' Superscript lookup 15 subtable" uni00B9
Substitution2: "'subs' Subscript lookup 14 subtable" uni2081
AlternateSubs2: "'aalt' Access All Alternates lookup 1 subtable" uni2081 uni00B9 one.numr one.dnom one.tf one.osf
EndChar

StartChar: two
Encoding: 50 50 881
Width: 464
Flags: MW
HStem: 0 21.5 652 21<238.5 314.5>
VStem: 405 23<473 564.5>
LayerCount: 2
Fore
SplineSet
274 673 m 0
 372 673 428 613 428 527 c 0
 428 411 370 336 43 21 c 1
 372 22 l 1
 364 0 l 1
 11 0 l 1
 14 22 l 1
 358 351 405 420 405 526 c 0
 405 603 355 652 274 652 c 0
 203 652 152 621 105 573 c 1
 88 587 l 1
 146 645 202 673 274 673 c 0
EndSplineSet
Substitution2: "'onum' Oldstyle Figures lookup 22 subtable" two.osf
Substitution2: "'tnum' Tabular Numbers lookup 21 subtable" two.tf
Substitution2: "'frac' Diagonal Fractions lookup 16 subtable" two.numr
Substitution2: "'dnom' Denominators lookup 14 subtable" two.dnom
Substitution2: "'numr' Numerators lookup 13 subtable" two.numr
Substitution2: "'sups' Superscript lookup 12 subtable" twosuperior
Substitution2: "'subs' Subscript lookup 11 subtable" twoinferior
AlternateSubs2: "'aalt' Access All Alternates lookup 1 subtable" twoinferior twosuperior two.numr two.dnom two.tf two.osf
EndChar

StartChar: three
Encoding: 51 51 882
Width: 474
Flags: MW
HStem: -10 21<138.5 248.5 138.5 253> 342 20<192 224 192 224 186 224> 654 19<242.5 312>
VStem: 371 23<170 253.5 161.5 254> 400 22<498 572.5>
LayerCount: 2
Fore
SplineSet
273 673 m 0
 368 673 422 617 422 536 c 0xe8
 422 460 373 365 260 353 c 1
 337 351 394 302 394 205 c 0
 394 118 334 -10 172 -10 c 0
 94 -10 44 18 2 73 c 1
 19 86 l 1
 60 30 106 11 171 11 c 0
 326 11 371 133 371 207 c 0xf0
 371 301 314 342 224 342 c 2
 186 342 l 1
 192 362 l 1
 224 362 l 2
 344 362 400 457 400 537 c 0
 400 608 352 654 272 654 c 0
 213 654 163 633 106 585 c 1
 93 600 l 1
 148 648 204 673 273 673 c 0
EndSplineSet
Substitution2: "'onum' Oldstyle Figures lookup 22 subtable" three.osf
Substitution2: "'tnum' Tabular Numbers lookup 21 subtable" three.tf
Substitution2: "'frac' Diagonal Fractions lookup 16 subtable" three.numr
Substitution2: "'dnom' Denominators lookup 14 subtable" three.dnom
Substitution2: "'numr' Numerators lookup 13 subtable" three.numr
Substitution2: "'sups' Superscript lookup 12 subtable" threesuperior
Substitution2: "'subs' Subscript lookup 11 subtable" threeinferior
AlternateSubs2: "'aalt' Access All Alternates lookup 1 subtable" threeinferior threesuperior three.numr three.dnom three.tf three.osf
EndChar
StartChar: four
Encoding: 52 52 2021
Width: 503
Flags: MW
HStem: 0 21G<311 333 311 311> 187 20<68 338 363 453 68 360>
VStem: 41 415<187 207>
LayerCount: 2
Back
Fore
SplineSet
456 207 m 1
 453 187 l 1
 360 187 l 1
 333 0 l 1
 311 0 l 1
 338 187 l 1
 41 187 l 1
 44 205 l 1
 314 673 l 1
 333 665 l 1
 68 207 l 1
 341 207 l 1
 373 418 l 1
 392 418 l 1
 363 207 l 1
 456 207 l 1
EndSplineSet
Substitution2: "'onum' Oldstyle Figures lookup 26 subtable" four.osf
Substitution2: "'tnum' Tabular Numbers lookup 25 subtable" four.tf
Substitution2: "'frac' Diagonal Fractions lookup 19 subtable" four.numr
Substitution2: "'dnom' Denominators lookup 17 subtable" four.dnom
Substitution2: "'numr' Numerators lookup 16 subtable" four.numr
Substitution2: "'sups' Superscript lookup 15 subtable" uni2074
Substitution2: "'subs' Subscript lookup 14 subtable" uni2084
AlternateSubs2: "'aalt' Access All Alternates lookup 1 subtable" uni2084 uni2074 four.numr four.dnom four.tf four.osf
EndChar
StartChar: five
Encoding: 53 53 2022
Width: 474
Flags: MW
HStem: -10 21<147.5 259.5 147.5 266.5> 354 22<101 125> 395 20<225.5 294> 641 20<163 443 163 163>
VStem: 388 22<202.5 294>
LayerCount: 2
Back
Fore
SplineSet
449 661 m 1
 443 641 l 1
 163 641 l 1
 125 376 l 1
 158 397 198 415 253 415 c 0
 353 415 410 349 410 248 c 0
 410 146 352 -10 181 -10 c 0
 106 -10 54 19 16 66 c 1
 33 79 l 1
 67 35 113 11 182 11 c 0
 337 11 388 157 388 248 c 0
 388 340 336 395 252 395 c 0xb8
 198 395 163 381 119 354 c 1
 101 354 l 1xf8
 143 661 l 1
 449 661 l 1
EndSplineSet
Substitution2: "'onum' Oldstyle Figures lookup 26 subtable" five.osf
Substitution2: "'tnum' Tabular Numbers lookup 25 subtable" five.tf
Substitution2: "'frac' Diagonal Fractions lookup 19 subtable" five.numr
Substitution2: "'dnom' Denominators lookup 17 subtable" five.dnom
Substitution2: "'numr' Numerators lookup 16 subtable" five.numr
Substitution2: "'sups' Superscript lookup 15 subtable" uni2075
Substitution2: "'subs' Subscript lookup 14 subtable" uni2085
AlternateSubs2: "'aalt' Access All Alternates lookup 1 subtable" uni2085 uni2075 five.numr five.dnom five.tf five.osf
EndChar

StartChar: six
Encoding: 54 54 885
Width: 512
Flags: MW
HStem: -10 21<185 308.5 185 314.5> 407 20<261 339> 653 20<292 376.5>
VStem: 73 22<144.5 213 144.5 217> 427 23<221 313.5>
LayerCount: 2
Fore
SplineSet
357 653 m 0
 227 653 135 504 103 310 c 1
 151 377 219 427 302 427 c 0
 388 427 450 374 450 267 c 0
 450 160 393 -10 236 -10 c 0
 117 -10 73 81 73 203 c 0
 73 231 75 260 79 290 c 0
 113 525 216 673 358 673 c 0
 405 673 435 658 463 635 c 1
 450 619 l 1
 424 640 396 653 357 653 c 0
302 407 m 0
 220 407 154 353 99 276 c 1
 96 250 95 225 95 201 c 0
 95 88 134 11 236 11 c 0
 381 11 427 176 427 266 c 0
 427 361 376 407 302 407 c 0
EndSplineSet
Substitution2: "'onum' Oldstyle Figures lookup 22 subtable" six.osf
Substitution2: "'tnum' Tabular Numbers lookup 21 subtable" six.tf
Substitution2: "'frac' Diagonal Fractions lookup 16 subtable" six.numr
Substitution2: "'dnom' Denominators lookup 14 subtable" six.dnom
Substitution2: "'numr' Numerators lookup 13 subtable" six.numr
Substitution2: "'sups' Superscript lookup 12 subtable" sixsuperior
Substitution2: "'subs' Subscript lookup 11 subtable" sixinferior
AlternateSubs2: "'aalt' Access All Alternates lookup 1 subtable" sixinferior sixsuperior six.numr six.dnom six.tf six.osf
EndChar
StartChar: seven
Encoding: 55 55 2024
Width: 432
Flags: MW
HStem: -6 21G<78 78> 641 20<94 417 92 445>
VStem: 56 389
LayerCount: 2
Back
Fore
SplineSet
445 661 m 1
 443 643 l 1
 78 -6 l 1
 56 2 l 1
 417 641 l 1
 92 641 l 1
 94 661 l 1
 445 661 l 1
EndSplineSet
Substitution2: "'onum' Oldstyle Figures lookup 26 subtable" seven.osf
Substitution2: "'tnum' Tabular Numbers lookup 25 subtable" seven.tf
Substitution2: "'frac' Diagonal Fractions lookup 19 subtable" seven.numr
Substitution2: "'dnom' Denominators lookup 17 subtable" seven.dnom
Substitution2: "'numr' Numerators lookup 16 subtable" seven.numr
Substitution2: "'sups' Superscript lookup 15 subtable" uni2077
Substitution2: "'subs' Subscript lookup 14 subtable" uni2087
AlternateSubs2: "'aalt' Access All Alternates lookup 1 subtable" uni2087 uni2077 seven.numr seven.dnom seven.tf seven.osf
EndChar

StartChar: eight
Encoding: 56 56 887
Width: 526
Flags: MW
HStem: -10 22<179 284 179 303.5> 653 20<275.5 356.5>
VStem: 48 23<103 181.5 103 186> 127 22<469.5 546.5 469.5 553> 429 23<141.5 227 141.5 228.5> 449 23<498.5 575>
LayerCount: 2
Fore
SplineSet
321 345 m 1xf8
 410 306 452 264 452 190 c 0xf8
 452 93 381 -10 226 -10 c 0
 114 -10 48 54 48 146 c 0
 48 226 90 312 232 362 c 1
 160 394 127 434 127 500 c 0
 127 606 222 673 320 673 c 0
 402 673 472 626 472 537 c 0xf4
 472 452 431 398 321 345 c 1xf8
149 499 m 0
 149 440 177 404 257 371 c 2
 302 353 l 1
 410 405 449 460 449 537 c 0xf4
 449 613 393 653 320 653 c 0
 231 653 149 594 149 499 c 0
227 12 m 0
 341 12 429 77 429 192 c 0
 429 265 384 299 293 337 c 1
 255 352 l 1
 100 297 71 219 71 144 c 0
 71 62 131 12 227 12 c 0
EndSplineSet
Substitution2: "'onum' Oldstyle Figures lookup 22 subtable" eight.osf
Substitution2: "'tnum' Tabular Numbers lookup 21 subtable" eight.tf
Substitution2: "'frac' Diagonal Fractions lookup 16 subtable" eight.numr
Substitution2: "'dnom' Denominators lookup 14 subtable" eight.dnom
Substitution2: "'numr' Numerators lookup 13 subtable" eight.numr
Substitution2: "'sups' Superscript lookup 12 subtable" eightsuperior
Substitution2: "'subs' Subscript lookup 11 subtable" eightinferior
AlternateSubs2: "'aalt' Access All Alternates lookup 1 subtable" eightinferior eightsuperior eight.numr eight.dnom eight.tf eight.osf
EndChar
StartChar: nine
Encoding: 57 57 2026
Width: 508
Flags: MW
HStem: 255 21<199 274> 653 20<233 354.5>
VStem: 86 23<378.5 470.5 378.5 478> 440 23<466 533.5>
LayerCount: 2
Back
Fore
SplineSet
306 673 m 0
 415 673 463 600 463 480 c 0
 463 282 395 70 88 -15 c 1
 83 3 l 1
 263 59 392 155 431 363 c 1
 378 292 311 255 237 255 c 0
 147 255 86 321 86 426 c 0
 86 530 148 673 306 673 c 0
239 276 m 0
 315 276 378 318 435 395 c 1
 439 426 440 453 440 479 c 0
 440 588 402 653 307 653 c 0
 159 653 109 516 109 425 c 0
 109 332 159 276 239 276 c 0
EndSplineSet
Substitution2: "'onum' Oldstyle Figures lookup 26 subtable" nine.osf
Substitution2: "'tnum' Tabular Numbers lookup 25 subtable" nine.tf
Substitution2: "'frac' Diagonal Fractions lookup 19 subtable" nine.numr
Substitution2: "'dnom' Denominators lookup 17 subtable" nine.dnom
Substitution2: "'numr' Numerators lookup 16 subtable" nine.numr
Substitution2: "'sups' Superscript lookup 15 subtable" uni2079
Substitution2: "'subs' Subscript lookup 14 subtable" uni2089
AlternateSubs2: "'aalt' Access All Alternates lookup 1 subtable" uni2089 uni2079 nine.numr nine.dnom nine.tf nine.osf
EndChar

StartChar: colon
Encoding: 58 58 984
Width: 163
Flags: MW
HStem: -8 46<40 51> 406 47<98 109.5>
VStem: 22 47<9 20.5> 80 47<424 435>
LayerCount: 2
Fore
SplineSet
105 453 m 0
 119 453 127 443 127 431 c 0
 127 417 117 406 102 406 c 0
 89 406 80 416 80 428 c 0
 80 442 91 453 105 453 c 0
47 38 m 0xe0
 61 38 69 28 69 16 c 0
 69 2 58 -8 44 -8 c 0
 30 -8 22 1 22 13 c 0
 22 28 33 38 47 38 c 0xe0
EndSplineSet
EndChar

StartChar: semicolon
Encoding: 59 59 995
Width: 163
Flags: MW
HStem: -6 21G<34 34> 406 47<98 109.5>
VStem: 22 47<11 20.5> 80 47<424 435>
LayerCount: 2
Fore
SplineSet
105 453 m 0
 119 453 127 443 127 431 c 0
 127 417 117 406 102 406 c 0
 89 406 80 416 80 428 c 0
 80 442 91 453 105 453 c 0
47 38 m 0xf0
 61 38 69 28 69 16 c 0
 69 6 64 -3 56 -18 c 2
 -4 -130 l 1
 -22 -130 l 1
 34 -6 l 1
 26 -3 22 4 22 14 c 0
 22 27 33 38 47 38 c 0xf0
EndSplineSet
EndChar

StartChar: less
Encoding: 60 60 1103
Width: 493
Flags: MW
HStem: 159 344<391 440>
VStem: 89 24
LayerCount: 2
Fore
SplineSet
446 484 m 1
 113 333 l 1
 402 178 l 1
 391 159 l 1
 88 325 l 1
 90 341 l 1
 440 503 l 1
 446 484 l 1
EndSplineSet
Substitution2: "'onum' Oldstyle Figures lookup 22 subtable" less.osf
Substitution2: "'tnum' Tabular Numbers lookup 21 subtable" less.tf
AlternateSubs2: "'aalt' Access All Alternates lookup 1 subtable" less.tf less.osf
EndChar
StartChar: equal
Encoding: 61 61 2253
Width: 486
GlyphClass: 2
Flags: MW
HStem: 241 22<76 408 79 405> 399 21<98 431 102 428>
VStem: 76 355<241 420>
LayerCount: 2
Back
Fore
SplineSet
98 399 m 1
 102 420 l 1
 431 420 l 1
 428 399 l 1
 98 399 l 1
76 241 m 1
 79 263 l 1
 408 263 l 1
 405 241 l 1
 76 241 l 1
EndSplineSet
Substitution2: "'onum' Oldstyle Figures lookup 26 subtable" equal.osf
Substitution2: "'tnum' Tabular Numbers lookup 25 subtable" equal.tf
Substitution2: "'dnom' Denominators lookup 17 subtable" equal.dnom
Substitution2: "'numr' Numerators lookup 16 subtable" equal.numr
Substitution2: "'sups' Superscript lookup 15 subtable" uni207C
AlternateSubs2: "'aalt' Access All Alternates lookup 1 subtable" uni207C equal.numr equal.dnom equal.tf equal.osf
EndChar
StartChar: greater
Encoding: 62 62 2256
Width: 495
GlyphClass: 2
Flags: MW
HStem: 159 344<74 122>
VStem: 401 25
LayerCount: 2
Back
Fore
SplineSet
122 503 m 1
 427 341 l 1
 425 325 l 1
 74 159 l 1
 67 178 l 1
 401 333 l 1
 111 484 l 1
 122 503 l 1
EndSplineSet
Substitution2: "'onum' Oldstyle Figures lookup 26 subtable" greater.osf
Substitution2: "'tnum' Tabular Numbers lookup 25 subtable" greater.tf
AlternateSubs2: "'aalt' Access All Alternates lookup 1 subtable" greater.tf greater.osf
EndChar
StartChar: question
Encoding: 63 63 2130
Width: 441
Flags: MW
HStem: -9 46<179 190.5> 672 19<257 327.5>
VStem: 161 47<8 19.5> 179 22<261.5 271> 403 23<495.5 602.5>
LayerCount: 2
Back
Fore
SplineSet
292 691 m 0xd8
 379 691 426 640 426 576 c 0
 426 403 200 407 201 271 c 0
 201 249 205 232 208 218 c 1
 189 213 l 1
 183 232 179 252 179 271 c 0
 178 420 403 416 403 575 c 0
 403 630 363 672 292 672 c 0
 222 672 176 646 121 594 c 1
 106 608 l 1
 164 665 218 691 292 691 c 0xd8
186 37 m 0xe8
 200 37 208 27 208 15 c 0
 208 1 198 -9 183 -9 c 0
 170 -9 161 0 161 12 c 0
 161 27 172 37 186 37 c 0xe8
EndSplineSet
EndChar

StartChar: at
Encoding: 64 64 1220
Width: 1020
Flags: MW
HStem: -197 21<367.5 508 367.5 511.5> 15 19<687 788 684.5 796> 17 20<422.5 490> 456 21<475 576> 671 21<411 687>
VStem: 92 22<66.5 277 66.5 281> 318 23<132.5 234 132.5 243.5> 622 20.38 908 23<289 448>
LayerCount: 2
Fore
SplineSet
578 692 m 0xdf80
 813 692 931 545 931 359 c 0
 931 204 870 15 722 15 c 0xdf80
 652 15 623 73 622 138 c 1
 580 59 525 17 455 17 c 0xbf80
 378 17 318 72 318 183 c 0
 318 304 383 477 554 477 c 0
 605 477 648 461 680 443 c 1
 645 183 l 2
 635 107 648 34 721 34 c 0
 855 34 908 219 908 359 c 0
 908 537 796 671 578 671 c 0
 244 671 114 378 114 176 c 0
 114 -43 263 -176 472 -176 c 0
 544 -176 606 -164 662 -144 c 1
 666 -164 l 1
 611 -183 551 -197 472 -197 c 0
 252 -197 92 -55 92 175 c 0
 92 387 227 692 578 692 c 0xdf80
457 37 m 0xbf80
 527 37 587 94 620 169 c 1
 657 430 l 1
 628 445 597 456 555 456 c 0
 395 456 341 288 341 180 c 0
 341 85 388 37 457 37 c 0xbf80
EndSplineSet
EndChar

StartChar: A
Encoding: 65 65 1
Width: 557
GlyphClass: 2
Flags: MW
HStem: 0 21G<-10 15 -10 -10 469 469 469 493> 203 21<123 424 123 428 113 424> 662 19<335 335>
VStem: -10 503<0 0>
AnchorPoint: "Anchor-11" 0 0 basechar 0
AnchorPoint: "Anchor-10" 198 519 basechar 0
AnchorPoint: "Anchor-9" 338 681 basechar 0
AnchorPoint: "Anchor-8" 503 0 basechar 0
LayerCount: 2
Fore
SplineSet
428 203 m 1
 113 203 l 1
 15 0 l 1
 -10 0 l 1
 324 681 l 1
 351 681 l 1
 493 0 l 1
 469 0 l 1
 428 203 l 1
424 224 m 1
 335 662 l 1
 123 224 l 1
 424 224 l 1
EndSplineSet
Substitution2: "Single Substitution lookup 30 subtable" ordfeminine
Substitution2: "'c2sc' Capitals to Small Capitals lookup 23 subtable" a.sc
AlternateSubs2: "'aalt' Access All Alternates lookup 1 subtable" ordfeminine a.sc
Position2: "'cpsp' Capital Spacing lookup 0 subtable" dx=5 dy=0 dh=10 dv=0
EndChar
StartChar: C
Encoding: 67 67 42
Width: 538
GlyphClass: 2
Flags: MW
HStem: -10 22<246.5 344> 670 21<292.5 436>
VStem: 83 23<176.5 341.5 176.5 347>
AnchorPoint: "Anchor-14" 0 0 basechar 0
AnchorPoint: "Anchor-13" 0 0 basechar 0
AnchorPoint: "Anchor-12" 401 681 basechar 0
AnchorPoint: "Anchor-11" 0 0 basechar 0
AnchorPoint: "Anchor-10" 304 0 basechar 0
LayerCount: 2
Back
Fore
SplineSet
403 691 m 0
 477 691 519 668 556 633 c 1
 542 617 l 1
 503 652 468 670 404 670 c 0
 181 670 106 425 106 258 c 0
 106 95 187 12 306 12 c 0
 383 12 429 39 471 71 c 1
 484 53 l 1
 439 18 383 -10 305 -10 c 0
 173 -10 83 83 83 257 c 0
 83 437 166 691 403 691 c 0
EndSplineSet
Substitution2: "'c2sc' Capitals to Small Capitals lookup 27 subtable" c.sc
Substitution2: "'aalt' Access All Alternates lookup 0 subtable" c.sc
Position2: "'cpsp' Capital Spacing lookup 0 subtable" dx=5 dy=0 dh=10 dv=0
EndChar

StartChar: F
Encoding: 70 70 34
Width: 471
GlyphClass: 2
Flags: MW
HStem: 0 21G<86 109 86 86> 335 21<159 407 156 410> 660 21<202 492 202 202>
VStem: 86 412
LayerCount: 2
Fore
SplineSet
492 660 m 1
 202 660 l 1
 159 356 l 1
 410 356 l 1
 407 335 l 1
 156 335 l 1
 109 0 l 1
 86 0 l 1
 182 681 l 1
 498 681 l 1
 492 660 l 1
EndSplineSet
Substitution2: "'c2sc' Capitals to Small Capitals lookup 23 subtable" f.sc
Substitution2: "'aalt' Access All Alternates lookup 0 subtable" f.sc
Position2: "'cpsp' Capital Spacing lookup 0 subtable" dx=5 dy=0 dh=10 dv=0
EndChar
StartChar: H
Encoding: 72 72 107
Width: 660
GlyphClass: 2
Flags: MW
HStem: 0 21G<86 109 86 86 477 500 477 477> 351 21<161 527 158 530> 661 20G<182 205 205 205 573 596 596 596>
VStem: 86 510
AnchorPoint: "Anchor-14" 339 341 basechar 0
AnchorPoint: "Anchor-13" 0 0 basechar 0
AnchorPoint: "Anchor-12" 387 681 basechar 0
AnchorPoint: "Anchor-11" 0 0 basechar 0
AnchorPoint: "Anchor-10" 293 0 basechar 0
LayerCount: 2
Back
Fore
SplineSet
477 0 m 1
 527 351 l 1
 158 351 l 1
 109 0 l 1
 86 0 l 1
 182 681 l 1
 205 681 l 1
 161 372 l 1
 530 372 l 1
 573 681 l 1
 596 681 l 1
 500 0 l 1
 477 0 l 1
EndSplineSet
Substitution2: "'c2sc' Capitals to Small Capitals lookup 27 subtable" h.sc
Substitution2: "'aalt' Access All Alternates lookup 0 subtable" h.sc
Position2: "'cpsp' Capital Spacing lookup 0 subtable" dx=5 dy=0 dh=10 dv=0
EndChar
StartChar: J
Encoding: 74 74 134
Width: 278
GlyphClass: 2
Flags: MW
HStem: 661 20G<197 220 220 220>
VStem: -26 246
AnchorPoint: "Anchor-14" 0 0 basechar 0
AnchorPoint: "Anchor-13" 0 0 basechar 0
AnchorPoint: "Anchor-12" 207 681 basechar 0
AnchorPoint: "Anchor-11" 0 0 basechar 0
AnchorPoint: "Anchor-10" 0 0 basechar 0
LayerCount: 2
Back
Fore
SplineSet
220 681 m 1
 137 87 l 2
 122 -13 95 -53 -20 -100 c 1
 -26 -83 l 1
 73 -40 101 -3 114 90 c 2
 197 681 l 1
 220 681 l 1
EndSplineSet
Substitution2: "'c2sc' Capitals to Small Capitals lookup 27 subtable" j.sc
Substitution2: "'aalt' Access All Alternates lookup 0 subtable" j.sc
Position2: "'cpsp' Capital Spacing lookup 0 subtable" dx=5 dy=0 dh=10 dv=0
EndChar
StartChar: K
Encoding: 75 75 137
Width: 510
GlyphClass: 2
Flags: MW
HStem: 0 21G<86 109 86 86 442 442 442 469> 661 20G<182 205 205 205 520 549 549 549>
VStem: 86 463
AnchorPoint: "Anchor-14" 0 0 basechar 0
AnchorPoint: "Anchor-13" 0 0 basechar 0
AnchorPoint: "Anchor-12" 347 681 basechar 0
AnchorPoint: "Anchor-11" 0 0 basechar 0
AnchorPoint: "Anchor-10" 259 0 basechar 0
LayerCount: 2
Back
Fore
SplineSet
205 681 m 1
 109 0 l 1
 86 0 l 1
 182 681 l 1
 205 681 l 1
549 681 m 1
 192 365 l 1
 469 0 l 1
 442 0 l 1
 164 367 l 1
 520 681 l 1
 549 681 l 1
EndSplineSet
Substitution2: "'c2sc' Capitals to Small Capitals lookup 27 subtable" k.sc
Substitution2: "'aalt' Access All Alternates lookup 0 subtable" k.sc
Position2: "'cpsp' Capital Spacing lookup 0 subtable" dx=5 dy=0 dh=10 dv=0
EndChar
StartChar: L
Encoding: 76 76 141
Width: 452
GlyphClass: 2
Flags: MW
HStem: 0 22<112 393> 661 20G<182 205 205 205>
VStem: 86 315<0 22>
AnchorPoint: "Anchor-14" 364 354 basechar 0
AnchorPoint: "Anchor-13" 250 681 basechar 0
AnchorPoint: "Anchor-12" 194 681 basechar 0
AnchorPoint: "Anchor-11" 0 0 basechar 0
AnchorPoint: "Anchor-10" 240 0 basechar 0
LayerCount: 2
Back
Fore
SplineSet
205 681 m 1
 112 22 l 1
 401 22 l 1
 393 0 l 1
 86 0 l 1
 182 681 l 1
 205 681 l 1
EndSplineSet
Substitution2: "'c2sc' Capitals to Small Capitals lookup 27 subtable" l.sc
Substitution2: "'aalt' Access All Alternates lookup 0 subtable" l.sc
Position2: "'cpsp' Capital Spacing lookup 0 subtable" dx=5 dy=0 dh=10 dv=0
EndChar
StartChar: N
Encoding: 78 78 156
Width: 661
GlyphClass: 2
Flags: MW
HStem: 0 25<487 487 487 502 474 487> 658 23<197 197>
VStem: 86 511
AnchorPoint: "Anchor-14" 0 0 basechar 0
AnchorPoint: "Anchor-13" 0 0 basechar 0
AnchorPoint: "Anchor-12" 396 681 basechar 0
AnchorPoint: "Anchor-11" 0 0 basechar 0
AnchorPoint: "Anchor-10" 292 0 basechar 0
LayerCount: 2
Back
Fore
SplineSet
597 681 m 1
 502 0 l 1
 474 0 l 1
 197 658 l 1
 195 619 189 575 175 476 c 2
 108 0 l 1
 86 0 l 1
 182 681 l 1
 211 681 l 1
 487 25 l 1
 491 67 498 128 509 205 c 2
 575 681 l 1
 597 681 l 1
EndSplineSet
Substitution2: "'c2sc' Capitals to Small Capitals lookup 27 subtable" n.sc
Substitution2: "'aalt' Access All Alternates lookup 0 subtable" n.sc
Position2: "'cpsp' Capital Spacing lookup 0 subtable" dx=5 dy=0 dh=10 dv=0
EndChar
StartChar: R
Encoding: 82 82 218
Width: 572
GlyphClass: 2
Flags: MW
HStem: 0 21G<86 109 86 86 466 491 466 466> 324 21<157 302 302 322 154 302> 660 21<202 330 330 333 202 202>
VStem: 509 24<491 574.5>
AnchorPoint: "Anchor-14" 0 0 basechar 0
AnchorPoint: "Anchor-13" 0 0 basechar 0
AnchorPoint: "Anchor-12" 346 681 basechar 0
AnchorPoint: "Anchor-11" 0 0 basechar 0
AnchorPoint: "Anchor-10" 267 0 basechar 0
LayerCount: 2
Back
Fore
SplineSet
533 533 m 0
 533 445 486 349 345 327 c 1
 491 0 l 1
 466 0 l 1
 322 324 l 1
 154 324 l 1
 109 0 l 1
 86 0 l 1
 182 681 l 1
 330 681 l 2
 473 681 533 629 533 533 c 0
157 345 m 1
 302 345 l 2
 458 345 509 448 509 534 c 0
 509 615 461 660 333 660 c 2
 202 660 l 1
 157 345 l 1
EndSplineSet
Substitution2: "'c2sc' Capitals to Small Capitals lookup 27 subtable" r.sc
Substitution2: "'aalt' Access All Alternates lookup 0 subtable" r.sc
Position2: "'cpsp' Capital Spacing lookup 0 subtable" dx=5 dy=0 dh=10 dv=0
EndChar

StartChar: U
Encoding: 85 85 101
Width: 641
GlyphClass: 2
Flags: MW
HStem: -10 22<218 351 218 357> 661 20G<172 195 195 195 564 587 587 587>
VStem: 102.36 22.33
AnchorPoint: "Anchor-11" 0 0 basechar 0
AnchorPoint: "Anchor-10" 0 0 basechar 0
AnchorPoint: "Anchor-9" 383 681 basechar 0
AnchorPoint: "Anchor-8" 367 0 basechar 0
LayerCount: 2
Fore
SplineSet
520 207 m 2
 503 81 430 -10 284 -10 c 0
 135 -10 88 82 106 208 c 2
 172 681 l 1
 195 681 l 1
 128 209 l 2
 112 93 152 12 284 12 c 0
 418 12 482 96 498 210 c 2
 564 681 l 1
 587 681 l 1
 520 207 l 2
EndSplineSet
Substitution2: "'c2sc' Capitals to Small Capitals lookup 23 subtable" u.sc
Substitution2: "'aalt' Access All Alternates lookup 0 subtable" u.sc
Position2: "'cpsp' Capital Spacing lookup 0 subtable" dx=5 dy=0 dh=10 dv=0
EndChar

StartChar: V
Encoding: 86 86 112
Width: 534
GlyphClass: 2
Flags: MW
HStem: 0 21<233 233 233 245 216 233> 661 20G<87 111 111 111 541 565 565 565>
VStem: 87 478<681 681>
LayerCount: 2
Fore
SplineSet
245 0 m 1
 216 0 l 1
 87 681 l 1
 111 681 l 1
 233 21 l 1
 541 681 l 1
 565 681 l 1
 245 0 l 1
EndSplineSet
Substitution2: "'c2sc' Capitals to Small Capitals lookup 23 subtable" v.sc
Substitution2: "'aalt' Access All Alternates lookup 0 subtable" v.sc
Position2: "'cpsp' Capital Spacing lookup 0 subtable" dx=5 dy=0 dh=10 dv=0
EndChar
StartChar: Y
Encoding: 89 89 293
Width: 494
GlyphClass: 2
Flags: MW
HStem: 0 21G<200 223 200 200> 661 20G<80 105 105 105 505 532 532 532>
VStem: 80 452<681 681>
AnchorPoint: "Anchor-14" 0 0 basechar 0
AnchorPoint: "Anchor-13" 0 0 basechar 0
AnchorPoint: "Anchor-12" 303 681 basechar 0
AnchorPoint: "Anchor-11" 0 0 basechar 0
AnchorPoint: "Anchor-10" 212 0 basechar 0
LayerCount: 2
Back
Fore
SplineSet
532 681 m 1
 261 271 l 1
 223 0 l 1
 200 0 l 1
 238 270 l 1
 80 681 l 1
 105 681 l 1
 251 293 l 1
 505 681 l 1
 532 681 l 1
EndSplineSet
Substitution2: "'c2sc' Capitals to Small Capitals lookup 27 subtable" y.sc
Substitution2: "'aalt' Access All Alternates lookup 0 subtable" y.sc
Position2: "'cpsp' Capital Spacing lookup 0 subtable" dx=5 dy=0 dh=10 dv=0
EndChar

StartChar: Z
Encoding: 90 90 124
Width: 509
GlyphClass: 2
Flags: MW
HStem: 0 22<36 406> 660 21<138 487 135 518>
VStem: 5 513
AnchorPoint: "Anchor-11" 0 0 basechar 0
AnchorPoint: "Anchor-10" 0 0 basechar 0
AnchorPoint: "Anchor-9" 314 681 basechar 0
AnchorPoint: "Anchor-8" 0 0 basechar 0
LayerCount: 2
Fore
SplineSet
516 662 m 1
 36 22 l 1
 412 22 l 1
 406 0 l 1
 5 0 l 1
 8 21 l 1
 487 660 l 1
 135 660 l 1
 138 681 l 1
 518 681 l 1
 516 662 l 1
EndSplineSet
Substitution2: "'c2sc' Capitals to Small Capitals lookup 23 subtable" z.sc
Substitution2: "'aalt' Access All Alternates lookup 0 subtable" z.sc
Position2: "'cpsp' Capital Spacing lookup 0 subtable" dx=5 dy=0 dh=10 dv=0
EndChar

StartChar: bracketleft
Encoding: 91 91 1007
Width: 312
Flags: MW
HStem: -106 17<74 178> 779 17<196 303 196 196>
VStem: 51 254
LayerCount: 2
Fore
SplineSet
303 779 m 1
 196 779 l 1
 74 -89 l 1
 180 -89 l 1
 178 -106 l 1
 51 -106 l 1
 179 796 l 1
 305 796 l 1
 303 779 l 1
EndSplineSet
Substitution2: "'case' Case-Sensitive Forms lookup 25 subtable" bracketleft.case
Substitution2: "'aalt' Access All Alternates lookup 0 subtable" bracketleft.case
EndChar
StartChar: backslash
Encoding: 92 92 2119
Width: 520
Flags: MW
HStem: -95 893<229 316>
VStem: 209 128
LayerCount: 2
Back
Fore
SplineSet
229 798 m 1
 337 -90 l 1
 316 -95 l 1
 209 792 l 1
 229 798 l 1
EndSplineSet
EndChar
StartChar: bracketright
Encoding: 93 93 2149
Width: 312
Flags: MW
HStem: -106 17<33 140 33 158 31 140> 779 17<158 263 156 285>
VStem: 31 254
LayerCount: 2
Back
Fore
SplineSet
285 796 m 1
 158 -106 l 1
 31 -106 l 1
 33 -89 l 1
 140 -89 l 1
 263 779 l 1
 156 779 l 1
 158 796 l 1
 285 796 l 1
EndSplineSet
Substitution2: "'case' Case-Sensitive Forms lookup 29 subtable" bracketright.case
Substitution2: "'aalt' Access All Alternates lookup 0 subtable" bracketright.case
EndChar
StartChar: asciicircum
Encoding: 94 94 2389
Width: 524
GlyphClass: 2
Flags: MW
HStem: 796 27<337 337>
VStem: 113 371<527 527>
LayerCount: 2
Back
Fore
SplineSet
348 823 m 1
 484 527 l 1
 456 527 l 1
 337 796 l 1
 142 527 l 1
 113 527 l 1
 333 823 l 1
 348 823 l 1
EndSplineSet
EndChar
StartChar: underscore
Encoding: 95 95 2137
Width: 520
Flags: MW
HStem: -100 21<-8 431 -5 428>
VStem: -8 439<-100 -79>
LayerCount: 2
Back
Fore
SplineSet
-8 -100 m 1
 -5 -79 l 1
 431 -79 l 1
 428 -100 l 1
 -8 -100 l 1
EndSplineSet
EndChar

StartChar: grave
Encoding: 96 96 1259
Width: 246
Flags: MW
HStem: 718 20G<97 97>
VStem: 97 175<669 738>
LayerCount: 2
Fore
SplineSet
272 669 m 1
 263 654 l 1
 97 738 l 1
 110 761 l 1
 272 669 l 1
EndSplineSet
Substitution2: "'case' Case-Sensitive Forms lookup 25 subtable" grave.case
Substitution2: "'smcp' Lowercase to Small Capitals lookup 24 subtable" grave.sc
Substitution2: "'c2sc' Capitals to Small Capitals lookup 23 subtable" grave.sc
AlternateSubs2: "'aalt' Access All Alternates lookup 1 subtable" grave.sc grave.case
EndChar

StartChar: b
Encoding: 98 98 146
Width: 564
GlyphClass: 2
Flags: MW
HStem: -10 21<214.5 332.5 214.5 340> 509 20<307 387.5> 716 20G<207 207>
VStem: 476 22<278 395.5>
LayerCount: 2
Fore
SplineSet
165 437 m 1
 211 490 270 529 344 529 c 0
 445 529 498 462 498 339 c 0
 498 202 436 -10 244 -10 c 0
 185 -10 144 0 85 24 c 1
 185 733 l 1
 207 736 l 1
 165 437 l 1
344 509 m 0
 266 509 214 468 161 408 c 1
 110 39 l 1
 149 22 186 11 243 11 c 0
 422 11 476 216 476 340 c 0
 476 451 431 509 344 509 c 0
EndSplineSet
Substitution2: "'smcp' Lowercase to Small Capitals lookup 24 subtable" b.sc
Substitution2: "'aalt' Access All Alternates lookup 0 subtable" b.sc
EndChar

StartChar: d
Encoding: 100 100 153
Width: 574
GlyphClass: 2
Flags: MW
HStem: -10 21<187 273 187 273.5> 0 21G<401 420 401 401> 509 20<234.5 355> 713 20G<523 523> 716 20G<501 501>
VStem: 73 23<133.5 255 133.5 257.5>
LayerCount: 2
Fore
SplineSet
523 733 m 1xb4
 420 0 l 1
 401 0 l 1x6c
 416 130 l 1
 377 59 320 -10 227 -10 c 0
 133 -10 73 64 73 190 c 0
 73 325 134 529 316 529 c 0
 397 529 439 485 460 445 c 1
 501 736 l 1xac
 523 733 l 1xb4
317 509 m 0
 152 509 96 319 96 191 c 0
 96 76 146 11 228 11 c 0xac
 318 11 372 81 422 171 c 1
 457 416 l 1
 434 465 393 509 317 509 c 0
EndSplineSet
Substitution2: "'smcp' Lowercase to Small Capitals lookup 24 subtable" d.sc
Substitution2: "'aalt' Access All Alternates lookup 0 subtable" d.sc
EndChar
StartChar: f
Encoding: 102 102 447
Width: 307
GlyphClass: 2
Flags: MW
HStem: -195 21G<-32 -32> 499 20<67 154 65 157 179 320 67 176> 717 20<280 330.5>
VStem: -39 463
AnchorPoint: "Anchor-14" 0 0 basechar 0
AnchorPoint: "Anchor-13" 0 0 basechar 0
AnchorPoint: "Anchor-12" 306 732 basechar 0
AnchorPoint: "Anchor-11" 0 0 basechar 0
AnchorPoint: "Anchor-10" 69 -192 basechar 0
LayerCount: 2
Back
Fore
SplineSet
311 717 m 0
 249 717 202 686 192 614 c 2
 179 519 l 1
 326 519 l 1
 320 499 l 1
 176 499 l 1
 107 5 l 2
 90 -123 51 -155 -32 -195 c 1
 -39 -177 l 1
 35 -141 69 -110 86 7 c 2
 154 499 l 1
 65 499 l 1
 67 519 l 1
 157 519 l 1
 171 617 l 2
 182 695 237 737 312 737 c 0
 353 737 389 725 424 702 c 1
 414 686 l 1
 378 707 350 717 311 717 c 0
EndSplineSet
Substitution2: "'smcp' Lowercase to Small Capitals lookup 28 subtable" f.sc
Substitution2: "'locl' Localized Forms in Latin lookup 11 subtable" f.loclEWE
AlternateSubs2: "'aalt' Access All Alternates lookup 1 subtable" f.loclEWE f.sc
EndChar

StartChar: i
Encoding: 105 105 176
Width: 258
GlyphClass: 2
Flags: MW
HStem: 0 21G<81 103 81 81> 499 20G<155 177 177 177> 685 39<186.5 196.5>
VStem: 171 40
AnchorPoint: "Anchor-11" 0 0 basechar 0
AnchorPoint: "Anchor-10" 0 0 basechar 0
AnchorPoint: "Anchor-9" 166 519 basechar 0
AnchorPoint: "Anchor-8" 113 0 basechar 0
LayerCount: 2
Fore
SplineSet
192 724 m 0
 206 724 213 714 211 703 c 0
 210 693 203 685 190 685 c 0
 177 685 170 694 171 706 c 1
 173 716 181 724 192 724 c 0
103 0 m 1
 81 0 l 1
 155 519 l 1
 177 519 l 1
 103 0 l 1
EndSplineSet
Substitution2: "'smcp' Lowercase to Small Capitals lookup 24 subtable" i.sc
Substitution2: "'locl' Localized Forms in Latin lookup 10 subtable" i.loclTRK
Substitution2: "'locl' Localized Forms in Latin lookup 8 subtable" i.loclTRK
Substitution2: "'locl' Localized Forms in Latin lookup 6 subtable" i.loclTRK
Substitution2: "'locl' Localized Forms in Latin lookup 3 subtable" i.loclTRK
Substitution2: "'locl' Localized Forms in Latin lookup 2 subtable" i.loclTRK
AlternateSubs2: "'aalt' Access All Alternates lookup 1 subtable" i.loclTRK i.sc
EndChar

StartChar: k
Encoding: 107 107 191
Width: 505
GlyphClass: 2
Flags: MW
HStem: 0 21G<81 103 81 81 392 416 392 392> 511 18<328 396.5> 716 20G<207 207>
VStem: 455 22<382 448.5>
AnchorPoint: "Anchor-11" 237 0 basechar 0
AnchorPoint: "Anchor-10" 0 0 basechar 0
AnchorPoint: "Anchor-9" 0 0 basechar 0
AnchorPoint: "Anchor-8" 0 0 basechar 0
LayerCount: 2
Fore
SplineSet
152 347 m 1
 213 474 290 529 366 529 c 0
 434 529 477 490 477 424 c 0
 477 337 410 277 295 240 c 1
 416 0 l 1
 392 0 l 1
 267 250 l 1
 386 284 455 341 455 423 c 0
 455 474 429 511 364 511 c 0
 279 511 206 428 145 298 c 1
 103 0 l 1
 81 0 l 1
 185 733 l 1
 207 736 l 1
 152 347 l 1
EndSplineSet
Substitution2: "'smcp' Lowercase to Small Capitals lookup 24 subtable" k.sc
Substitution2: "'aalt' Access All Alternates lookup 0 subtable" k.sc
EndChar
StartChar: l
Encoding: 108 108 511
Width: 276
GlyphClass: 2
Flags: MW
HStem: -10 21<133 158 133 158> 0 21G<198 198> 716 20G<202 202>
VStem: 87 22<73 75>
AnchorPoint: "Anchor-14" 276 375 basechar 0
AnchorPoint: "Anchor-13" 237 732 basechar 0
AnchorPoint: "Anchor-12" 191 733 basechar 0
AnchorPoint: "Anchor-11" 0 0 basechar 0
AnchorPoint: "Anchor-10" 143 0 basechar 0
LayerCount: 2
Back
Fore
SplineSet
202 736 m 1xb0
 109 73 l 2
 103 33 115 11 151 11 c 0xb0
 165 11 180 15 192 19 c 1x70
 198 0 l 1
 184 -5 166 -10 150 -10 c 0
 103 -10 79 18 87 75 c 2
 180 733 l 1
 202 736 l 1xb0
EndSplineSet
Substitution2: "'smcp' Lowercase to Small Capitals lookup 28 subtable" l.sc
Substitution2: "'sups' Superscript lookup 15 subtable" uni02E1
AlternateSubs2: "'aalt' Access All Alternates lookup 1 subtable" uni02E1 l.sc
EndChar

StartChar: n
Encoding: 110 110 201
Width: 581
GlyphClass: 2
Flags: MW
HStem: 0 21G<81 103 81 81 410 432 410 410> 499 20G<155 173 173 173> 510 19<328 405.5>
VStem: 464.84 22.04
AnchorPoint: "Anchor-11" 253 0 basechar 0
AnchorPoint: "Anchor-10" 0 0 basechar 0
AnchorPoint: "Anchor-9" 332 519 basechar 0
AnchorPoint: "Anchor-8" 0 0 basechar 0
LayerCount: 2
Fore
SplineSet
369 529 m 0xb0
 462 529 498 470 484 369 c 2
 432 0 l 1
 410 0 l 1
 462 367 l 2
 475 462 445 510 366 510 c 0xb0
 282 510 211 437 148 315 c 1
 103 0 l 1
 81 0 l 1
 155 519 l 1
 173 519 l 1xd0
 153 358 l 1
 211 471 287 529 369 529 c 0xb0
EndSplineSet
Substitution2: "'smcp' Lowercase to Small Capitals lookup 24 subtable" n.sc
Substitution2: "'aalt' Access All Alternates lookup 0 subtable" n.sc
EndChar

StartChar: p
Encoding: 112 112 220
Width: 569
GlyphClass: 2
Flags: MW
HStem: -196 21G<54 54> -10 21<218 332.5 214.5 340> 499 20G<155 174 174 174> 509 20<307.5 387.5>
VStem: 476 22<278 395.5>
LayerCount: 2
Fore
SplineSet
344 529 m 0xd8
 445 529 498 462 498 339 c 0
 498 202 436 -10 244 -10 c 0
 192 -10 154 -2 106 17 c 1
 76 -193 l 1
 54 -196 l 1
 155 519 l 1
 174 519 l 1xe8
 164 436 l 1
 213 492 271 529 344 529 c 0xd8
344 509 m 0
 266 509 214 468 161 408 c 1
 109 39 l 1
 149 22 186 11 243 11 c 0
 422 11 476 216 476 340 c 0
 476 451 431 509 344 509 c 0
EndSplineSet
Substitution2: "'smcp' Lowercase to Small Capitals lookup 24 subtable" p.sc
Substitution2: "'aalt' Access All Alternates lookup 0 subtable" p.sc
EndChar

StartChar: q
Encoding: 113 113 222
Width: 556
GlyphClass: 2
Flags: MW
HStem: -196 21G<358 358> -10 21<184 261> 510 19<239.5 353>
VStem: 68 22<135 255.5 135 260>
LayerCount: 2
Fore
SplineSet
328 529 m 0
 393 529 434 511 473 488 c 1
 378 -193 l 1
 358 -196 l 1
 399 98 l 1
 358 31 295 -10 227 -10 c 0
 127 -10 68 67 68 190 c 0
 68 330 135 529 328 529 c 0
328 510 m 0
 151 510 90 320 90 191 c 0
 90 79 140 11 228 11 c 0
 296 11 357 53 403 135 c 1
 451 477 l 1
 419 497 378 510 328 510 c 0
EndSplineSet
Substitution2: "'smcp' Lowercase to Small Capitals lookup 24 subtable" q.sc
Substitution2: "'aalt' Access All Alternates lookup 0 subtable" q.sc
EndChar

StartChar: r
Encoding: 114 114 223
Width: 362
GlyphClass: 2
Flags: MW
HStem: 0 21G<81 103 81 81> 499 20G<155 174 174 174> 502 20G<381 381> 509 20<292 339>
VStem: 81 300
AnchorPoint: "Anchor-11" 91 0 basechar 0
AnchorPoint: "Anchor-10" 0 0 basechar 0
AnchorPoint: "Anchor-9" 266 519 basechar 0
AnchorPoint: "Anchor-8" 0 0 basechar 0
LayerCount: 2
Fore
SplineSet
333 529 m 0x98
 353 529 370 525 381 522 c 1xa8
 375 503 l 1
 362 507 345 509 333 509 c 0x98
 250 509 199 446 149 324 c 1
 103 0 l 1
 81 0 l 1
 155 519 l 1
 174 519 l 1xc8
 153 371 l 1
 194 475 251 529 333 529 c 0x98
EndSplineSet
Substitution2: "'smcp' Lowercase to Small Capitals lookup 24 subtable" r.sc
Substitution2: "'aalt' Access All Alternates lookup 0 subtable" r.sc
EndChar

StartChar: t
Encoding: 116 116 234
Width: 324
GlyphClass: 2
Flags: MW
HStem: -10 20<158.5 207 158.5 207.5> 499 20<62 145 60 148 170 308>
VStem: 89.84 22
AnchorPoint: "Anchor-11" 187 0 basechar 0
AnchorPoint: "Anchor-10" 0 0 basechar 0
AnchorPoint: "Anchor-9" 0 0 basechar 0
AnchorPoint: "Anchor-8" 0 0 basechar 0
LayerCount: 2
Fore
SplineSet
114 118 m 2
 104 48 128 10 189 10 c 0
 225 10 256 22 284 37 c 1
 292 20 l 1
 262 3 228 -10 187 -10 c 0
 119 -10 80 33 92 117 c 2
 145 499 l 1
 60 499 l 1
 62 519 l 1
 148 519 l 1
 172 650 l 1
 189 652 l 1
 170 519 l 1
 314 519 l 1
 308 499 l 1
 168 499 l 1
 114 118 l 2
EndSplineSet
Substitution2: "'smcp' Lowercase to Small Capitals lookup 24 subtable" t.sc
Substitution2: "'aalt' Access All Alternates lookup 0 subtable" t.sc
EndChar

StartChar: v
Encoding: 118 118 250
Width: 447
GlyphClass: 2
Flags: MW
HStem: 0 19<193 193 193 206 177 193> 499 20G<60 83 83 83 435 461 461 461>
VStem: 60 401<519 519>
LayerCount: 2
Fore
SplineSet
206 0 m 1
 177 0 l 1
 60 519 l 1
 83 519 l 1
 193 19 l 1
 435 519 l 1
 461 519 l 1
 206 0 l 1
EndSplineSet
Substitution2: "'smcp' Lowercase to Small Capitals lookup 24 subtable" v.sc
Substitution2: "'aalt' Access All Alternates lookup 0 subtable" v.sc
EndChar

StartChar: w
Encoding: 119 119 251
Width: 680
GlyphClass: 2
Flags: MW
HStem: 0 21<153 153 153 165 135 153> 497 22<375 375>
VStem: 70 614<519 519>
AnchorPoint: "Anchor-11" 0 0 basechar 0
AnchorPoint: "Anchor-10" 0 0 basechar 0
AnchorPoint: "Anchor-9" 377 519 basechar 0
AnchorPoint: "Anchor-8" 0 0 basechar 0
LayerCount: 2
Fore
SplineSet
474 0 m 1
 446 0 l 1
 375 497 l 1
 165 0 l 1
 135 0 l 1
 70 519 l 1
 92 519 l 1
 153 21 l 1
 364 519 l 1
 392 519 l 1
 463 21 l 1
 661 519 l 1
 684 519 l 1
 474 0 l 1
EndSplineSet
Substitution2: "'smcp' Lowercase to Small Capitals lookup 24 subtable" w.sc
Substitution2: "'aalt' Access All Alternates lookup 0 subtable" w.sc
EndChar
StartChar: x
Encoding: 120 120 698
Width: 433
GlyphClass: 2
Flags: MW
HStem: 0 21G<-19 7 -19 -19 354 379 354 354> 499 20G<80 104 104 104 401 427 427 427>
VStem: -19 446
AnchorPoint: "Anchor-14" 0 0 basechar 0
AnchorPoint: "Anchor-13" 0 0 basechar 0
AnchorPoint: "Anchor-12" 251 519 basechar 0
AnchorPoint: "Anchor-11" 0 0 basechar 0
AnchorPoint: "Anchor-10" 178 0 basechar 0
LayerCount: 2
Back
Fore
SplineSet
427 519 m 1
 232 277 l 1
 379 0 l 1
 354 0 l 1
 216 263 l 1
 7 0 l 1
 -19 0 l 1
 205 279 l 1
 80 519 l 1
 104 519 l 1
 220 293 l 1
 401 519 l 1
 427 519 l 1
EndSplineSet
Substitution2: "'smcp' Lowercase to Small Capitals lookup 28 subtable" x.sc
Substitution2: "'sups' Superscript lookup 15 subtable" uni02E3
AlternateSubs2: "'aalt' Access All Alternates lookup 1 subtable" uni02E3 x.sc
EndChar

StartChar: y
Encoding: 121 121 257
Width: 444
GlyphClass: 2
Flags: MW
HStem: -195 21G<-4 -4> 0 16 1 21G<183 183> 499 20G<60 83 83 83 433 458 458 458>
VStem: -6 464
AnchorPoint: "Anchor-11" 0 0 basechar 0
AnchorPoint: "Anchor-10" 0 0 basechar 0
AnchorPoint: "Anchor-9" 253 519 basechar 0
AnchorPoint: "Anchor-8" 0 0 basechar 0
LayerCount: 2
Fore
SplineSet
205 -2 m 2xb8
 149 -116 110 -163 -4 -195 c 1
 -6 -177 l 1
 102 -146 131 -103 183 1 c 1
 173 0 l 1xb8
 60 519 l 1
 83 519 l 1
 191 16 l 1xd8
 433 519 l 1
 458 519 l 1
 205 -2 l 2xb8
EndSplineSet
Substitution2: "'smcp' Lowercase to Small Capitals lookup 24 subtable" y.sc
Substitution2: "'aalt' Access All Alternates lookup 0 subtable" y.sc
EndChar

StartChar: z
Encoding: 122 122 262
Width: 410
GlyphClass: 2
Flags: MW
HStem: 0 20.5 499 20<95 379 92 410>
VStem: -6 416
AnchorPoint: "Anchor-11" 0 0 basechar 0
AnchorPoint: "Anchor-10" 0 0 basechar 0
AnchorPoint: "Anchor-9" 251 519 basechar 0
AnchorPoint: "Anchor-8" 0 0 basechar 0
LayerCount: 2
Fore
SplineSet
407 501 m 1
 26 20 l 1
 332 21 l 1
 327 0 l 1
 -6 0 l 1
 -2 18 l 1
 379 499 l 1
 92 499 l 1
 95 519 l 1
 410 519 l 1
 407 501 l 1
EndSplineSet
Substitution2: "'smcp' Lowercase to Small Capitals lookup 24 subtable" z.sc
Substitution2: "'aalt' Access All Alternates lookup 0 subtable" z.sc
EndChar

StartChar: braceleft
Encoding: 123 123 1005
Width: 328
Flags: MW
HStem: -120 17<163.5 191> 339 20<77 99> 801 17<292.5 321>
VStem: 76 25 105 17.95 145 18<257 267>
LayerCount: 2
Fore
SplineSet
321 801 m 1
 264 801 236 772 227 711 c 2
 189 440 l 2
 181 379 153 356 101 349 c 1
 149 342 172 319 163 257 c 2xf4
 125 -14 l 2
 116 -76 135 -103 192 -103 c 1
 191 -120 l 1
 133 -120 95 -89 105 -17 c 2xe8
 145 267 l 2
 152 319 123 339 75 339 c 1
 77 359 l 1
 124 359 161 380 169 433 c 2xf4
 208 716 l 2
 218 788 260 818 322 818 c 1
 321 801 l 1
EndSplineSet
Substitution2: "'case' Case-Sensitive Forms lookup 25 subtable" braceleft.case
Substitution2: "'aalt' Access All Alternates lookup 0 subtable" braceleft.case
EndChar
StartChar: bar
Encoding: 124 124 2376
Width: 413
GlyphClass: 2
Flags: MW
HStem: -98 899<146 293 146 293>
VStem: 146 147
LayerCount: 2
Back
Fore
SplineSet
293 801 m 1
 168 -98 l 1
 146 -98 l 1
 271 801 l 1
 293 801 l 1
EndSplineSet
EndChar
StartChar: braceright
Encoding: 125 125 2147
Width: 328
Flags: MW
HStem: -120 17<32 60.5 32 62.5> 339 20<254 276> 801 17<162 189.5>
VStem: 190 18<431 441> 230.04 17.96 252 25
LayerCount: 2
Back
Fore
SplineSet
32 -120 m 1
 32 -103 l 1
 89 -103 117 -74 126 -13 c 2
 164 258 l 2
 172 319 200 342 252 349 c 1
 204 356 181 379 190 441 c 2xf4
 228 712 l 2
 237 774 218 801 161 801 c 1
 162 818 l 1
 220 818 258 787 248 715 c 2xe8
 208 431 l 2
 201 379 230 359 278 359 c 1
 276 339 l 1
 229 339 193 318 185 265 c 2xf4
 145 -18 l 2
 135 -90 93 -120 32 -120 c 1
EndSplineSet
Substitution2: "'case' Case-Sensitive Forms lookup 29 subtable" braceright.case
Substitution2: "'aalt' Access All Alternates lookup 0 subtable" braceright.case
EndChar

StartChar: asciitilde
Encoding: 126 126 1089
Width: 457
Flags: MW
HStem: 280 22<285.5 325.5> 335 22<149.5 190>
VStem: 77 319<302 334>
LayerCount: 2
Fore
SplineSet
167 357 m 0
 223 357 262 302 309 302 c 0
 342 302 360 320 382 344 c 1
 396 334 l 1
 370 302 346 280 309 280 c 0
 256 280 213 335 167 335 c 0
 132 335 113 316 91 292 c 1
 77 302 l 1
 103 334 128 357 167 357 c 0
EndSplineSet
Substitution2: "'onum' Oldstyle Figures lookup 22 subtable" asciitilde.osf
Substitution2: "'tnum' Tabular Numbers lookup 21 subtable" asciitilde.tf
AlternateSubs2: "'aalt' Access All Alternates lookup 1 subtable" asciitilde.tf asciitilde.osf
EndChar
StartChar: exclamdown
Encoding: 161 161 2127
Width: 238
Flags: MW
HStem: -192 21G<48 69 48 48> 406 46<140 151>
VStem: 122 47<423 434.5>
LayerCount: 2
Back
Fore
SplineSet
147 452 m 0
 161 452 169 443 169 430 c 0
 169 416 158 406 144 406 c 0
 130 406 122 416 122 427 c 0
 122 442 133 452 147 452 c 0
132 252 m 1
 69 -192 l 1
 48 -192 l 1
 111 252 l 1
 132 252 l 1
EndSplineSet
Substitution2: "'case' Case-Sensitive Forms lookup 29 subtable" exclamdown.case
Substitution2: "'aalt' Access All Alternates lookup 0 subtable" exclamdown.case
EndChar

StartChar: sterling
Encoding: 163 163 1067
Width: 501
Flags: MW
HStem: 0 21<28 28 63 394 26 28> 343 21<97 158 95 160 182 395 97 179> 652 21<311 385>
VStem: 26 466
LayerCount: 2
Fore
SplineSet
356 673 m 0
 419 673 460 649 492 605 c 1
 475 593 l 1
 447 632 414 652 356 652 c 0
 266 652 214 588 202 504 c 2
 182 364 l 1
 398 364 l 1
 395 343 l 1
 179 343 l 1
 151 136 l 2
 141 69 115 44 63 21 c 1
 401 21 l 1
 394 0 l 1
 26 0 l 1
 28 21 l 1
 91 48 120 73 129 136 c 2
 158 343 l 1
 95 343 l 1
 97 364 l 1
 160 364 l 1
 180 506 l 2
 193 599 253 673 356 673 c 0
EndSplineSet
Substitution2: "'onum' Oldstyle Figures lookup 22 subtable" sterling.osf
Substitution2: "'tnum' Tabular Numbers lookup 21 subtable" sterling.tf
AlternateSubs2: "'aalt' Access All Alternates lookup 1 subtable" sterling.tf sterling.osf
EndChar
StartChar: yen
Encoding: 165 165 2214
Width: 485
GlyphClass: 2
Flags: MW
HStem: 0 21G<196 219 196 196> 168 22<91 220 88 223 245 375 91 242> 308 20<110 233 110 239 108 233 275 395>
VStem: 77 443<661 661>
LayerCount: 2
Back
Fore
SplineSet
520 661 m 1
 275 328 l 1
 397 328 l 1
 395 308 l 1
 262 308 l 1
 245 190 l 1
 378 190 l 1
 375 168 l 1
 242 168 l 1
 219 0 l 1
 196 0 l 1
 220 168 l 1
 88 168 l 1
 91 190 l 1
 223 190 l 1
 239 308 l 1
 108 308 l 1
 110 328 l 1
 233 328 l 1
 77 661 l 1
 104 661 l 1
 253 330 l 1
 494 661 l 1
 520 661 l 1
EndSplineSet
Substitution2: "'onum' Oldstyle Figures lookup 26 subtable" yen.osf
Substitution2: "'tnum' Tabular Numbers lookup 25 subtable" yen.tf
AlternateSubs2: "'aalt' Access All Alternates lookup 1 subtable" yen.tf yen.osf
EndChar
StartChar: brokenbar
Encoding: 166 166 2377
Width: 413
GlyphClass: 2
Flags: MW
HStem: -98 899<146 294 146 294>
VStem: 146 148
LayerCount: 2
Back
Fore
SplineSet
294 801 m 1
 243 443 l 1
 221 443 l 1
 272 801 l 1
 294 801 l 1
218 262 m 1
 168 -98 l 1
 146 -98 l 1
 196 262 l 1
 218 262 l 1
EndSplineSet
EndChar
StartChar: dieresis
Encoding: 168 168 2522
Width: 266
Flags: MW
HStem: 673 39<106.5 115.5 272 281.5>
VStem: 91 40 256 40
LayerCount: 2
Back
Fore
SplineSet
112 712 m 0
 125 712 132 702 131 691 c 0
 129 681 121 673 110 673 c 0
 97 673 89 682 91 694 c 0
 92 704 101 712 112 712 c 0
278 712 m 0
 290 712 297 702 296 691 c 0
 295 681 287 673 276 673 c 0
 262 673 255 682 256 694 c 0
 258 704 266 712 278 712 c 0
EndSplineSet
Substitution2: "'case' Case-Sensitive Forms lookup 29 subtable" dieresis.case
Substitution2: "'smcp' Lowercase to Small Capitals lookup 28 subtable" dieresis.sc
Substitution2: "'c2sc' Capitals to Small Capitals lookup 27 subtable" dieresis.sc
AlternateSubs2: "'aalt' Access All Alternates lookup 1 subtable" dieresis.sc dieresis.case
EndChar

StartChar: copyright
Encoding: 169 169 1223
Width: 810
Flags: MW
HStem: 148 21<331.5 479.5 331.5 485> 265 20<375 426.5 375 427> 586 20<383 423> 701 21<331.5 479.5>
VStem: 127 22<355.5 513 355.5 518.5> 272 23<386.5 493.5 386.5 496.5> 661 22<357 514.5>
LayerCount: 2
Fore
SplineSet
405 722 m 0
 565 722 683 604 683 435 c 0
 683 268 565 148 405 148 c 0
 245 148 127 266 127 435 c 0
 127 602 245 722 405 722 c 0
406 701 m 0
 257 701 149 591 149 435 c 0
 149 276 257 169 406 169 c 0
 553 169 661 279 661 435 c 0
 661 594 553 701 406 701 c 0
406 606 m 0
 443 606 468 595 491 577 c 1
 480 562 l 1
 460 577 440 586 406 586 c 0
 360 586 295 550 295 437 c 0
 295 336 343 285 407 285 c 0
 446 285 470 298 490 314 c 1
 500 297 l 1
 479 280 448 265 406 265 c 0
 328 265 272 332 272 437 c 0
 272 556 346 606 406 606 c 0
EndSplineSet
EndChar

StartChar: ordfeminine
Encoding: 170 170 415
Width: 500
GlyphClass: 2
Flags: MW
HStem: 0 21<54 381 51 384> 277 20<194 251.5> 496 21<291 294 294 382> 661 20<283.5 336>
VStem: 110 23<355 410.5 355 422.5> 364 19 393 22<586.5 612.5>
LayerCount: 2
Fore
SplineSet
302 681 m 0
 381 681 415 650 415 591 c 0
 415 582 414 573 413 563 c 2xfe
 386 367 l 2
 381 332 378 305 411 292 c 1
 405 277 l 1
 371 287 362 307 364 348 c 1xfc
 327 301 281 277 222 277 c 0
 150 277 110 320 110 379 c 0
 110 466 185 517 291 517 c 2
 385 517 l 1
 391 562 l 2
 392 572 393 580 393 589 c 0
 393 636 370 661 302 661 c 0
 265 661 227 652 184 637 c 1
 179 656 l 1
 223 672 261 681 302 681 c 0
294 496 m 2
 178 496 133 442 133 379 c 0
 133 331 166 297 222 297 c 0
 286 297 331 328 366 378 c 1
 382 496 l 1
 294 496 l 2
54 21 m 1xfc
 384 21 l 1
 381 0 l 1
 51 0 l 1
 54 21 l 1xfc
EndSplineSet
EndChar
StartChar: guillemotleft
Encoding: 171 171 2177
Width: 533
Flags: MW
HStem: 74 429<264 323 323 354>
VStem: 142.5 25.5 232.5 25.5
LayerCount: 2
Back
Fore
SplineSet
323 503 m 1
 337 494 l 1
 168 288 l 1
 280 83 l 1
 264 74 l 1
 142 281 l 1
 143 295 l 1
 323 503 l 1
413 503 m 1
 427 494 l 1
 258 288 l 1
 370 83 l 1
 354 74 l 1
 232 281 l 1
 233 295 l 1
 413 503 l 1
EndSplineSet
Substitution2: "'case' Case-Sensitive Forms lookup 29 subtable" guillemotleft.case
Substitution2: "'aalt' Access All Alternates lookup 0 subtable" guillemotleft.case
EndChar
StartChar: logicalnot
Encoding: 172 172 2263
Width: 496
GlyphClass: 2
Flags: MW
HStem: 309 21<88 401 85 427>
VStem: 85 342<309 330>
LayerCount: 2
Back
Fore
SplineSet
427 330 m 1
 409 198 l 1
 386 198 l 1
 401 309 l 1
 85 309 l 1
 88 330 l 1
 427 330 l 1
EndSplineSet
Substitution2: "'onum' Oldstyle Figures lookup 26 subtable" logicalnot.osf
Substitution2: "'tnum' Tabular Numbers lookup 25 subtable" logicalnot.tf
AlternateSubs2: "'aalt' Access All Alternates lookup 1 subtable" logicalnot.tf logicalnot.osf
EndChar

StartChar: softhyphen
Encoding: 173 173 1028
Width: 399
Flags: MW
HStem: 302 21<87 327 84 330>
VStem: 84 246<302 323>
LayerCount: 2
Fore
SplineSet
87 323 m 1
 330 323 l 1
 327 302 l 1
 84 302 l 1
 87 323 l 1
EndSplineSet
Substitution2: "'case' Case-Sensitive Forms lookup 25 subtable" softhyphen.case
Substitution2: "'aalt' Access All Alternates lookup 0 subtable" softhyphen.case
EndChar
StartChar: uni00AD
Encoding: 173 173 2169
Width: 399
Flags: MW
HStem: 302 21<84 330 87 327>
VStem: 84 246<302 323>
LayerCount: 2
Back
Fore
SplineSet
84 302 m 1
 87 323 l 1
 330 323 l 1
 327 302 l 1
 84 302 l 1
EndSplineSet
Substitution2: "'case' Case-Sensitive Forms lookup 29 subtable" uni00AD.case
Substitution2: "'aalt' Access All Alternates lookup 0 subtable" uni00AD.case
EndChar
StartChar: macron
Encoding: 175 175 2526
Width: 267
Flags: MW
HStem: 685 21<93 296 89 300>
VStem: 89 211<685 706>
LayerCount: 2
Back
Fore
SplineSet
296 685 m 1
 89 685 l 1
 93 706 l 1
 300 706 l 1
 296 685 l 1
EndSplineSet
Substitution2: "'case' Case-Sensitive Forms lookup 29 subtable" macron.case
Substitution2: "'smcp' Lowercase to Small Capitals lookup 28 subtable" macron.sc
Substitution2: "'c2sc' Capitals to Small Capitals lookup 27 subtable" macron.sc
AlternateSubs2: "'aalt' Access All Alternates lookup 1 subtable" macron.sc macron.case
EndChar
StartChar: degree
Encoding: 176 176 2385
Width: 520
GlyphClass: 2
Flags: MW
HStem: 411 21<210.5 278 210.5 281> 671 20<246.5 314>
VStem: 374 22
LayerCount: 2
Back
Fore
SplineSet
242 411 m 0
 170 411 113 465 125 553 c 0
 137 636 207 691 279 691 c 0
 358 691 408 635 396 549 c 0
 385 467 320 411 242 411 c 0
242 432 m 0
 314 432 364 482 374 552 c 0
 383 622 349 671 279 671 c 0
 214 671 158 621 147 550 c 0
 138 481 179 432 242 432 c 0
EndSplineSet
Substitution2: "'onum' Oldstyle Figures lookup 26 subtable" degree.osf
Substitution2: "'tnum' Tabular Numbers lookup 25 subtable" degree.tf
AlternateSubs2: "'aalt' Access All Alternates lookup 1 subtable" degree.tf degree.osf
EndChar
StartChar: plusminus
Encoding: 177 177 2275
Width: 486
GlyphClass: 2
Flags: MW
HStem: 0 21<42 374 45 371> 320 21<90 241 87 244 267 416 90 263>
VStem: 42 378<0 341>
LayerCount: 2
Back
Fore
SplineSet
288 496 m 1
 267 341 l 1
 420 341 l 1
 416 320 l 1
 263 320 l 1
 241 165 l 1
 219 165 l 1
 241 320 l 1
 87 320 l 1
 90 341 l 1
 244 341 l 1
 266 496 l 1
 288 496 l 1
42 0 m 1
 45 21 l 1
 374 21 l 1
 371 0 l 1
 42 0 l 1
EndSplineSet
Substitution2: "'onum' Oldstyle Figures lookup 26 subtable" plusminus.osf
Substitution2: "'tnum' Tabular Numbers lookup 25 subtable" plusminus.tf
AlternateSubs2: "'aalt' Access All Alternates lookup 1 subtable" plusminus.tf plusminus.osf
EndChar
StartChar: uni00B2
Encoding: 178 178 2110
Width: 400
Flags: MW
HStem: 322 20.5 663 20G<102 102> 718 20<204.5 254.5>
VStem: 303 23<629 629>
LayerCount: 2
Back
Fore
SplineSet
227 738 m 0
 299 738 334 688 326 628 c 0
 314 543 261 500 87 342 c 1
 296 343 l 1
 289 322 l 1
 56 322 l 1
 58 343 l 1
 247 514 293 553 303 629 c 0
 310 681 282 718 227 718 c 0
 182 718 147 698 119 669 c 1
 102 683 l 1
 142 722 180 738 227 738 c 0
EndSplineSet
EndChar
StartChar: uni00B3
Encoding: 179 179 2111
Width: 400
Flags: MW
HStem: 315 20<146.5 202.5 146.5 205.5> 530 19<179 199 199 200 174 199> 720 20<211.5 258>
VStem: 291 21 309 22
LayerCount: 2
Back
Fore
SplineSet
231 740 m 0xe8
 299 740 339 698 331 637 c 0xe8
 322 580 280 547 229 541 c 1
 282 539 322 503 312 434 c 0
 303 364 245 315 166 315 c 0
 116 315 82 334 54 368 c 1
 70 379 l 1
 97 346 127 335 166 335 c 0
 239 335 283 379 291 437 c 0
 300 502 263 530 200 530 c 2xf0
 174 530 l 1
 179 549 l 1
 199 549 l 2
 245 549 300 576 309 639 c 0
 316 690 285 720 231 720 c 0
 192 720 161 709 123 681 c 1
 111 695 l 1
 148 725 182 740 231 740 c 0xe8
EndSplineSet
EndChar
StartChar: acute
Encoding: 180 180 2517
Width: 247
Flags: MW
HStem: 654 107
VStem: 88 195<670 738>
LayerCount: 2
Back
Fore
SplineSet
276 761 m 1
 283 738 l 1
 93 654 l 1
 88 670 l 1
 276 761 l 1
EndSplineSet
Substitution2: "'case' Case-Sensitive Forms lookup 29 subtable" acute.case
Substitution2: "'smcp' Lowercase to Small Capitals lookup 28 subtable" acute.sc
Substitution2: "'c2sc' Capitals to Small Capitals lookup 27 subtable" acute.sc
Substitution2: "'locl' Localized Forms in Latin lookup 7 subtable" acute.loclPLK
AlternateSubs2: "'aalt' Access All Alternates lookup 1 subtable" acute.loclPLK acute.sc acute.case
EndChar

StartChar: uni00B5
Encoding: 181 181 1106
Width: 583
Flags: MW
HStem: -194 21G<54 54> -10 21<190 262 190 265> -3 21G<448 448> 499 20G<155 177 177 177 471 493 493 493>
VStem: 416.88 20.87
LayerCount: 2
Fore
SplineSet
444 169 m 2xd8
 433 96 437 47 448 -3 c 1
 428 -4 l 1xb8
 418 39 414 71 419 123 c 1
 370 48 308 -10 222 -10 c 0
 152 -10 119 21 109 68 c 1
 105 20 101 -17 94 -65 c 2
 76 -192 l 1
 54 -194 l 1
 155 519 l 1
 177 519 l 1
 124 141 l 1
 109 44 158 11 222 11 c 0
 302 11 368 70 419 154 c 1
 471 519 l 1
 493 519 l 1
 444 169 l 2xd8
EndSplineSet
EndChar

StartChar: paragraph
Encoding: 182 182 1222
Width: 686
Flags: MW
HStem: -196 21G<267 267 431 431> 661 20<323.5 551 323.5 409>
VStem: 146.2 429.8
LayerCount: 2
Fore
SplineSet
576 682 m 1
 454 -192 l 1
 431 -196 l 1
 551 661 l 1
 409 661 l 1
 289 -192 l 1
 267 -196 l 1
 338 306 l 1
 177 310 134 395 149 495 c 1
 165 614 255 681 392 681 c 2
 576 682 l 1
EndSplineSet
EndChar
StartChar: cedilla
Encoding: 184 184 2520
Width: 212
Flags: MW
HStem: -212 20<20.5 54.5 20.5 59.5> -194 21G<-34 -34> -91 17
VStem: 103 24<-154.5 -138>
LayerCount: 2
Back
Fore
SplineSet
58 9 m 1x70
 43 -74 l 1
 99 -78 127 -96 127 -137 c 0
 127 -183 86 -212 33 -212 c 0
 2 -212 -18 -204 -34 -194 c 1
 -23 -178 l 1
 -10 -186 8 -192 33 -192 c 0xb0
 76 -192 103 -171 103 -138 c 0
 104 -105 81 -92 21 -91 c 1
 41 9 l 1
 58 9 l 1x70
EndSplineSet
Substitution2: "'case' Case-Sensitive Forms lookup 29 subtable" cedilla.case
Substitution2: "'smcp' Lowercase to Small Capitals lookup 28 subtable" cedilla.sc
Substitution2: "'c2sc' Capitals to Small Capitals lookup 27 subtable" cedilla.sc
AlternateSubs2: "'aalt' Access All Alternates lookup 1 subtable" cedilla.sc cedilla.case
EndChar

StartChar: onesuperior
Encoding: 185 185 971
Width: 400
Flags: MW
HStem: 707 25<254 279> 712 20G<262 279 279 279>
VStem: 126 153<658 732>
LayerCount: 2
Fore
SplineSet
221 322 m 1x60
 200 322 l 1
 254 707 l 1
 136 642 l 1
 126 658 l 1xa0
 262 732 l 1
 279 732 l 1
 221 322 l 1x60
EndSplineSet
EndChar
StartChar: uni00B9
Encoding: 185 185 2109
Width: 400
Flags: MW
HStem: 707 25<254 279> 712 20G<262 279 279 279>
VStem: 126 153<658 732>
LayerCount: 2
Back
Fore
SplineSet
279 732 m 1x60
 221 322 l 1
 200 322 l 1
 254 707 l 1
 136 642 l 1
 126 658 l 1xa0
 262 732 l 1
 279 732 l 1x60
EndSplineSet
EndChar

StartChar: ordmasculine
Encoding: 186 186 416
Width: 500
GlyphClass: 2
Flags: MW
HStem: 0 21<53 379 50 382> 277 20<213.5 320.5 213.5 326> 662 19<239.5 346>
VStem: 108 23<390 479 390 484.5> 428 23<483.5 571.5>
LayerCount: 2
Fore
SplineSet
306 681 m 0
 397 681 451 627 451 526 c 0
 451 425 401 277 251 277 c 0
 160 277 108 335 108 434 c 0
 108 535 159 681 306 681 c 0
307 662 m 0
 172 662 131 524 131 434 c 0
 131 346 175 297 252 297 c 0
 389 297 428 439 428 528 c 0
 428 615 385 662 307 662 c 0
53 21 m 1
 382 21 l 1
 379 0 l 1
 50 0 l 1
 53 21 l 1
EndSplineSet
EndChar
StartChar: guillemotright
Encoding: 187 187 2178
Width: 524
Flags: MW
HStem: 74 429<78 138 138 258>
VStem: 64 376<83 295>
LayerCount: 2
Back
Fore
SplineSet
138 503 m 1
 260 295 l 1
 258 281 l 1
 78 74 l 1
 64 83 l 1
 233 288 l 1
 122 494 l 1
 138 503 l 1
318 503 m 1
 440 295 l 1
 438 281 l 1
 258 74 l 1
 244 83 l 1
 413 288 l 1
 302 494 l 1
 318 503 l 1
EndSplineSet
Substitution2: "'case' Case-Sensitive Forms lookup 29 subtable" guillemotright.case
Substitution2: "'aalt' Access All Alternates lookup 0 subtable" guillemotright.case
EndChar
StartChar: onequarter
Encoding: 188 188 2066
Width: 892
Flags: MW
HStem: 0 132<711 730 561 732 711 711> 112 20<561 727 751 807 561 748> 656 25<239 264> 661 20G<247 264 264 264> 713 20G<725 725> 722 20G<708 708>
VStem: 111 699<132 607>
LayerCount: 2
Back
Fore
SplineSet
708 742 m 1x56
 725 733 l 1x5a
 206 -66 l 1
 189 -57 l 1
 708 742 l 1x56
206 271 m 1
 185 271 l 1
 239 656 l 1
 121 591 l 1
 111 607 l 1x66
 247 681 l 1
 264 681 l 1
 206 271 l 1
810 132 m 1
 807 112 l 1
 748 112 l 1x56
 732 0 l 1
 711 0 l 1x96
 727 112 l 1
 535 112 l 1
 537 130 l 1
 710 418 l 1
 728 411 l 1
 561 132 l 1
 730 132 l 1
 750 259 l 1
 769 259 l 1
 751 132 l 1
 810 132 l 1
EndSplineSet
EndChar
StartChar: onehalf
Encoding: 189 189 2063
Width: 892
Flags: MW
HStem: 0 20.5 396 20<687.5 737.5> 656 25<239 264> 661 20G<247 264 264 264> 713 20G<725 725> 722 20G<708 708>
VStem: 786 23<307 307>
LayerCount: 2
Back
Fore
SplineSet
708 742 m 1xd6
 725 733 l 1xda
 206 -66 l 1
 189 -57 l 1
 708 742 l 1xd6
264 681 m 1
 206 271 l 1
 185 271 l 1
 239 656 l 1
 121 591 l 1
 111 607 l 1xe6
 247 681 l 1
 264 681 l 1
710 416 m 0
 782 416 817 366 809 306 c 0
 797 221 744 178 570 20 c 1
 779 21 l 1
 772 0 l 1
 539 0 l 1
 541 21 l 1
 730 192 776 231 786 307 c 0
 793 359 765 396 710 396 c 0
 665 396 630 376 602 347 c 1
 585 361 l 1
 625 400 663 416 710 416 c 0
EndSplineSet
EndChar
StartChar: threequarters
Encoding: 190 190 2067
Width: 892
Flags: MW
HStem: 0 132<711 730 561 732 711 711> 112 20<561 727 751 807 561 748> 264 20<139.5 195.5 139.5 198.5> 479 19<172 192 192 193 167 192> 669 20<204.5 251> 713 20G<725 725> 722 20G<708 708>
VStem: 284 21 302 22
LayerCount: 2
Back
Fore
SplineSet
708 742 m 1x7b
 725 733 l 1x7d
 206 -66 l 1
 189 -57 l 1
 708 742 l 1x7b
305 383 m 0
 296 313 238 264 159 264 c 0
 109 264 75 283 47 317 c 1
 63 328 l 1
 90 295 120 284 159 284 c 0
 232 284 276 328 284 386 c 0
 293 451 256 479 193 479 c 2x7b
 167 479 l 1
 172 498 l 1
 192 498 l 2
 238 498 293 525 302 588 c 0
 309 639 278 669 224 669 c 0
 185 669 154 658 116 630 c 1
 104 644 l 1
 141 674 175 689 224 689 c 0
 292 689 332 647 324 586 c 0x7a80
 315 529 273 496 222 490 c 1
 275 488 315 452 305 383 c 0
810 132 m 1x7b
 807 112 l 1
 748 112 l 1x7b
 732 0 l 1
 711 0 l 1xbb
 727 112 l 1
 535 112 l 1
 537 130 l 1
 710 418 l 1
 728 411 l 1
 561 132 l 1
 730 132 l 1
 750 259 l 1
 769 259 l 1
 751 132 l 1
 810 132 l 1x7b
EndSplineSet
EndChar
StartChar: questiondown
Encoding: 191 191 2131
Width: 440
Flags: MW
HStem: -198 20<109.5 180 109.5 181.5> 457 46<246 257>
VStem: 11 22<-108.5 -1.5 -108.5 4.5> 228 47<474.5 486> 236 22<223 232.5 223 233.5>
LayerCount: 2
Back
Fore
SplineSet
250 457 m 0xf0
 236 457 228 466 228 479 c 0
 228 493 239 503 253 503 c 0
 267 503 275 494 275 482 c 0
 275 467 264 457 250 457 c 0xf0
145 -198 m 0
 58 -198 11 -146 11 -82 c 0
 11 91 237 86 236 223 c 0
 236 244 232 262 228 276 c 1
 248 281 l 1
 254 262 258 242 258 223 c 0xa8
 259 74 33 78 33 -81 c 0
 33 -136 74 -178 145 -178 c 0
 215 -178 261 -152 316 -100 c 1
 331 -114 l 1
 272 -171 218 -198 145 -198 c 0
EndSplineSet
Substitution2: "'case' Case-Sensitive Forms lookup 29 subtable" questiondown.case
Substitution2: "'aalt' Access All Alternates lookup 0 subtable" questiondown.case
EndChar
StartChar: Agrave
Encoding: 192 192 23
Width: 557
GlyphClass: 2
Flags: MW
HStem: 0 21G<-9 15 -9 -9 469 493 469 469> 203 21<123 424 123 428 113 424> 662 19<335 335>
VStem: -9 502<0 0>
AnchorPoint: "Anchor-14" 0 0 basechar 0
AnchorPoint: "Anchor-13" 0 0 basechar 0
AnchorPoint: "Anchor-12" 358 861 basechar 0
AnchorPoint: "Anchor-11" 503 0 basechar 0
AnchorPoint: "Anchor-10" 242 0 basechar 0
LayerCount: 2
Back
Fore
SplineSet
444 779 m 1
 435 764 l 1
 267 838 l 1
 282 861 l 1
 444 779 l 1
469 0 m 1
 428 203 l 1
 113 203 l 1
 15 0 l 1
 -9 0 l 1
 324 681 l 1
 351 681 l 1
 493 0 l 1
 469 0 l 1
123 224 m 1
 424 224 l 1
 335 662 l 1
 123 224 l 1
EndSplineSet
Substitution2: "'c2sc' Capitals to Small Capitals lookup 27 subtable" agrave.sc
Substitution2: "'aalt' Access All Alternates lookup 0 subtable" agrave.sc
Position2: "'cpsp' Capital Spacing lookup 0 subtable" dx=5 dy=0 dh=10 dv=0
EndChar
StartChar: Acircumflex
Encoding: 194 194 11
Width: 557
GlyphClass: 2
Flags: MW
HStem: 0 21G<-9 15 -9 -9 469 493 469 469> 203 21<123 424 123 428 113 424> 662 19<335 335> 845 24<356 356>
VStem: -9 502<0 0>
AnchorPoint: "Anchor-14" 0 0 basechar 0
AnchorPoint: "Anchor-13" 425 721 basechar 0
AnchorPoint: "Anchor-12" 359 869 basechar 0
AnchorPoint: "Anchor-11" 503 0 basechar 0
AnchorPoint: "Anchor-10" 242 0 basechar 0
LayerCount: 2
Back
Fore
SplineSet
356 845 m 1
 231 766 l 1
 220 780 l 1
 353 869 l 1
 365 869 l 1
 472 780 l 1
 460 766 l 1
 356 845 l 1
469 0 m 1
 428 203 l 1
 113 203 l 1
 15 0 l 1
 -9 0 l 1
 324 681 l 1
 351 681 l 1
 493 0 l 1
 469 0 l 1
123 224 m 1
 424 224 l 1
 335 662 l 1
 123 224 l 1
EndSplineSet
Substitution2: "'c2sc' Capitals to Small Capitals lookup 27 subtable" acircumflex.sc
Substitution2: "'aalt' Access All Alternates lookup 0 subtable" acircumflex.sc
Position2: "'cpsp' Capital Spacing lookup 0 subtable" dx=5 dy=0 dh=10 dv=0
EndChar
StartChar: Atilde
Encoding: 195 195 32
Width: 557
GlyphClass: 2
Flags: MW
HStem: 0 21G<-9 15 -9 -9 469 493 469 469> 203 21<123 424 123 428 113 424> 662 19<335 335> 805 18<394.5 427.5 394.5 430.5> 848 19<304 304>
VStem: -9 503
AnchorPoint: "Anchor-14" 0 0 basechar 0
AnchorPoint: "Anchor-13" 0 0 basechar 0
AnchorPoint: "Anchor-12" 362 868 basechar 0
AnchorPoint: "Anchor-11" 503 0 basechar 0
AnchorPoint: "Anchor-10" 242 0 basechar 0
LayerCount: 2
Back
Fore
SplineSet
304 848 m 0
 275 847 263 837 238 812 c 1
 226 821 l 1
 251 851 274 867 304 867 c 0xfc
 343 867 373 823 416 823 c 0
 439 823 456 835 481 866 c 1
 494 857 l 1
 467 819 443 805 418 805 c 0
 365 805 341 849 304 848 c 0
324 681 m 1
 351 681 l 1
 493 0 l 1
 469 0 l 1
 428 203 l 1
 113 203 l 1
 15 0 l 1
 -9 0 l 1
 324 681 l 1
123 224 m 1
 424 224 l 1
 335 662 l 1
 123 224 l 1
EndSplineSet
Substitution2: "'c2sc' Capitals to Small Capitals lookup 27 subtable" atilde.sc
Substitution2: "'aalt' Access All Alternates lookup 0 subtable" atilde.sc
Position2: "'cpsp' Capital Spacing lookup 0 subtable" dx=5 dy=0 dh=10 dv=0
EndChar
StartChar: Adieresis
Encoding: 196 196 18
Width: 557
GlyphClass: 2
Flags: MW
HStem: 0 21G<-9 15 -9 -9 469 493 469 469> 203 21<123 424 123 428 113 424> 662 19<335 335> 799 39<270.5 279.5 436 445.5>
VStem: 255 40 420 40
AnchorPoint: "Anchor-14" 0 0 basechar 0
AnchorPoint: "Anchor-13" 0 0 basechar 0
AnchorPoint: "Anchor-12" 360 838 basechar 0
AnchorPoint: "Anchor-11" 503 0 basechar 0
AnchorPoint: "Anchor-10" 242 0 basechar 0
LayerCount: 2
Back
Fore
SplineSet
274 799 m 0
 261 799 253 808 255 820 c 0
 256 830 265 838 276 838 c 0
 289 838 296 828 295 817 c 0
 293 807 285 799 274 799 c 0
440 799 m 0
 426 799 419 808 420 820 c 0
 422 830 430 838 442 838 c 0
 454 838 461 828 460 817 c 0
 459 807 451 799 440 799 c 0
469 0 m 1
 428 203 l 1
 113 203 l 1
 15 0 l 1
 -9 0 l 1
 324 681 l 1
 351 681 l 1
 493 0 l 1
 469 0 l 1
123 224 m 1
 424 224 l 1
 335 662 l 1
 123 224 l 1
EndSplineSet
Substitution2: "'c2sc' Capitals to Small Capitals lookup 27 subtable" adieresis.sc
Substitution2: "'aalt' Access All Alternates lookup 0 subtable" adieresis.sc
Position2: "'cpsp' Capital Spacing lookup 0 subtable" dx=5 dy=0 dh=10 dv=0
EndChar

StartChar: Aring
Encoding: 197 197 9
Width: 557
GlyphClass: 2
Flags: MW
HStem: 0 21G<-10 15 -10 -10 469 469 469 493> 203 21<123 424 123 428 113 424> 662 19<335 335> 770 18<334.5 371.5 334.5 375.5> 909 18<351.5 388>
VStem: 282 21 419 22
AnchorPoint: "Anchor-11" 0 0 basechar 0
AnchorPoint: "Anchor-10" 198 519 basechar 0
AnchorPoint: "Anchor-9" 338 681 basechar 0
AnchorPoint: "Anchor-8" 503 0 basechar 0
LayerCount: 2
Fore
SplineSet
352 770 m 0
 303 770 275 805 282 850 c 1
 288 896 324 927 371 927 c 0
 420 927 447 893 441 847 c 0
 434 801 399 770 352 770 c 0
303 847 m 0
 298 813 316 788 353 788 c 0
 390 788 413 812 419 850 c 0
 425 886 407 909 369 909 c 0
 334 909 309 885 303 847 c 0
428 203 m 1
 113 203 l 1
 15 0 l 1
 -10 0 l 1
 324 681 l 1
 351 681 l 1
 493 0 l 1
 469 0 l 1
 428 203 l 1
424 224 m 1
 335 662 l 1
 123 224 l 1
 424 224 l 1
EndSplineSet
Substitution2: "'c2sc' Capitals to Small Capitals lookup 23 subtable" aring.sc
Substitution2: "'aalt' Access All Alternates lookup 0 subtable" aring.sc
Position2: "'cpsp' Capital Spacing lookup 0 subtable" dx=5 dy=0 dh=10 dv=0
EndChar
StartChar: AE
Encoding: 198 198 33
Width: 755
GlyphClass: 2
Flags: MW
HStem: 0 21<448 675 428 679> 196 21<114 401 114 404 103 401> 349 21<407 664 407 407> 660 21<369 712 369 369>
VStem: -24 742<0 681>
AnchorPoint: "Anchor-14" 0 0 basechar 0
AnchorPoint: "Anchor-13" 0 0 basechar 0
AnchorPoint: "Anchor-12" 505 681 basechar 0
AnchorPoint: "Anchor-11" 0 0 basechar 0
AnchorPoint: "Anchor-10" 0 0 basechar 0
LayerCount: 2
Back
Fore
SplineSet
712 660 m 1
 369 660 l 1
 405 370 l 1
 666 370 l 1
 664 349 l 1
 407 349 l 1
 448 21 l 1
 679 21 l 1
 675 0 l 1
 428 0 l 1
 404 196 l 1
 103 196 l 1
 0 0 l 1
 -24 0 l 1
 334 681 l 1
 718 681 l 1
 712 660 l 1
401 217 m 1
 348 663 l 1
 114 217 l 1
 401 217 l 1
EndSplineSet
Substitution2: "'c2sc' Capitals to Small Capitals lookup 27 subtable" ae.sc
Substitution2: "'aalt' Access All Alternates lookup 0 subtable" ae.sc
Position2: "'cpsp' Capital Spacing lookup 0 subtable" dx=5 dy=0 dh=10 dv=0
EndChar

StartChar: Ccedilla
Encoding: 199 199 17
Width: 538
GlyphClass: 2
Flags: MW
HStem: -212 20<275.5 308 275.5 313.5> -194 21G<221 221> -90 16 -10 22<292 292 309 309> 670 21<292.5 436>
VStem: 83 23<176.5 341.5 176.5 347> 358 24<-153.5 -137>
AnchorPoint: "Anchor-11" 304 0 basechar 0
AnchorPoint: "Anchor-10" 0 0 basechar 0
AnchorPoint: "Anchor-9" 401 681 basechar 0
AnchorPoint: "Anchor-8" 0 0 basechar 0
LayerCount: 2
Fore
SplineSet
404 670 m 0x7e
 181 670 106 425 106 258 c 0
 106 95 188 12 306 12 c 0
 383 12 429 39 471 71 c 1
 484 53 l 1
 440 19 385 -9 309 -10 c 1
 298 -74 l 1
 354 -78 382 -95 382 -135 c 0
 382 -179 339 -212 288 -212 c 0
 257 -212 237 -204 221 -194 c 1
 232 -177 l 1
 245 -186 263 -192 288 -192 c 0xbe
 328 -192 358 -170 358 -137 c 1
 359 -105 336 -91 276 -90 c 1
 292 -10 l 1
 166 -4 83 89 83 257 c 0
 83 437 166 691 403 691 c 0
 477 691 519 668 556 633 c 1
 542 617 l 1
 503 652 468 670 404 670 c 0x7e
EndSplineSet
Substitution2: "'c2sc' Capitals to Small Capitals lookup 23 subtable" ccedilla.sc
Substitution2: "'aalt' Access All Alternates lookup 0 subtable" ccedilla.sc
Position2: "'cpsp' Capital Spacing lookup 0 subtable" dx=5 dy=0 dh=10 dv=0
EndChar
StartChar: Egrave
Encoding: 200 200 80
Width: 494
GlyphClass: 2
Flags: MW
HStem: 0 21<112 414> 349 21<161 413 158 416> 660 21<202 497 202 202>
VStem: 86 417
AnchorPoint: "Anchor-14" 0 0 basechar 0
AnchorPoint: "Anchor-13" 0 0 basechar 0
AnchorPoint: "Anchor-12" 367 861 basechar 0
AnchorPoint: "Anchor-11" 398 0 basechar 0
AnchorPoint: "Anchor-10" 247 0 basechar 0
LayerCount: 2
Back
Fore
SplineSet
291 861 m 1
 453 779 l 1
 444 764 l 1
 276 838 l 1
 291 861 l 1
503 681 m 1
 497 660 l 1
 202 660 l 1
 161 370 l 1
 416 370 l 1
 413 349 l 1
 158 349 l 1
 112 21 l 1
 418 21 l 1
 414 0 l 1
 86 0 l 1
 182 681 l 1
 503 681 l 1
EndSplineSet
Substitution2: "'c2sc' Capitals to Small Capitals lookup 27 subtable" egrave.sc
Substitution2: "'aalt' Access All Alternates lookup 0 subtable" egrave.sc
Position2: "'cpsp' Capital Spacing lookup 0 subtable" dx=5 dy=0 dh=10 dv=0
EndChar
StartChar: Eacute
Encoding: 201 201 66
Width: 494
GlyphClass: 2
Flags: MW
HStem: 0 21<112 414> 349 21<161 413 158 416> 660 21<202 497 202 202>
VStem: 86 417
AnchorPoint: "Anchor-14" 0 0 basechar 0
AnchorPoint: "Anchor-13" 0 0 basechar 0
AnchorPoint: "Anchor-12" 367 861 basechar 0
AnchorPoint: "Anchor-11" 398 0 basechar 0
AnchorPoint: "Anchor-10" 247 0 basechar 0
LayerCount: 2
Back
Fore
SplineSet
453 861 m 1
 462 838 l 1
 272 764 l 1
 268 779 l 1
 453 861 l 1
503 681 m 1
 497 660 l 1
 202 660 l 1
 161 370 l 1
 416 370 l 1
 413 349 l 1
 158 349 l 1
 112 21 l 1
 418 21 l 1
 414 0 l 1
 86 0 l 1
 182 681 l 1
 503 681 l 1
EndSplineSet
Substitution2: "'c2sc' Capitals to Small Capitals lookup 27 subtable" eacute.sc
Substitution2: "'aalt' Access All Alternates lookup 0 subtable" eacute.sc
Position2: "'cpsp' Capital Spacing lookup 0 subtable" dx=5 dy=0 dh=10 dv=0
EndChar
StartChar: Ecircumflex
Encoding: 202 202 70
Width: 494
GlyphClass: 2
Flags: MW
HStem: 0 21<112 414> 349 21<161 413 158 416> 660 21<202 497 202 202> 845 24<364 364>
VStem: 86 417
AnchorPoint: "Anchor-14" 0 0 basechar 0
AnchorPoint: "Anchor-13" 433 721 basechar 0
AnchorPoint: "Anchor-12" 367 869 basechar 0
AnchorPoint: "Anchor-11" 398 0 basechar 0
AnchorPoint: "Anchor-10" 247 0 basechar 0
LayerCount: 2
Back
Fore
SplineSet
468 766 m 1
 364 845 l 1
 239 766 l 1
 228 780 l 1
 361 869 l 1
 373 869 l 1
 480 780 l 1
 468 766 l 1
503 681 m 1
 497 660 l 1
 202 660 l 1
 161 370 l 1
 416 370 l 1
 413 349 l 1
 158 349 l 1
 112 21 l 1
 418 21 l 1
 414 0 l 1
 86 0 l 1
 182 681 l 1
 503 681 l 1
EndSplineSet
Substitution2: "'c2sc' Capitals to Small Capitals lookup 27 subtable" ecircumflex.sc
Substitution2: "'aalt' Access All Alternates lookup 0 subtable" ecircumflex.sc
Position2: "'cpsp' Capital Spacing lookup 0 subtable" dx=5 dy=0 dh=10 dv=0
EndChar
StartChar: Edieresis
Encoding: 203 203 77
Width: 494
GlyphClass: 2
Flags: MW
HStem: 0 21<112 414> 349 21<161 413 158 416> 660 21<202 497 202 202> 799 39<278.5 287.5 444 453.5>
VStem: 263 40 428 40
AnchorPoint: "Anchor-14" 0 0 basechar 0
AnchorPoint: "Anchor-13" 0 0 basechar 0
AnchorPoint: "Anchor-12" 368 838 basechar 0
AnchorPoint: "Anchor-11" 398 0 basechar 0
AnchorPoint: "Anchor-10" 247 0 basechar 0
LayerCount: 2
Back
Fore
SplineSet
284 838 m 0
 297 838 304 828 303 817 c 0
 301 807 293 799 282 799 c 0
 269 799 261 808 263 820 c 0
 264 830 273 838 284 838 c 0
450 838 m 0
 462 838 469 828 468 817 c 0
 467 807 459 799 448 799 c 0
 434 799 427 808 428 820 c 0
 430 830 438 838 450 838 c 0
503 681 m 1
 497 660 l 1
 202 660 l 1
 161 370 l 1
 416 370 l 1
 413 349 l 1
 158 349 l 1
 112 21 l 1
 418 21 l 1
 414 0 l 1
 86 0 l 1
 182 681 l 1
 503 681 l 1
EndSplineSet
Substitution2: "'c2sc' Capitals to Small Capitals lookup 27 subtable" edieresis.sc
Substitution2: "'aalt' Access All Alternates lookup 0 subtable" edieresis.sc
Position2: "'cpsp' Capital Spacing lookup 0 subtable" dx=5 dy=0 dh=10 dv=0
EndChar
StartChar: Igrave
Encoding: 204 204 126
Width: 268
GlyphClass: 2
Flags: MW
HStem: 0 21G<86 109 86 86> 661 20G<182 205 205 205>
VStem: 86 214
AnchorPoint: "Anchor-14" 0 0 basechar 0
AnchorPoint: "Anchor-13" 0 0 basechar 0
AnchorPoint: "Anchor-12" 214 861 basechar 0
AnchorPoint: "Anchor-11" 111 0 basechar 0
AnchorPoint: "Anchor-10" 98 0 basechar 0
LayerCount: 2
Back
Fore
SplineSet
138 861 m 1
 300 779 l 1
 291 764 l 1
 123 838 l 1
 138 861 l 1
205 681 m 1
 109 0 l 1
 86 0 l 1
 182 681 l 1
 205 681 l 1
EndSplineSet
Substitution2: "'c2sc' Capitals to Small Capitals lookup 27 subtable" igrave.sc
Substitution2: "'aalt' Access All Alternates lookup 0 subtable" igrave.sc
Position2: "'cpsp' Capital Spacing lookup 0 subtable" dx=5 dy=0 dh=10 dv=0
EndChar

StartChar: Iacute
Encoding: 205 205 45
Width: 268
GlyphClass: 2
Flags: MW
HStem: 0 21G<86 109 86 86> 661 20G<182 205 205 205>
VStem: 86 223
AnchorPoint: "Anchor-11" 0 0 basechar 0
AnchorPoint: "Anchor-10" 88 519 basechar 0
AnchorPoint: "Anchor-9" 193 681 basechar 0
AnchorPoint: "Anchor-8" 119 0 basechar 0
LayerCount: 2
Fore
SplineSet
309 838 m 1
 119 764 l 1
 115 779 l 1
 300 861 l 1
 309 838 l 1
109 0 m 1
 86 0 l 1
 182 681 l 1
 205 681 l 1
 109 0 l 1
EndSplineSet
Substitution2: "'c2sc' Capitals to Small Capitals lookup 23 subtable" iacute.sc
Substitution2: "'aalt' Access All Alternates lookup 0 subtable" iacute.sc
Position2: "'cpsp' Capital Spacing lookup 0 subtable" dx=5 dy=0 dh=10 dv=0
EndChar

StartChar: Icircumflex
Encoding: 206 206 47
Width: 268
GlyphClass: 2
Flags: MW
HStem: 0 21G<86 109 86 86> 661 20G<182 205 205 205> 845 24<222 222>
VStem: 86 252<780 780>
AnchorPoint: "Anchor-11" 0 0 basechar 0
AnchorPoint: "Anchor-10" 88 519 basechar 0
AnchorPoint: "Anchor-9" 193 681 basechar 0
AnchorPoint: "Anchor-8" 119 0 basechar 0
LayerCount: 2
Fore
SplineSet
222 845 m 1
 97 766 l 1
 86 780 l 1
 219 869 l 1
 231 869 l 1
 338 780 l 1
 326 766 l 1
 222 845 l 1
109 0 m 1
 86 0 l 1
 182 681 l 1
 205 681 l 1
 109 0 l 1
EndSplineSet
Substitution2: "'c2sc' Capitals to Small Capitals lookup 23 subtable" icircumflex.sc
Substitution2: "'aalt' Access All Alternates lookup 0 subtable" icircumflex.sc
Position2: "'cpsp' Capital Spacing lookup 0 subtable" dx=5 dy=0 dh=10 dv=0
EndChar
StartChar: Idieresis
Encoding: 207 207 122
Width: 268
GlyphClass: 2
Flags: MW
HStem: 0 21G<86 109 86 86> 661 20G<182 205 205 205> 799 39<125.5 134.5 291 300.5>
VStem: 110 40 275 40
AnchorPoint: "Anchor-14" 0 0 basechar 0
AnchorPoint: "Anchor-13" 0 0 basechar 0
AnchorPoint: "Anchor-12" 215 838 basechar 0
AnchorPoint: "Anchor-11" 111 0 basechar 0
AnchorPoint: "Anchor-10" 98 0 basechar 0
LayerCount: 2
Back
Fore
SplineSet
131 838 m 0
 144 838 151 828 150 817 c 0
 148 807 140 799 129 799 c 0
 116 799 108 808 110 820 c 0
 111 830 120 838 131 838 c 0
297 838 m 0
 309 838 316 828 315 817 c 0
 314 807 306 799 295 799 c 0
 281 799 274 808 275 820 c 0
 277 830 285 838 297 838 c 0
205 681 m 1
 109 0 l 1
 86 0 l 1
 182 681 l 1
 205 681 l 1
EndSplineSet
Substitution2: "'c2sc' Capitals to Small Capitals lookup 27 subtable" idieresis.sc
Substitution2: "'aalt' Access All Alternates lookup 0 subtable" idieresis.sc
Position2: "'cpsp' Capital Spacing lookup 0 subtable" dx=5 dy=0 dh=10 dv=0
EndChar

StartChar: Ntilde
Encoding: 209 209 70
Width: 661
GlyphClass: 2
Flags: MW
HStem: 0 25<487 487 487 502 474 487> 658 23<197 197> 805 18<452.5 485.5 452.5 488.5> 848 19<362 362>
VStem: 86 511
AnchorPoint: "Anchor-11" 292 0 basechar 0
AnchorPoint: "Anchor-10" 0 0 basechar 0
AnchorPoint: "Anchor-9" 396 681 basechar 0
AnchorPoint: "Anchor-8" 0 0 basechar 0
LayerCount: 2
Fore
SplineSet
476 805 m 0
 423 805 399 849 362 848 c 0
 333 847 321 837 296 812 c 1
 284 821 l 1
 309 851 332 867 362 867 c 0xf8
 401 867 431 823 474 823 c 0
 497 823 514 835 539 866 c 1
 552 857 l 1
 525 819 501 805 476 805 c 0
502 0 m 1
 474 0 l 1
 197 658 l 1
 195 619 189 575 175 476 c 2
 108 0 l 1
 86 0 l 1
 182 681 l 1
 211 681 l 1
 487 25 l 1
 491 67 498 128 509 205 c 2
 575 681 l 1
 597 681 l 1
 502 0 l 1
EndSplineSet
Substitution2: "'c2sc' Capitals to Small Capitals lookup 23 subtable" ntilde.sc
Substitution2: "'aalt' Access All Alternates lookup 0 subtable" ntilde.sc
Position2: "'cpsp' Capital Spacing lookup 0 subtable" dx=5 dy=0 dh=10 dv=0
EndChar
StartChar: Oacute
Encoding: 211 211 172
Width: 689
GlyphClass: 2
Flags: MW
HStem: -10 22<246 424.5 246 430.5> 671 20<291.5 467>
VStem: 83 23<176 336 176 342> 606 24<347.5 507.5>
AnchorPoint: "Anchor-14" 0 0 basechar 0
AnchorPoint: "Anchor-13" 591 681 basechar 0
AnchorPoint: "Anchor-12" 424 861 basechar 0
AnchorPoint: "Anchor-11" 0 0 basechar 0
AnchorPoint: "Anchor-10" 308 0 basechar 0
LayerCount: 2
Back
Fore
SplineSet
510 861 m 1
 519 838 l 1
 329 764 l 1
 325 779 l 1
 510 861 l 1
404 691 m 0
 543 691 630 600 630 427 c 0
 630 253 553 -10 308 -10 c 0
 169 -10 83 85 83 257 c 0
 83 427 165 691 404 691 c 0
404 671 m 0
 179 671 106 416 106 256 c 0
 106 96 184 12 308 12 c 0
 541 12 606 268 606 427 c 0
 606 588 530 671 404 671 c 0
EndSplineSet
Substitution2: "'c2sc' Capitals to Small Capitals lookup 27 subtable" oacute.sc
Substitution2: "'locl' Localized Forms in Latin lookup 7 subtable" Oacute.loclPLK
AlternateSubs2: "'aalt' Access All Alternates lookup 1 subtable" Oacute.loclPLK oacute.sc
Position2: "'cpsp' Capital Spacing lookup 0 subtable" dx=5 dy=0 dh=10 dv=0
EndChar

StartChar: Odieresis
Encoding: 214 214 75
Width: 689
GlyphClass: 2
Flags: MW
HStem: -10 22<246 424.5 246 430.5> 671 20<291.5 467> 799 39<324.5 333.5 490 499.5>
VStem: 83 23<176 335 176 342> 309 40 474 40 606 24<348.5 508>
AnchorPoint: "Anchor-11" 0 0 basechar 0
AnchorPoint: "Anchor-10" 87 519 basechar 0
AnchorPoint: "Anchor-9" 404 757 basechar 0
AnchorPoint: "Anchor-8" 0 0 basechar 0
LayerCount: 2
Fore
SplineSet
330 838 m 0
 343 838 350 828 349 817 c 1
 347 807 339 799 328 799 c 0
 315 799 307 808 309 820 c 0
 310 830 319 838 330 838 c 0
496 838 m 0
 508 838 515 828 514 817 c 0
 513 807 505 799 494 799 c 0
 480 799 473 808 474 820 c 1
 476 830 484 838 496 838 c 0
404 691 m 0
 543 691 630 600 630 427 c 0
 630 253 553 -10 308 -10 c 0
 169 -10 83 85 83 257 c 0
 83 427 165 691 404 691 c 0
404 671 m 0
 179 671 106 415 106 255 c 0
 106 97 184 12 308 12 c 0
 541 12 606 269 606 428 c 0
 606 588 530 671 404 671 c 0
EndSplineSet
Substitution2: "'c2sc' Capitals to Small Capitals lookup 23 subtable" odieresis.sc
Substitution2: "'aalt' Access All Alternates lookup 0 subtable" odieresis.sc
Position2: "'cpsp' Capital Spacing lookup 0 subtable" dx=5 dy=0 dh=10 dv=0
EndChar

StartChar: Oslash
Encoding: 216 216 79
Width: 689
GlyphClass: 2
Flags: MW
HStem: -10 22<293.5 424.5 293.5 430.5> 671 20<291.5 418.5>
VStem: 83 23<199 335 199 342> 606 24<348.5 485.5>
AnchorPoint: "Anchor-11" 0 0 basechar 0
AnchorPoint: "Anchor-10" 0 0 basechar 0
AnchorPoint: "Anchor-9" 399 689 basechar 0
AnchorPoint: "Anchor-8" 0 0 basechar 0
LayerCount: 2
Fore
SplineSet
509 669 m 1
 585 633 630 551 630 427 c 0
 630 253 553 -10 308 -10 c 0
 276 -10 246 -5 220 5 c 1
 170 -111 l 1
 150 -104 l 1
 202 13 l 1
 127 51 83 134 83 257 c 0
 83 427 165 691 404 691 c 0
 436 691 465 686 491 677 c 1
 542 798 l 1
 562 792 l 1
 509 669 l 1
106 255 m 0
 106 143 145 67 213 33 c 1
 484 658 l 1
 460 667 433 671 404 671 c 0
 179 671 106 415 106 255 c 0
308 12 m 0
 541 12 606 269 606 428 c 0
 606 543 567 618 498 651 c 1
 228 26 l 1
 252 17 279 12 308 12 c 0
EndSplineSet
Substitution2: "'c2sc' Capitals to Small Capitals lookup 23 subtable" oslash.sc
Substitution2: "'aalt' Access All Alternates lookup 0 subtable" oslash.sc
Position2: "'cpsp' Capital Spacing lookup 0 subtable" dx=5 dy=0 dh=10 dv=0
EndChar
StartChar: Ucircumflex
Encoding: 219 219 258
Width: 641
GlyphClass: 2
Flags: MW
HStem: -10 22<219 351.5 219 357.5> 661 20G<172 195 195 195 564 587 587 587> 845 24<398 398>
VStem: 102.4 23.29
AnchorPoint: "Anchor-14" 0 0 basechar 0
AnchorPoint: "Anchor-13" 467 721 basechar 0
AnchorPoint: "Anchor-12" 401 869 basechar 0
AnchorPoint: "Anchor-11" 368 0 basechar 0
AnchorPoint: "Anchor-10" 285 0 basechar 0
LayerCount: 2
Back
Fore
SplineSet
502 766 m 1
 398 845 l 1
 273 766 l 1
 262 780 l 1
 395 869 l 1
 407 869 l 1
 514 780 l 1
 502 766 l 1
587 681 m 1
 521 207 l 2
 503 81 430 -10 285 -10 c 0
 136 -10 88 82 106 208 c 2
 172 681 l 1
 195 681 l 1
 129 209 l 2
 113 93 153 12 285 12 c 0
 418 12 483 96 498 210 c 2
 564 681 l 1
 587 681 l 1
EndSplineSet
Substitution2: "'c2sc' Capitals to Small Capitals lookup 27 subtable" ucircumflex.sc
Substitution2: "'aalt' Access All Alternates lookup 0 subtable" ucircumflex.sc
Position2: "'cpsp' Capital Spacing lookup 0 subtable" dx=5 dy=0 dh=10 dv=0
EndChar

StartChar: Udieresis
Encoding: 220 220 105
Width: 641
GlyphClass: 2
Flags: MW
HStem: -10 22<218 351 218 357> 661 20G<172 195 195 195 564 587 587 587> 799 39<315.5 324.5 481 490.5>
VStem: 102.36 22.33 300 40 465 40
AnchorPoint: "Anchor-11" 0 0 basechar 0
AnchorPoint: "Anchor-10" 0 0 basechar 0
AnchorPoint: "Anchor-9" 395 757 basechar 0
AnchorPoint: "Anchor-8" 367 0 basechar 0
LayerCount: 2
Fore
SplineSet
321 838 m 0
 334 838 341 828 340 817 c 1
 338 807 330 799 319 799 c 0
 306 799 298 808 300 820 c 0
 301 830 310 838 321 838 c 0
487 838 m 0
 499 838 506 828 505 817 c 0
 504 807 496 799 485 799 c 0
 471 799 464 808 465 820 c 1
 467 830 475 838 487 838 c 0
520 207 m 2
 503 81 430 -10 284 -10 c 0
 135 -10 88 82 106 208 c 2
 172 681 l 1
 195 681 l 1
 128 209 l 2
 112 93 152 12 284 12 c 0
 418 12 482 96 498 210 c 2
 564 681 l 1
 587 681 l 1
 520 207 l 2
EndSplineSet
Substitution2: "'c2sc' Capitals to Small Capitals lookup 23 subtable" udieresis.sc
Substitution2: "'aalt' Access All Alternates lookup 0 subtable" udieresis.sc
Position2: "'cpsp' Capital Spacing lookup 0 subtable" dx=5 dy=0 dh=10 dv=0
EndChar

StartChar: Thorn
Encoding: 222 222 84
Width: 559
GlyphClass: 2
Flags: MW
HStem: 0 21G<86 109 86 86> 147 21<133 241 130 245> 533 21<187 300 184 302> 533 148<184 205 182 300 184 184>
VStem: 494 23<331.5 439.5>
LayerCount: 2
Fore
SplineSet
302 554 m 2xe8
 440 554 517 507 517 384 c 0
 517 273 458 147 241 147 c 2
 130 147 l 1
 109 0 l 1
 86 0 l 1
 182 681 l 1
 205 681 l 1xd8
 187 554 l 1
 302 554 l 2xe8
245 168 m 2
 438 168 494 279 494 384 c 0
 494 495 427 533 300 533 c 2
 184 533 l 1
 133 168 l 1
 245 168 l 2
EndSplineSet
Substitution2: "'c2sc' Capitals to Small Capitals lookup 23 subtable" thorn.sc
Substitution2: "'aalt' Access All Alternates lookup 0 subtable" thorn.sc
Position2: "'cpsp' Capital Spacing lookup 0 subtable" dx=5 dy=0 dh=10 dv=0
EndChar
StartChar: germandbls
Encoding: 223 223 629
Width: 574
GlyphClass: 2
Flags: MW
HStem: -195 21G<-34 -34> -10 21<309.5 384.5 309.5 391.5> 717 20<315 393>
VStem: 320 21<373 451 373 458> 468 22<565.5 654.5> 480 22<132.5 234>
LayerCount: 2
Back
Fore
SplineSet
341 411 m 0xf4
 341 335 502 316 502 160 c 0
 502 94 454 -10 329 -10 c 0
 286 -10 245 4 224 17 c 1
 233 34 l 1
 260 20 290 11 329 11 c 0
 440 11 480 105 480 160 c 0xf4
 480 308 320 321 320 411 c 0
 320 505 468 504 468 627 c 0
 468 682 427 717 359 717 c 0
 271 717 197 658 181 537 c 2
 105 5 l 2
 88 -123 49 -155 -34 -195 c 1
 -41 -177 l 1
 33 -141 67 -110 84 7 c 2
 159 542 l 2
 177 669 260 737 359 737 c 0
 439 737 490 691 490 627 c 0xf8
 490 499 341 491 341 411 c 0xf4
EndSplineSet
Substitution2: "'smcp' Lowercase to Small Capitals lookup 28 subtable" germandbls.sc
Substitution2: "'aalt' Access All Alternates lookup 0 subtable" germandbls.sc
EndChar
StartChar: aacute
Encoding: 225 225 336
Width: 548
GlyphClass: 2
Flags: MW
HStem: -10 21<183 260.5> 510 19<239.5 352.5>
VStem: 67 23<135 255.5 135 260> 394 19
AnchorPoint: "Anchor-14" 0 0 basechar 0
AnchorPoint: "Anchor-13" 0 0 basechar 0
AnchorPoint: "Anchor-12" 366 761 basechar 0
AnchorPoint: "Anchor-11" 451 -10 basechar 0
AnchorPoint: "Anchor-10" 263 0 basechar 0
LayerCount: 2
Back
Fore
SplineSet
454 761 m 1
 461 738 l 1
 271 654 l 1
 266 670 l 1
 454 761 l 1
327 529 m 0
 393 529 434 511 473 488 c 1
 417 112 l 2
 414 95 413 80 413 68 c 0
 413 32 425 17 449 7 c 1
 442 -10 l 1
 401 4 388 35 394 97 c 1
 354 31 295 -10 226 -10 c 0
 126 -10 67 67 67 190 c 0
 67 330 135 529 327 529 c 0
328 510 m 0
 151 510 90 320 90 191 c 0
 90 79 139 11 227 11 c 0
 295 11 353 53 399 135 c 1
 450 477 l 1
 418 497 377 510 328 510 c 0
EndSplineSet
Substitution2: "'smcp' Lowercase to Small Capitals lookup 28 subtable" aacute.sc
Substitution2: "'aalt' Access All Alternates lookup 0 subtable" aacute.sc
EndChar
StartChar: atilde
Encoding: 227 227 366
Width: 548
GlyphClass: 2
Flags: MW
HStem: -10 21<183 260.5> 510 19<239.5 352.5> 679 18<398.5 431.5 398.5 433.5> 722 19<293.5 326.5>
VStem: 67 23<135 255.5 135 260> 394 19
AnchorPoint: "Anchor-14" 0 0 basechar 0
AnchorPoint: "Anchor-13" 0 0 basechar 0
AnchorPoint: "Anchor-12" 366 742 basechar 0
AnchorPoint: "Anchor-11" 451 -10 basechar 0
AnchorPoint: "Anchor-10" 263 0 basechar 0
LayerCount: 2
Back
Fore
SplineSet
420 679 m 0
 371 679 346 722 307 722 c 0
 280 722 267 711 242 686 c 1
 230 695 l 1
 255 725 279 741 307 741 c 0xdc
 349 741 377 697 420 697 c 0
 443 697 460 709 485 740 c 1
 498 731 l 1
 471 693 447 679 420 679 c 0
327 529 m 0xdc
 393 529 434 511 473 488 c 1
 417 112 l 2
 414 95 413 80 413 68 c 0
 413 32 425 17 449 7 c 1
 442 -10 l 1
 401 4 388 35 394 97 c 1
 354 31 295 -10 226 -10 c 0
 126 -10 67 67 67 190 c 0
 67 330 135 529 327 529 c 0xdc
328 510 m 0
 151 510 90 320 90 191 c 0
 90 79 139 11 227 11 c 0
 295 11 353 53 399 135 c 1
 450 477 l 1
 418 497 377 510 328 510 c 0
EndSplineSet
Substitution2: "'smcp' Lowercase to Small Capitals lookup 28 subtable" atilde.sc
Substitution2: "'aalt' Access All Alternates lookup 0 subtable" atilde.sc
EndChar

StartChar: adieresis
Encoding: 228 228 138
Width: 548
GlyphClass: 2
Flags: MW
HStem: -10 21<184 261> 510 19<239.5 353> 673 39<262.5 271.5 428 437.5>
VStem: 68 22<135 255.5 135 260> 247 40 395 19 412 40
AnchorPoint: "Anchor-11" 0 0 basechar 0
AnchorPoint: "Anchor-10" 0 0 basechar 0
AnchorPoint: "Anchor-9" 342 631 basechar 0
AnchorPoint: "Anchor-8" 452 -10 basechar 0
LayerCount: 2
Fore
SplineSet
268 712 m 0xfc
 281 712 288 702 287 691 c 1
 285 681 277 673 266 673 c 0
 253 673 245 682 247 694 c 0
 248 704 257 712 268 712 c 0xfc
434 712 m 0xfa
 446 712 453 702 452 691 c 0
 451 681 443 673 432 673 c 0
 418 673 411 682 412 694 c 1
 414 704 422 712 434 712 c 0xfa
328 529 m 0
 393 529 434 511 473 488 c 1
 417 112 l 2
 415 95 414 80 414 68 c 0
 414 32 426 17 449 7 c 1
 443 -10 l 1
 402 4 389 35 395 98 c 1xfc
 355 31 295 -10 227 -10 c 0
 127 -10 68 67 68 190 c 0
 68 330 135 529 328 529 c 0
328 510 m 0
 151 510 90 320 90 191 c 0
 90 79 140 11 228 11 c 0
 296 11 353 53 400 135 c 1
 451 477 l 1
 419 497 378 510 328 510 c 0
EndSplineSet
Substitution2: "'smcp' Lowercase to Small Capitals lookup 24 subtable" adieresis.sc
Substitution2: "'aalt' Access All Alternates lookup 0 subtable" adieresis.sc
EndChar

StartChar: aring
Encoding: 229 229 142
Width: 548
GlyphClass: 2
Flags: MW
HStem: -10 21<184 261> 510 19<239.5 353> 644 18<335.5 372.5 335.5 376.5> 783 18<352.5 389>
VStem: 68 22<135 255.5 135 260> 283 21 395 19 420 22
AnchorPoint: "Anchor-11" 0 0 basechar 0
AnchorPoint: "Anchor-10" 0 0 basechar 0
AnchorPoint: "Anchor-9" 334 519 basechar 0
AnchorPoint: "Anchor-8" 452 -10 basechar 0
LayerCount: 2
Fore
SplineSet
372 801 m 0
 421 801 448 767 442 721 c 0
 435 675 400 644 353 644 c 0
 304 644 276 679 283 724 c 1
 289 770 325 801 372 801 c 0
370 783 m 0
 335 783 310 759 304 721 c 0
 299 687 317 662 354 662 c 0
 391 662 414 686 420 724 c 0
 426 760 408 783 370 783 c 0
328 529 m 0
 393 529 434 511 473 488 c 1
 417 112 l 2
 415 95 414 80 414 68 c 0
 414 32 426 17 449 7 c 1
 443 -10 l 1
 402 4 389 35 395 98 c 1xfe
 355 31 295 -10 227 -10 c 0
 127 -10 68 67 68 190 c 0
 68 330 135 529 328 529 c 0
328 510 m 0
 151 510 90 320 90 191 c 0
 90 79 140 11 228 11 c 0
 296 11 353 53 400 135 c 1
 451 477 l 1
 419 497 378 510 328 510 c 0
EndSplineSet
Substitution2: "'smcp' Lowercase to Small Capitals lookup 24 subtable" aring.sc
Substitution2: "'aalt' Access All Alternates lookup 0 subtable" aring.sc
EndChar
StartChar: ccedilla
Encoding: 231 231 383
Width: 463
GlyphClass: 2
Flags: MW
HStem: -212 20<214.5 248.5 214.5 253.5> -194 21G<160 160> -91 17 -10 21<249 249> -9 20<231 231> 509 20<236.5 343.5>
VStem: 68 23<135 264.5 135 269> 297 24<-154.5 -138>
AnchorPoint: "Anchor-14" 0 0 basechar 0
AnchorPoint: "Anchor-13" 0 0 basechar 0
AnchorPoint: "Anchor-12" 318 519 basechar 0
AnchorPoint: "Anchor-11" 0 0 basechar 0
AnchorPoint: "Anchor-10" 243 -212 basechar 0
LayerCount: 2
Back
Fore
SplineSet
318 509 m 0x6f
 155 509 91 332 91 197 c 0
 91 73 152 11 246 11 c 0
 301 11 343 30 382 59 c 1x6f
 393 43 l 1
 353 11 307 -9 249 -10 c 1
 237 -74 l 1
 293 -78 321 -96 321 -137 c 0
 321 -183 280 -212 227 -212 c 0
 196 -212 176 -204 160 -194 c 1
 171 -178 l 1
 184 -186 202 -192 227 -192 c 0xb7
 270 -192 297 -171 297 -138 c 0
 298 -105 275 -92 215 -91 c 1
 231 -9 l 1
 133 -3 68 69 68 197 c 0
 68 341 140 529 319 529 c 0
 373 529 414 513 448 479 c 1
 434 465 l 1
 405 493 369 509 318 509 c 0x6f
EndSplineSet
Substitution2: "'smcp' Lowercase to Small Capitals lookup 28 subtable" ccedilla.sc
Substitution2: "'aalt' Access All Alternates lookup 0 subtable" ccedilla.sc
EndChar
StartChar: igrave
Encoding: 236 236 488
Width: 258
GlyphClass: 2
Flags: MW
HStem: 0 21G<81 103 81 81> 499 20G<155 177 177 177> 718 20G<115 115>
VStem: 81 209
AnchorPoint: "Anchor-14" 0 0 basechar 0
AnchorPoint: "Anchor-13" 0 0 basechar 0
AnchorPoint: "Anchor-12" 205 761 basechar 0
AnchorPoint: "Anchor-11" 106 0 basechar 0
AnchorPoint: "Anchor-10" 92 0 basechar 0
LayerCount: 2
Back
Fore
SplineSet
128 761 m 1
 290 669 l 1
 281 654 l 1
 115 738 l 1
 128 761 l 1
177 519 m 1
 103 0 l 1
 81 0 l 1
 155 519 l 1
 177 519 l 1
EndSplineSet
Substitution2: "'smcp' Lowercase to Small Capitals lookup 28 subtable" igrave.sc
Substitution2: "'aalt' Access All Alternates lookup 0 subtable" igrave.sc
EndChar

StartChar: iacute
Encoding: 237 237 178
Width: 258
GlyphClass: 2
Flags: MW
HStem: 0 21G<81 103 81 81> 499 20G<155 177 177 177>
VStem: 81 199
AnchorPoint: "Anchor-11" 0 0 basechar 0
AnchorPoint: "Anchor-10" 0 0 basechar 0
AnchorPoint: "Anchor-9" 166 519 basechar 0
AnchorPoint: "Anchor-8" 113 0 basechar 0
LayerCount: 2
Fore
SplineSet
280 738 m 1
 90 654 l 1
 85 670 l 1
 273 761 l 1
 280 738 l 1
103 0 m 1
 81 0 l 1
 155 519 l 1
 177 519 l 1
 103 0 l 1
EndSplineSet
Substitution2: "'smcp' Lowercase to Small Capitals lookup 24 subtable" iacute.sc
Substitution2: "'aalt' Access All Alternates lookup 0 subtable" iacute.sc
EndChar

StartChar: icircumflex
Encoding: 238 238 180
Width: 258
GlyphClass: 2
Flags: MW
HStem: 0 21G<81 103 81 81> 499 20G<155 177 177 177> 738 24<200 200>
VStem: 63 251<667 667>
AnchorPoint: "Anchor-11" 0 0 basechar 0
AnchorPoint: "Anchor-10" 0 0 basechar 0
AnchorPoint: "Anchor-9" 166 519 basechar 0
AnchorPoint: "Anchor-8" 113 0 basechar 0
LayerCount: 2
Fore
SplineSet
63 667 m 1
 197 762 l 1
 209 762 l 1
 314 667 l 1
 303 654 l 1
 200 738 l 1
 74 654 l 1
 63 667 l 1
103 0 m 1
 81 0 l 1
 155 519 l 1
 177 519 l 1
 103 0 l 1
EndSplineSet
Substitution2: "'smcp' Lowercase to Small Capitals lookup 24 subtable" icircumflex.sc
Substitution2: "'aalt' Access All Alternates lookup 0 subtable" icircumflex.sc
EndChar

StartChar: idieresis
Encoding: 239 239 181
Width: 258
GlyphClass: 2
Flags: MW
HStem: 0 21G<81 103 81 81> 499 20G<155 177 177 177> 673 39<94.5 103.5 260 269.5>
VStem: 79 40 244 40
AnchorPoint: "Anchor-11" 0 0 basechar 0
AnchorPoint: "Anchor-10" 0 0 basechar 0
AnchorPoint: "Anchor-9" 174 631 basechar 0
AnchorPoint: "Anchor-8" 113 0 basechar 0
LayerCount: 2
Fore
SplineSet
100 712 m 0
 113 712 120 702 119 691 c 1
 117 681 109 673 98 673 c 0
 85 673 77 682 79 694 c 0
 80 704 89 712 100 712 c 0
266 712 m 0
 278 712 285 702 284 691 c 0
 283 681 275 673 264 673 c 0
 250 673 243 682 244 694 c 1
 246 704 254 712 266 712 c 0
103 0 m 1
 81 0 l 1
 155 519 l 1
 177 519 l 1
 103 0 l 1
EndSplineSet
Substitution2: "'smcp' Lowercase to Small Capitals lookup 24 subtable" idieresis.sc
Substitution2: "'aalt' Access All Alternates lookup 0 subtable" idieresis.sc
EndChar

StartChar: eth
Encoding: 240 240 154
Width: 550
GlyphClass: 2
Flags: MW
HStem: -10 21<184.5 287 184.5 291> 441 20<215 324> 714 20G<439 439> 718 20G<209 215>
VStem: 65 23<124.5 234 124.5 238> 455 23
LayerCount: 2
Fore
SplineSet
364 665 m 1xec
 435 605 478 522 478 396 c 0
 478 366 475 334 470 299 c 0
 441 86 351 -10 231 -10 c 0
 122 -10 65 63 65 176 c 0
 65 300 125 461 287 461 c 0
 362 461 416 423 455 363 c 1
 459 487 434 578 348 652 c 1
 254 567 l 1
 237 573 l 1
 334 663 l 1
 301 687 254 709 209 718 c 1
 215 738 l 1
 262 727 309 706 349 676 c 1
 426 746 l 1xdc
 439 734 l 1
 364 665 l 1xec
231 11 m 0xdc
 343 11 418 106 446 289 c 0
 450 310 451 327 452 337 c 1
 412 401 359 441 289 441 c 0
 141 441 88 292 88 176 c 0
 88 73 138 11 231 11 c 0xdc
EndSplineSet
Substitution2: "'smcp' Lowercase to Small Capitals lookup 24 subtable" eth.sc
Substitution2: "'aalt' Access All Alternates lookup 0 subtable" eth.sc
EndChar
StartChar: ntilde
Encoding: 241 241 550
Width: 581
GlyphClass: 2
Flags: MW
HStem: 0 21G<81 103 81 81 410 432 410 410> 499 20G<155 173 173 173> 510 19<327.5 405.5> 679 18<391.5 424.5 391.5 426.5> 722 19<286.5 319.5>
VStem: 464.76 22
AnchorPoint: "Anchor-14" 0 0 basechar 0
AnchorPoint: "Anchor-13" 0 0 basechar 0
AnchorPoint: "Anchor-12" 359 742 basechar 0
AnchorPoint: "Anchor-11" 0 0 basechar 0
AnchorPoint: "Anchor-10" 257 0 basechar 0
LayerCount: 2
Back
Fore
SplineSet
413 679 m 0xbc
 364 679 339 722 300 722 c 0
 273 722 260 711 235 686 c 1
 223 695 l 1
 248 725 272 741 300 741 c 0xac
 342 741 370 697 413 697 c 0
 436 697 453 709 478 740 c 1
 491 731 l 1
 464 693 440 679 413 679 c 0xbc
369 529 m 0xac
 459 529 498 470 484 369 c 2
 432 0 l 1
 410 0 l 1
 462 367 l 2
 475 462 443 510 368 510 c 0xac
 282 510 211 437 148 315 c 1
 103 0 l 1
 81 0 l 1
 155 519 l 1
 173 519 l 1xcc
 153 358 l 1
 212 471 286 529 369 529 c 0xac
EndSplineSet
Substitution2: "'smcp' Lowercase to Small Capitals lookup 28 subtable" ntilde.sc
Substitution2: "'aalt' Access All Alternates lookup 0 subtable" ntilde.sc
EndChar
StartChar: ocircumflex
Encoding: 244 244 556
Width: 560
GlyphClass: 2
Flags: MW
HStem: -10 21<194.5 329 194.5 338> 509 20<230.5 366> 738 24<348 348>
VStem: 68 23<136 255 136 262.5> 470 23<265 386>
AnchorPoint: "Anchor-14" 0 0 basechar 0
AnchorPoint: "Anchor-13" 485 519 basechar 0
AnchorPoint: "Anchor-12" 351 762 basechar 0
AnchorPoint: "Anchor-11" 0 0 basechar 0
AnchorPoint: "Anchor-10" 243 0 basechar 0
LayerCount: 2
Back
Fore
SplineSet
222 654 m 1
 211 667 l 1
 345 762 l 1
 357 762 l 1
 462 667 l 1
 451 654 l 1
 348 738 l 1
 222 654 l 1
317 529 m 0
 427 529 493 458 493 327 c 0
 493 197 433 -10 243 -10 c 0
 132 -10 68 66 68 196 c 0
 68 329 130 529 317 529 c 0
317 509 m 0
 144 509 91 315 91 195 c 0
 91 77 146 11 243 11 c 0
 415 11 470 203 470 327 c 0
 470 445 415 509 317 509 c 0
EndSplineSet
Substitution2: "'smcp' Lowercase to Small Capitals lookup 28 subtable" ocircumflex.sc
Substitution2: "'aalt' Access All Alternates lookup 0 subtable" ocircumflex.sc
EndChar

StartChar: otilde
Encoding: 245 245 218
Width: 560
GlyphClass: 2
Flags: MW
HStem: -10 21<194.5 329 194.5 338> 509 20<230.5 366> 679 18<379.5 412.5 379.5 415.5> 711 20G<479 479> 722 19<289 289>
VStem: 68 23<136 255 136 262.5> 470 23<265 386>
AnchorPoint: "Anchor-11" 0 0 basechar 0
AnchorPoint: "Anchor-10" 0 0 basechar 0
AnchorPoint: "Anchor-9" 317 519 basechar 0
AnchorPoint: "Anchor-8" 0 0 basechar 0
LayerCount: 2
Fore
SplineSet
403 679 m 0xf6
 350 679 326 723 289 722 c 0
 260 721 248 711 223 686 c 1
 211 695 l 1
 236 725 259 741 289 741 c 0xce
 328 741 358 697 401 697 c 0
 424 697 441 709 466 740 c 1
 479 731 l 1
 452 693 428 679 403 679 c 0xf6
317 529 m 0xce
 427 529 493 458 493 327 c 0
 493 197 433 -10 243 -10 c 0
 132 -10 68 66 68 196 c 0
 68 329 130 529 317 529 c 0xce
317 509 m 0
 144 509 91 315 91 195 c 0
 91 77 146 11 243 11 c 0
 415 11 470 203 470 327 c 0
 470 445 415 509 317 509 c 0
EndSplineSet
Substitution2: "'smcp' Lowercase to Small Capitals lookup 24 subtable" otilde.sc
Substitution2: "'aalt' Access All Alternates lookup 0 subtable" otilde.sc
EndChar

StartChar: odieresis
Encoding: 246 246 212
Width: 560
GlyphClass: 2
Flags: MW
HStem: -10 21<194.5 329 194.5 338> 509 20<230.5 366> 673 39<246.5 255.5 412 421.5>
VStem: 68 23<136 255 136 262.5> 231 40 396 40 470 23<265 386>
AnchorPoint: "Anchor-11" 0 0 basechar 0
AnchorPoint: "Anchor-10" 0 0 basechar 0
AnchorPoint: "Anchor-9" 326 631 basechar 0
AnchorPoint: "Anchor-8" 0 0 basechar 0
LayerCount: 2
Fore
SplineSet
252 712 m 0
 265 712 272 702 271 691 c 1
 269 681 261 673 250 673 c 0
 237 673 229 682 231 694 c 0
 232 704 241 712 252 712 c 0
418 712 m 0
 430 712 437 702 436 691 c 0
 435 681 427 673 416 673 c 0
 402 673 395 682 396 694 c 1
 398 704 406 712 418 712 c 0
317 529 m 0
 427 529 493 458 493 327 c 0
 493 197 433 -10 243 -10 c 0
 132 -10 68 66 68 196 c 0
 68 329 130 529 317 529 c 0
317 509 m 0
 144 509 91 315 91 195 c 0
 91 77 146 11 243 11 c 0
 415 11 470 203 470 327 c 0
 470 445 415 509 317 509 c 0
EndSplineSet
Substitution2: "'smcp' Lowercase to Small Capitals lookup 24 subtable" odieresis.sc
Substitution2: "'aalt' Access All Alternates lookup 0 subtable" odieresis.sc
EndChar

StartChar: ugrave
Encoding: 249 249 244
Width: 576
GlyphClass: 2
Flags: MW
HStem: -10 21<181.5 261.5> 0 21G<405 422 405 405> 499 20G<150 172 172 172 473 495 495 495> 718 20G<265 265>
VStem: 95.19 22.28
AnchorPoint: "Anchor-11" 0 0 basechar 0
AnchorPoint: "Anchor-10" 0 0 basechar 0
AnchorPoint: "Anchor-9" 323 519 basechar 0
AnchorPoint: "Anchor-8" 432 0 basechar 0
LayerCount: 2
Fore
SplineSet
440 669 m 1xb8
 431 654 l 1
 265 738 l 1
 278 761 l 1
 440 669 l 1xb8
422 0 m 1x78
 405 0 l 1x78
 426 164 l 1
 381 61 307 -10 216 -10 c 0
 129 -10 83 47 98 150 c 2
 150 519 l 1
 172 519 l 1
 120 150 l 2
 107 55 145 11 218 11 c 0xb8
 306 11 379 89 429 204 c 1
 473 519 l 1
 495 519 l 1
 422 0 l 1x78
EndSplineSet
Substitution2: "'smcp' Lowercase to Small Capitals lookup 24 subtable" ugrave.sc
Substitution2: "'aalt' Access All Alternates lookup 0 subtable" ugrave.sc
EndChar

StartChar: uacute
Encoding: 250 250 240
Width: 576
GlyphClass: 2
Flags: MW
HStem: -10 21<181.5 261.5> 0 21G<405 422 405 405> 499 20G<150 172 172 172 473 495 495 495>
VStem: 95.19 22.28
AnchorPoint: "Anchor-11" 0 0 basechar 0
AnchorPoint: "Anchor-10" 0 0 basechar 0
AnchorPoint: "Anchor-9" 323 519 basechar 0
AnchorPoint: "Anchor-8" 432 0 basechar 0
LayerCount: 2
Fore
SplineSet
438 738 m 1xb0
 248 654 l 1
 243 670 l 1
 431 761 l 1
 438 738 l 1xb0
422 0 m 1x70
 405 0 l 1x70
 426 164 l 1
 381 61 307 -10 216 -10 c 0
 129 -10 83 47 98 150 c 2
 150 519 l 1
 172 519 l 1
 120 150 l 2
 107 55 145 11 218 11 c 0xb0
 306 11 379 89 429 204 c 1
 473 519 l 1
 495 519 l 1
 422 0 l 1x70
EndSplineSet
Substitution2: "'smcp' Lowercase to Small Capitals lookup 24 subtable" uacute.sc
Substitution2: "'aalt' Access All Alternates lookup 0 subtable" uacute.sc
EndChar
StartChar: ucircumflex
Encoding: 251 251 662
Width: 576
GlyphClass: 2
Flags: MW
HStem: -10 21<181.5 261> 0 21G<405 422 405 405> 499 20G<149 171 171 171 473 495 495 495> 738 24<353 353>
VStem: 95.19 22
AnchorPoint: "Anchor-14" 0 0 basechar 0
AnchorPoint: "Anchor-13" 505 519 basechar 0
AnchorPoint: "Anchor-12" 356 762 basechar 0
AnchorPoint: "Anchor-11" 432 0 basechar 0
AnchorPoint: "Anchor-10" 251 0 basechar 0
LayerCount: 2
Back
Fore
SplineSet
227 654 m 1xb8
 216 667 l 1
 350 762 l 1
 362 762 l 1
 467 667 l 1
 456 654 l 1
 353 738 l 1
 227 654 l 1xb8
495 519 m 1
 422 0 l 1
 405 0 l 1x78
 426 164 l 1
 381 61 306 -10 216 -10 c 0
 129 -10 83 47 98 150 c 2
 149 519 l 1
 171 519 l 1
 120 150 l 2
 106 55 145 11 218 11 c 0
 306 11 378 89 429 204 c 1
 473 519 l 1
 495 519 l 1
EndSplineSet
Substitution2: "'smcp' Lowercase to Small Capitals lookup 28 subtable" ucircumflex.sc
Substitution2: "'aalt' Access All Alternates lookup 0 subtable" ucircumflex.sc
EndChar
StartChar: udieresis
Encoding: 252 252 664
Width: 576
GlyphClass: 2
Flags: MW
HStem: -10 21<181.5 261> 0 21G<405 422 405 405> 499 20G<149 171 171 171 473 495 495 495> 673 39<259.5 268.5 425 434.5>
VStem: 95.19 22 244 40 409 40
AnchorPoint: "Anchor-14" 0 0 basechar 0
AnchorPoint: "Anchor-13" 505 519 basechar 0
AnchorPoint: "Anchor-12" 349 712 basechar 0
AnchorPoint: "Anchor-11" 432 0 basechar 0
AnchorPoint: "Anchor-10" 251 0 basechar 0
LayerCount: 2
Back
Fore
SplineSet
265 712 m 0xbe
 278 712 285 702 284 691 c 0
 282 681 274 673 263 673 c 0
 250 673 242 682 244 694 c 0
 245 704 254 712 265 712 c 0xbe
431 712 m 0
 443 712 450 702 449 691 c 0
 448 681 440 673 429 673 c 0
 415 673 408 682 409 694 c 0
 411 704 419 712 431 712 c 0
495 519 m 1
 422 0 l 1
 405 0 l 1x7e
 426 164 l 1
 381 61 306 -10 216 -10 c 0
 129 -10 83 47 98 150 c 2
 149 519 l 1
 171 519 l 1
 120 150 l 2
 106 55 145 11 218 11 c 0
 306 11 378 89 429 204 c 1
 473 519 l 1
 495 519 l 1
EndSplineSet
Substitution2: "'smcp' Lowercase to Small Capitals lookup 28 subtable" udieresis.sc
Substitution2: "'aalt' Access All Alternates lookup 0 subtable" udieresis.sc
EndChar
StartChar: yacute
Encoding: 253 253 700
Width: 444
GlyphClass: 2
Flags: MW
HStem: -195 21G<-4 -4> 0 16 0 21G<173 173> 499 20G<60 83 83 83 433 458 458 458>
VStem: -6 464
AnchorPoint: "Anchor-14" 0 0 basechar 0
AnchorPoint: "Anchor-13" 0 0 basechar 0
AnchorPoint: "Anchor-12" 282 761 basechar 0
AnchorPoint: "Anchor-11" 0 0 basechar 0
AnchorPoint: "Anchor-10" 156 -192 basechar 0
LayerCount: 2
Back
Fore
SplineSet
370 761 m 1xb8
 377 738 l 1
 187 654 l 1
 182 670 l 1
 370 761 l 1xb8
458 519 m 1
 205 -2 l 2
 149 -116 110 -163 -4 -195 c 1
 -6 -176 l 1
 102 -146 131 -103 184 1 c 1
 173 0 l 1
 60 519 l 1
 83 519 l 1
 191 16 l 1xd8
 433 519 l 1
 458 519 l 1
EndSplineSet
Substitution2: "'smcp' Lowercase to Small Capitals lookup 28 subtable" yacute.sc
Substitution2: "'aalt' Access All Alternates lookup 0 subtable" yacute.sc
EndChar
StartChar: thorn
Encoding: 254 254 598
Width: 569
GlyphClass: 2
Flags: MW
HStem: -196 21G<53 53> -10 21<219.5 332.5 215 340.5> 509 20<306.5 387> 716 20G<207 207>
VStem: 475 22<278 395.5>
LayerCount: 2
Back
Fore
SplineSet
344 529 m 0
 444 529 497 462 497 339 c 0
 497 202 437 -10 244 -10 c 0
 195 -10 153 -2 105 19 c 1
 76 -193 l 1
 53 -196 l 1
 185 733 l 1
 207 736 l 1
 164 436 l 1
 211 490 269 529 344 529 c 0
243 11 m 0
 422 11 475 216 475 340 c 0
 475 451 430 509 344 509 c 0
 266 509 213 468 161 408 c 1
 109 39 l 1
 150 22 187 11 243 11 c 0
EndSplineSet
Substitution2: "'smcp' Lowercase to Small Capitals lookup 28 subtable" thorn.sc
Substitution2: "'aalt' Access All Alternates lookup 0 subtable" thorn.sc
EndChar

StartChar: ydieresis
Encoding: 255 255 260
Width: 444
GlyphClass: 2
Flags: MW
HStem: -195 21G<-4 -4> 0 16 1 21G<183 183> 499 20G<60 83 83 83 433 458 458 458> 673 39<181.5 190.5 347 356.5>
VStem: 166 40 331 40
AnchorPoint: "Anchor-11" 0 0 basechar 0
AnchorPoint: "Anchor-10" 0 0 basechar 0
AnchorPoint: "Anchor-9" 261 631 basechar 0
AnchorPoint: "Anchor-8" 0 0 basechar 0
LayerCount: 2
Fore
SplineSet
187 712 m 0xde
 200 712 207 702 206 691 c 1
 204 681 196 673 185 673 c 0
 172 673 164 682 166 694 c 0
 167 704 176 712 187 712 c 0xde
353 712 m 0
 365 712 372 702 371 691 c 0
 370 681 362 673 351 673 c 0
 337 673 330 682 331 694 c 1
 333 704 341 712 353 712 c 0
205 -2 m 2
 149 -116 110 -163 -4 -195 c 1
 -6 -177 l 1
 102 -146 131 -103 183 1 c 1
 173 0 l 1xbc
 60 519 l 1
 83 519 l 1
 191 16 l 1
 433 519 l 1
 458 519 l 1
 205 -2 l 2
EndSplineSet
Substitution2: "'smcp' Lowercase to Small Capitals lookup 24 subtable" ydieresis.sc
Substitution2: "'aalt' Access All Alternates lookup 0 subtable" ydieresis.sc
EndChar

StartChar: Amacron
Encoding: 256 256 7
Width: 557
GlyphClass: 2
Flags: MW
HStem: 0 21G<-10 15 -10 -10 469 469 469 493> 203 21<123 424 123 428 113 424> 662 19<335 335> 811 21<255 458 251 462>
VStem: -10 503<0 0>
AnchorPoint: "Anchor-11" 0 0 basechar 0
AnchorPoint: "Anchor-10" 198 519 basechar 0
AnchorPoint: "Anchor-9" 338 681 basechar 0
AnchorPoint: "Anchor-8" 503 0 basechar 0
LayerCount: 2
Fore
SplineSet
458 811 m 1
 251 811 l 1
 255 832 l 1
 462 832 l 1
 458 811 l 1
428 203 m 1
 113 203 l 1
 15 0 l 1
 -10 0 l 1
 324 681 l 1
 351 681 l 1
 493 0 l 1
 469 0 l 1
 428 203 l 1
424 224 m 1
 335 662 l 1
 123 224 l 1
 424 224 l 1
EndSplineSet
Substitution2: "'c2sc' Capitals to Small Capitals lookup 23 subtable" amacron.sc
Substitution2: "'aalt' Access All Alternates lookup 0 subtable" amacron.sc
Position2: "'cpsp' Capital Spacing lookup 0 subtable" dx=5 dy=0 dh=10 dv=0
EndChar

StartChar: Abreve
Encoding: 258 258 3
Width: 557
GlyphClass: 2
Flags: MW
HStem: 0 21G<-10 15 -10 -10 469 469 469 493> 203 21<123 424 123 428 113 424> 662 19<335 335> 772 20<323.5 373 323.5 375.5>
VStem: 249 15<848 850>
AnchorPoint: "Anchor-11" 0 0 basechar 0
AnchorPoint: "Anchor-10" 198 519 basechar 0
AnchorPoint: "Anchor-9" 338 681 basechar 0
AnchorPoint: "Anchor-8" 503 0 basechar 0
LayerCount: 2
Fore
SplineSet
348 772 m 0
 290 772 253 807 249 848 c 1
 264 850 l 1
 271 817 299 792 348 792 c 0
 398 792 432 819 449 851 c 1
 464 846 l 1
 448 805 403 772 348 772 c 0
428 203 m 1
 113 203 l 1
 15 0 l 1
 -10 0 l 1
 324 681 l 1
 351 681 l 1
 493 0 l 1
 469 0 l 1
 428 203 l 1
424 224 m 1
 335 662 l 1
 123 224 l 1
 424 224 l 1
EndSplineSet
Substitution2: "'c2sc' Capitals to Small Capitals lookup 23 subtable" abreve.sc
Substitution2: "'aalt' Access All Alternates lookup 0 subtable" abreve.sc
Position2: "'cpsp' Capital Spacing lookup 0 subtable" dx=5 dy=0 dh=10 dv=0
EndChar
StartChar: abreve
Encoding: 259 259 337
Width: 548
GlyphClass: 2
Flags: MW
HStem: -10 21<183 260.5> 510 19<239.5 352.5> 662 22<332.5 380 332.5 385>
VStem: 67 23<135 255.5 135 260> 258 17<749 751> 394 19
AnchorPoint: "Anchor-14" 0 0 basechar 0
AnchorPoint: "Anchor-13" 0 0 basechar 0
AnchorPoint: "Anchor-12" 369 753 basechar 0
AnchorPoint: "Anchor-11" 451 -10 basechar 0
AnchorPoint: "Anchor-10" 263 0 basechar 0
LayerCount: 2
Back
Fore
SplineSet
356 662 m 0
 297 662 261 699 258 749 c 1
 275 751 l 1
 281 707 309 684 356 684 c 0
 404 684 441 709 459 753 c 1
 475 747 l 1
 458 698 414 662 356 662 c 0
327 529 m 0
 393 529 434 511 473 488 c 1
 417 112 l 2
 414 95 413 80 413 68 c 0
 413 32 425 17 449 7 c 1
 442 -10 l 1
 401 4 388 35 394 97 c 1
 354 31 295 -10 226 -10 c 0
 126 -10 67 67 67 190 c 0
 67 330 135 529 327 529 c 0
328 510 m 0
 151 510 90 320 90 191 c 0
 90 79 139 11 227 11 c 0
 295 11 353 53 399 135 c 1
 450 477 l 1
 418 497 377 510 328 510 c 0
EndSplineSet
Substitution2: "'smcp' Lowercase to Small Capitals lookup 28 subtable" abreve.sc
Substitution2: "'aalt' Access All Alternates lookup 0 subtable" abreve.sc
EndChar
StartChar: Aogonek
Encoding: 260 260 28
Width: 557
GlyphClass: 2
Flags: MW
HStem: -203 22<392 420> -196 21G<464 464> 0 21G<-9 15 -9 -9 494 494> 203 21<123 424 123 428 113 424> 662 19<335 335>
VStem: 327 24<-143 -100>
AnchorPoint: "Anchor-14" 0 0 basechar 0
AnchorPoint: "Anchor-13" 0 0 basechar 0
AnchorPoint: "Anchor-12" 338 681 basechar 0
AnchorPoint: "Anchor-11" 503 0 basechar 0
AnchorPoint: "Anchor-10" 242 0 basechar 0
LayerCount: 2
Back
Fore
SplineSet
351 -126 m 0xbc
 351 -160 370 -181 414 -181 c 0xbc
 433 -181 446 -179 469 -174 c 1x7c
 464 -196 l 1
 443 -201 429 -203 411 -203 c 0
 354 -203 327 -175 327 -134 c 0
 327 -66 384 -29 468 6 c 1
 428 203 l 1
 113 203 l 1
 15 0 l 1
 -9 0 l 1
 324 681 l 1
 351 681 l 1
 492 3 l 1
 494 0 l 1
 407 -35 351 -69 351 -126 c 0xbc
123 224 m 1
 424 224 l 1
 335 662 l 1
 123 224 l 1
EndSplineSet
Substitution2: "'c2sc' Capitals to Small Capitals lookup 27 subtable" aogonek.sc
Substitution2: "'aalt' Access All Alternates lookup 0 subtable" aogonek.sc
Position2: "'cpsp' Capital Spacing lookup 0 subtable" dx=5 dy=0 dh=10 dv=0
EndChar

StartChar: aogonek
Encoding: 261 261 141
Width: 548
GlyphClass: 2
Flags: MW
HStem: -213 22<341 369> -10 21<184 261> -1 21G 510 19<239.5 353>
VStem: 68 22<135 255.5 135 260> 276 24<-153 -109> 395 19
AnchorPoint: "Anchor-11" 0 0 basechar 0
AnchorPoint: "Anchor-10" 0 0 basechar 0
AnchorPoint: "Anchor-9" 334 519 basechar 0
AnchorPoint: "Anchor-8" 452 -10 basechar 0
LayerCount: 2
Fore
SplineSet
414 68 m 0xde
 414 32 426 17 449 7 c 1
 443 -10 l 1
 356 -45 300 -79 300 -136 c 0
 300 -170 319 -191 363 -191 c 0
 382 -191 395 -189 418 -184 c 1
 413 -206 l 1
 392 -211 378 -213 360 -213 c 0
 303 -213 276 -185 276 -144 c 0
 276 -74 336 -37 425 -1 c 1xbe
 398 15 390 46 395 98 c 1
 355 31 295 -10 227 -10 c 0
 127 -10 68 67 68 190 c 0
 68 330 135 529 328 529 c 0
 393 529 434 511 473 488 c 1
 417 112 l 2
 415 95 414 80 414 68 c 0xde
451 477 m 1
 419 497 378 510 328 510 c 0
 151 510 90 320 90 191 c 0
 90 79 140 11 228 11 c 0
 296 11 353 53 400 135 c 1
 451 477 l 1
EndSplineSet
Substitution2: "'smcp' Lowercase to Small Capitals lookup 24 subtable" aogonek.sc
Substitution2: "'aalt' Access All Alternates lookup 0 subtable" aogonek.sc
EndChar
StartChar: cacute
Encoding: 263 263 381
Width: 463
GlyphClass: 2
Flags: MW
HStem: -10 21<199 273.5 199 275> 509 20<236.5 343.5>
VStem: 68 23<135 264.5 135 269>
AnchorPoint: "Anchor-14" 0 0 basechar 0
AnchorPoint: "Anchor-13" 0 0 basechar 0
AnchorPoint: "Anchor-12" 347 761 basechar 0
AnchorPoint: "Anchor-11" 0 0 basechar 0
AnchorPoint: "Anchor-10" 246 0 basechar 0
LayerCount: 2
Back
Fore
SplineSet
435 761 m 1
 442 738 l 1
 252 654 l 1
 247 670 l 1
 435 761 l 1
319 529 m 0
 373 529 414 513 448 479 c 1
 434 465 l 1
 405 493 369 509 318 509 c 0
 155 509 91 332 91 197 c 0
 91 73 152 11 246 11 c 0
 301 11 343 30 382 59 c 1
 393 43 l 1
 352 11 305 -10 245 -10 c 0
 139 -10 68 63 68 197 c 0
 68 341 140 529 319 529 c 0
EndSplineSet
Substitution2: "'smcp' Lowercase to Small Capitals lookup 28 subtable" cacute.sc
Substitution2: "'locl' Localized Forms in Latin lookup 7 subtable" cacute.loclPLK
AlternateSubs2: "'aalt' Access All Alternates lookup 1 subtable" cacute.loclPLK cacute.sc
EndChar
StartChar: Ccircumflex
Encoding: 264 264 46
Width: 538
GlyphClass: 2
Flags: MW
HStem: -10 22<246.5 344> 670 21<292.5 436> 845 24<419 419>
VStem: 83 23<176.5 341.5 176.5 347>
AnchorPoint: "Anchor-14" 0 0 basechar 0
AnchorPoint: "Anchor-13" 488 721 basechar 0
AnchorPoint: "Anchor-12" 422 869 basechar 0
AnchorPoint: "Anchor-11" 0 0 basechar 0
AnchorPoint: "Anchor-10" 304 0 basechar 0
LayerCount: 2
Back
Fore
SplineSet
523 766 m 1
 419 845 l 1
 294 766 l 1
 283 780 l 1
 416 869 l 1
 428 869 l 1
 535 780 l 1
 523 766 l 1
403 691 m 0
 477 691 519 668 556 633 c 1
 542 617 l 1
 503 652 468 670 404 670 c 0
 181 670 106 425 106 258 c 0
 106 95 187 12 306 12 c 0
 383 12 429 39 471 71 c 1
 484 53 l 1
 439 18 383 -10 305 -10 c 0
 173 -10 83 83 83 257 c 0
 83 437 166 691 403 691 c 0
EndSplineSet
Substitution2: "'c2sc' Capitals to Small Capitals lookup 27 subtable" ccircumflex.sc
Substitution2: "'aalt' Access All Alternates lookup 0 subtable" ccircumflex.sc
Position2: "'cpsp' Capital Spacing lookup 0 subtable" dx=5 dy=0 dh=10 dv=0
EndChar

StartChar: ccircumflex
Encoding: 265 265 151
Width: 464
GlyphClass: 2
Flags: MW
HStem: -10 21<198.5 274 198.5 276.5> 509 20<243 345> 738 24<353 353>
VStem: 70 23<215 215>
AnchorPoint: "Anchor-11" 247 0 basechar 0
AnchorPoint: "Anchor-10" 0 0 basechar 0
AnchorPoint: "Anchor-9" 319 519 basechar 0
AnchorPoint: "Anchor-8" 0 0 basechar 0
LayerCount: 2
Fore
SplineSet
216 667 m 1
 350 762 l 1
 362 762 l 1
 467 667 l 1
 456 654 l 1
 353 738 l 1
 227 654 l 1
 216 667 l 1
320 529 m 0
 374 529 415 513 449 479 c 1
 435 465 l 1
 406 494 370 509 320 509 c 0
 166 509 99 349 93 215 c 0
 86 81 150 11 247 11 c 0
 301 11 344 30 382 59 c 1
 394 43 l 1
 353 11 305 -10 248 -10 c 0
 134 -10 63 70 70 215 c 0
 77 359 150 529 320 529 c 0
EndSplineSet
Substitution2: "'smcp' Lowercase to Small Capitals lookup 24 subtable" ccircumflex.sc
Substitution2: "'aalt' Access All Alternates lookup 0 subtable" ccircumflex.sc
EndChar

StartChar: Cdotaccent
Encoding: 266 266 19
Width: 538
GlyphClass: 2
Flags: MW
HStem: -10 22<247 344> 670 21<292.5 436> 811 39<416.5 426.5>
VStem: 83 23<176.5 341.5 176.5 347> 401 40
AnchorPoint: "Anchor-11" 304 0 basechar 0
AnchorPoint: "Anchor-10" 0 0 basechar 0
AnchorPoint: "Anchor-9" 401 681 basechar 0
AnchorPoint: "Anchor-8" 0 0 basechar 0
LayerCount: 2
Fore
SplineSet
422 850 m 0
 436 850 443 840 441 829 c 0
 440 819 433 811 420 811 c 0
 407 811 400 820 401 832 c 1
 403 842 411 850 422 850 c 0
403 691 m 0
 477 691 519 668 556 633 c 1
 542 617 l 1
 503 652 468 670 404 670 c 0
 181 670 106 425 106 258 c 0
 106 95 188 12 306 12 c 0
 383 12 429 39 471 71 c 1
 484 53 l 1
 439 18 383 -10 305 -10 c 0
 172 -10 83 83 83 257 c 0
 83 437 166 691 403 691 c 0
EndSplineSet
Substitution2: "'c2sc' Capitals to Small Capitals lookup 23 subtable" cdotaccent.sc
Substitution2: "'aalt' Access All Alternates lookup 0 subtable" cdotaccent.sc
Position2: "'cpsp' Capital Spacing lookup 0 subtable" dx=5 dy=0 dh=10 dv=0
EndChar

StartChar: cdotaccent
Encoding: 267 267 152
Width: 464
GlyphClass: 2
Flags: MW
HStem: -10 21<198.5 274 198.5 276.5> 509 20<243 345> 685 39<339.5 349.5>
VStem: 70 23<215 215> 324 40
AnchorPoint: "Anchor-11" 247 0 basechar 0
AnchorPoint: "Anchor-10" 0 0 basechar 0
AnchorPoint: "Anchor-9" 319 519 basechar 0
AnchorPoint: "Anchor-8" 0 0 basechar 0
LayerCount: 2
Fore
SplineSet
345 724 m 0
 359 724 366 714 364 703 c 0
 363 693 356 685 343 685 c 0
 330 685 323 694 324 706 c 1
 326 716 334 724 345 724 c 0
320 529 m 0
 374 529 415 513 449 479 c 1
 435 465 l 1
 406 494 370 509 320 509 c 0
 166 509 99 349 93 215 c 0
 86 81 150 11 247 11 c 0
 301 11 344 30 382 59 c 1
 394 43 l 1
 353 11 305 -10 248 -10 c 0
 134 -10 63 70 70 215 c 0
 77 359 150 529 320 529 c 0
EndSplineSet
Substitution2: "'smcp' Lowercase to Small Capitals lookup 24 subtable" cdotaccent.sc
Substitution2: "'aalt' Access All Alternates lookup 0 subtable" cdotaccent.sc
EndChar
StartChar: Ccaron
Encoding: 268 268 44
Width: 538
GlyphClass: 2
Flags: MW
HStem: -10 22<246.5 344> 670 21<292.5 436> 760 24<410 410 410 413 401 410>
VStem: 83 23<176.5 341.5 176.5 347>
AnchorPoint: "Anchor-14" 0 0 basechar 0
AnchorPoint: "Anchor-13" 0 0 basechar 0
AnchorPoint: "Anchor-12" 422 863 basechar 0
AnchorPoint: "Anchor-11" 0 0 basechar 0
AnchorPoint: "Anchor-10" 304 0 basechar 0
LayerCount: 2
Back
Fore
SplineSet
535 863 m 1
 545 850 l 1
 413 760 l 1
 401 760 l 1
 294 850 l 1
 306 862 l 1
 410 784 l 1
 535 863 l 1
403 691 m 0
 477 691 519 668 556 633 c 1
 542 617 l 1
 503 652 468 670 404 670 c 0
 181 670 106 425 106 258 c 0
 106 95 187 12 306 12 c 0
 383 12 429 39 471 71 c 1
 484 53 l 1
 439 18 383 -10 305 -10 c 0
 173 -10 83 83 83 257 c 0
 83 437 166 691 403 691 c 0
EndSplineSet
Substitution2: "'c2sc' Capitals to Small Capitals lookup 27 subtable" ccaron.sc
Substitution2: "'aalt' Access All Alternates lookup 0 subtable" ccaron.sc
Position2: "'cpsp' Capital Spacing lookup 0 subtable" dx=5 dy=0 dh=10 dv=0
EndChar
StartChar: ccaron
Encoding: 269 269 382
Width: 463
GlyphClass: 2
Flags: MW
HStem: -10 21<199 273.5 199 275> 509 20<236.5 343.5> 641 24<338 338 338 341 329 338> 716 20G<223 223 475 475>
VStem: 68 23<135 264.5 135 269>
AnchorPoint: "Anchor-14" 0 0 basechar 0
AnchorPoint: "Anchor-13" 0 0 basechar 0
AnchorPoint: "Anchor-12" 351 749 basechar 0
AnchorPoint: "Anchor-11" 0 0 basechar 0
AnchorPoint: "Anchor-10" 246 0 basechar 0
LayerCount: 2
Back
Fore
SplineSet
464 749 m 1
 475 736 l 1
 341 641 l 1
 329 641 l 1
 223 736 l 1
 235 749 l 1
 338 665 l 1
 464 749 l 1
319 529 m 0
 373 529 414 513 448 479 c 1
 434 465 l 1
 405 493 369 509 318 509 c 0
 155 509 91 332 91 197 c 0
 91 73 152 11 246 11 c 0
 301 11 343 30 382 59 c 1
 393 43 l 1
 352 11 305 -10 245 -10 c 0
 139 -10 68 63 68 197 c 0
 68 341 140 529 319 529 c 0
EndSplineSet
Substitution2: "'smcp' Lowercase to Small Capitals lookup 28 subtable" ccaron.sc
Substitution2: "'aalt' Access All Alternates lookup 0 subtable" ccaron.sc
EndChar

StartChar: Dcaron
Encoding: 270 270 22
Width: 619
GlyphClass: 2
Flags: MW
HStem: 0 21<112 213> 660 21<202 202 202 299> 760 24<363 363 363 366 354 363>
VStem: 537 23<335 529.5>
AnchorPoint: "Anchor-11" 0 0 basechar 0
AnchorPoint: "Anchor-10" 0 0 basechar 0
AnchorPoint: "Anchor-9" 354 681 basechar 0
AnchorPoint: "Anchor-8" 0 0 basechar 0
LayerCount: 2
Fore
SplineSet
498 850 m 1
 366 760 l 1
 354 760 l 1
 247 850 l 1
 259 862 l 1
 363 784 l 1
 488 863 l 1
 498 850 l 1
303 681 m 2
 432 681 560 638 560 431 c 0
 560 225 472 0 213 0 c 2
 86 0 l 1
 182 681 l 1
 303 681 l 2
202 660 m 1
 112 21 l 1
 216 21 l 2
 458 21 537 238 537 432 c 0
 537 627 417 660 299 660 c 2
 202 660 l 1
EndSplineSet
Substitution2: "'c2sc' Capitals to Small Capitals lookup 23 subtable" dcaron.sc
Substitution2: "'aalt' Access All Alternates lookup 0 subtable" dcaron.sc
Position2: "'cpsp' Capital Spacing lookup 0 subtable" dx=5 dy=0 dh=10 dv=0
EndChar

StartChar: dcaron
Encoding: 271 271 155
Width: 570
GlyphClass: 2
Flags: MW
HStem: -10 21<183.5 269 183.5 269.5> 0 21G<398 416 398 398> 509 20<231 351> 713 20G<519 519> 716 20G<497 497> 717 20G<616 616>
VStem: 69 23<133.5 255 133.5 257.5>
LayerCount: 2
Fore
SplineSet
639 735 m 1xa6
 593 590 l 1
 577 593 l 1
 616 737 l 1
 639 735 l 1xa6
519 733 m 1xb2
 416 0 l 1
 398 0 l 1x66
 413 130 l 1
 373 59 316 -10 223 -10 c 0
 130 -10 69 64 69 190 c 0
 69 325 130 529 312 529 c 0
 393 529 436 485 457 445 c 1
 497 736 l 1xaa
 519 733 l 1xb2
313 509 m 0
 149 509 92 319 92 191 c 0
 92 76 143 11 224 11 c 0xa6
 314 11 368 81 419 171 c 1
 453 416 l 1
 430 465 389 509 313 509 c 0
EndSplineSet
Substitution2: "'smcp' Lowercase to Small Capitals lookup 24 subtable" dcaron.sc
Substitution2: "'aalt' Access All Alternates lookup 0 subtable" dcaron.sc
EndChar
StartChar: Dcroat
Encoding: 272 272 57
Width: 611
GlyphClass: 2
Flags: MW
HStem: 0 21<104 204> 343 20<41 125 38 128 152 344> 660 21<193 291 193 193>
VStem: 528 23<335 529.5>
AnchorPoint: "Anchor-14" 317 341 basechar 0
AnchorPoint: "Anchor-13" 0 0 basechar 0
AnchorPoint: "Anchor-12" 345 681 basechar 0
AnchorPoint: "Anchor-11" 0 0 basechar 0
AnchorPoint: "Anchor-10" 243 0 basechar 0
LayerCount: 2
Back
Fore
SplineSet
294 681 m 2
 424 681 551 638 551 431 c 0
 551 225 463 0 204 0 c 2
 77 0 l 1
 125 343 l 1
 38 343 l 1
 41 363 l 1
 128 363 l 1
 173 681 l 1
 294 681 l 2
207 21 m 2
 449 21 528 238 528 432 c 0
 528 627 408 660 291 660 c 2
 193 660 l 1
 152 363 l 1
 347 363 l 1
 344 343 l 1
 149 343 l 1
 104 21 l 1
 207 21 l 2
EndSplineSet
Substitution2: "'c2sc' Capitals to Small Capitals lookup 27 subtable" dcroat.sc
Substitution2: "'aalt' Access All Alternates lookup 0 subtable" dcroat.sc
Position2: "'cpsp' Capital Spacing lookup 0 subtable" dx=5 dy=0 dh=10 dv=0
EndChar

StartChar: dcroat
Encoding: 273 273 156
Width: 578
GlyphClass: 2
Flags: MW
HStem: -10 21<187 273 187 273.5> 0 21G<401 420 401 401> 509 20<234.5 355> 629 20<313 486 313 489 511 581 313 508> 629 107<313 501 501 581 501 508> 713 20G<523 523>
VStem: 73 23<133.5 255 133.5 257.5>
LayerCount: 2
Fore
SplineSet
581 629 m 1xb6
 508 629 l 1
 420 0 l 1
 401 0 l 1x76
 416 130 l 1
 377 59 320 -10 227 -10 c 0
 133 -10 73 64 73 190 c 0
 73 325 134 529 316 529 c 0
 397 529 439 485 460 445 c 1
 486 629 l 1
 313 629 l 1
 313 649 l 1
 489 649 l 1xb6
 501 736 l 1xaa
 523 733 l 1
 511 649 l 1
 584 649 l 1
 581 629 l 1xb6
457 416 m 1
 434 465 393 509 317 509 c 0
 152 509 96 319 96 191 c 0
 96 76 146 11 228 11 c 0xb6
 318 11 372 81 422 171 c 1
 457 416 l 1
EndSplineSet
Substitution2: "'smcp' Lowercase to Small Capitals lookup 24 subtable" dcroat.sc
Substitution2: "'aalt' Access All Alternates lookup 0 subtable" dcroat.sc
EndChar

StartChar: Emacron
Encoding: 274 274 32
Width: 494
GlyphClass: 2
Flags: MW
HStem: 0 21<112 414> 349 21<161 413 158 416> 660 21<202 497 202 202> 811 21<260 471 264 467>
VStem: 86 417
AnchorPoint: "Anchor-11" 247 0 basechar 0
AnchorPoint: "Anchor-10" 88 519 basechar 0
AnchorPoint: "Anchor-9" 346 681 basechar 0
AnchorPoint: "Anchor-8" 398 0 basechar 0
LayerCount: 2
Fore
SplineSet
260 811 m 1
 264 832 l 1
 471 832 l 1
 467 811 l 1
 260 811 l 1
497 660 m 1
 202 660 l 1
 161 370 l 1
 416 370 l 1
 413 349 l 1
 158 349 l 1
 112 21 l 1
 418 21 l 1
 414 0 l 1
 86 0 l 1
 182 681 l 1
 503 681 l 1
 497 660 l 1
EndSplineSet
Substitution2: "'c2sc' Capitals to Small Capitals lookup 23 subtable" emacron.sc
Substitution2: "'aalt' Access All Alternates lookup 0 subtable" emacron.sc
Position2: "'cpsp' Capital Spacing lookup 0 subtable" dx=5 dy=0 dh=10 dv=0
EndChar

StartChar: emacron
Encoding: 275 275 165
Width: 521
GlyphClass: 2
Flags: MW
HStem: -10 21<198 275.5 198 277> 214 20 509 20<246.5 361.5> 685 21<233 436 229 440>
VStem: 68 23<133 196 196 214 133 264.5> 449 22<360 440.5>
AnchorPoint: "Anchor-11" 243 0 basechar 0
AnchorPoint: "Anchor-10" 0 0 basechar 0
AnchorPoint: "Anchor-9" 310 519 basechar 0
AnchorPoint: "Anchor-8" 342 6 basechar 0
LayerCount: 2
Fore
SplineSet
436 685 m 1
 229 685 l 1
 233 706 l 1
 440 706 l 1
 436 685 l 1
471 411 m 0
 471 293 337 228 91 214 c 1
 91 196 l 2
 91 70 152 11 244 11 c 0
 307 11 349 31 399 67 c 1
 411 51 l 1
 359 12 310 -10 244 -10 c 0
 134 -10 68 62 68 195 c 0
 68 334 141 529 322 529 c 0
 411 529 471 484 471 411 c 0
322 509 m 0
 171 509 104 358 93 234 c 1
 334 248 449 310 449 410 c 0
 449 471 401 509 322 509 c 0
EndSplineSet
Substitution2: "'smcp' Lowercase to Small Capitals lookup 24 subtable" emacron.sc
Substitution2: "'aalt' Access All Alternates lookup 0 subtable" emacron.sc
EndChar

StartChar: Ebreve
Encoding: 276 276 26
Width: 494
GlyphClass: 2
Flags: MW
HStem: 0 21<112 414> 349 21<161 413 158 416> 660 21<202 497 202 202> 772 20<331.5 381 331.5 383.5>
VStem: 257 15<848 850>
AnchorPoint: "Anchor-11" 247 0 basechar 0
AnchorPoint: "Anchor-10" 88 519 basechar 0
AnchorPoint: "Anchor-9" 346 681 basechar 0
AnchorPoint: "Anchor-8" 398 0 basechar 0
LayerCount: 2
Fore
SplineSet
356 772 m 0
 298 772 261 807 257 848 c 1
 272 850 l 1
 279 817 307 792 356 792 c 0
 406 792 440 819 457 851 c 1
 472 846 l 1
 456 805 411 772 356 772 c 0
497 660 m 1
 202 660 l 1
 161 370 l 1
 416 370 l 1
 413 349 l 1
 158 349 l 1
 112 21 l 1
 418 21 l 1
 414 0 l 1
 86 0 l 1
 182 681 l 1
 503 681 l 1
 497 660 l 1
EndSplineSet
Substitution2: "'c2sc' Capitals to Small Capitals lookup 23 subtable" ebreve.sc
Substitution2: "'aalt' Access All Alternates lookup 0 subtable" ebreve.sc
Position2: "'cpsp' Capital Spacing lookup 0 subtable" dx=5 dy=0 dh=10 dv=0
EndChar

StartChar: ebreve
Encoding: 277 277 159
Width: 521
GlyphClass: 2
Flags: MW
HStem: -10 21<198 275.5 198 277> 214 20 509 20<246.5 361.5> 663 20<306.5 356 306.5 359>
VStem: 68 23<133 196 196 214 133 264.5> 234 16<749 751> 449 22<360 440.5>
AnchorPoint: "Anchor-11" 243 0 basechar 0
AnchorPoint: "Anchor-10" 0 0 basechar 0
AnchorPoint: "Anchor-9" 310 519 basechar 0
AnchorPoint: "Anchor-8" 342 6 basechar 0
LayerCount: 2
Fore
SplineSet
331 663 m 0
 274 663 237 698 234 749 c 1
 250 751 l 1
 256 709 282 683 331 683 c 0
 381 683 417 710 435 752 c 1
 449 748 l 1
 432 697 387 663 331 663 c 0
471 411 m 0
 471 293 337 228 91 214 c 1
 91 196 l 2
 91 70 152 11 244 11 c 0
 307 11 349 31 399 67 c 1
 411 51 l 1
 359 12 310 -10 244 -10 c 0
 134 -10 68 62 68 195 c 0
 68 334 141 529 322 529 c 0
 411 529 471 484 471 411 c 0
322 509 m 0
 171 509 104 358 93 234 c 1
 334 248 449 310 449 410 c 0
 449 471 401 509 322 509 c 0
EndSplineSet
Substitution2: "'smcp' Lowercase to Small Capitals lookup 24 subtable" ebreve.sc
Substitution2: "'aalt' Access All Alternates lookup 0 subtable" ebreve.sc
EndChar
StartChar: Edotaccent
Encoding: 278 278 78
Width: 494
GlyphClass: 2
Flags: MW
HStem: 0 21<112 414> 349 21<161 413 158 416> 660 21<202 497 202 202> 811 39<362.5 372.5>
VStem: 347 40
AnchorPoint: "Anchor-14" 0 0 basechar 0
AnchorPoint: "Anchor-13" 0 0 basechar 0
AnchorPoint: "Anchor-12" 369 850 basechar 0
AnchorPoint: "Anchor-11" 398 0 basechar 0
AnchorPoint: "Anchor-10" 247 0 basechar 0
LayerCount: 2
Back
Fore
SplineSet
368 850 m 0
 382 850 389 840 387 829 c 0
 386 819 379 811 366 811 c 0
 353 811 346 820 347 832 c 0
 349 842 357 850 368 850 c 0
503 681 m 1
 497 660 l 1
 202 660 l 1
 161 370 l 1
 416 370 l 1
 413 349 l 1
 158 349 l 1
 112 21 l 1
 418 21 l 1
 414 0 l 1
 86 0 l 1
 182 681 l 1
 503 681 l 1
EndSplineSet
Substitution2: "'c2sc' Capitals to Small Capitals lookup 27 subtable" edotaccent.sc
Substitution2: "'aalt' Access All Alternates lookup 0 subtable" edotaccent.sc
Position2: "'cpsp' Capital Spacing lookup 0 subtable" dx=5 dy=0 dh=10 dv=0
EndChar
StartChar: edotaccent
Encoding: 279 279 422
Width: 517
GlyphClass: 2
Flags: MW
HStem: -10 21<197 274.5 197 276> 215 19 509 20<245.5 360.5> 685 39<330.5 340.5>
VStem: 67 23<133 196 196 215 133 264.5> 315 40 448 23<359.5 440.5>
AnchorPoint: "Anchor-14" 0 0 basechar 0
AnchorPoint: "Anchor-13" 0 0 basechar 0
AnchorPoint: "Anchor-12" 337 724 basechar 0
AnchorPoint: "Anchor-11" 341 6 basechar 0
AnchorPoint: "Anchor-10" 238 0 basechar 0
LayerCount: 2
Back
Fore
SplineSet
334 685 m 0
 321 685 314 694 315 706 c 0
 317 716 325 724 336 724 c 0
 350 724 357 714 355 703 c 0
 354 693 347 685 334 685 c 0
471 411 m 0
 471 293 336 228 90 215 c 1
 90 196 l 2
 90 70 151 11 243 11 c 0
 306 11 348 31 399 67 c 1
 410 51 l 1
 358 12 309 -10 243 -10 c 0
 133 -10 67 62 67 195 c 0
 67 334 140 529 321 529 c 0
 410 529 471 484 471 411 c 0
321 509 m 0
 170 509 103 358 92 234 c 1
 332 248 448 309 448 410 c 0
 448 471 400 509 321 509 c 0
EndSplineSet
Substitution2: "'smcp' Lowercase to Small Capitals lookup 28 subtable" edotaccent.sc
Substitution2: "'aalt' Access All Alternates lookup 0 subtable" edotaccent.sc
EndChar
StartChar: Eogonek
Encoding: 280 280 84
Width: 494
GlyphClass: 2
Flags: MW
HStem: -203 22<287 315> -196 21G<359 359> 0 21<112 350 389 414 389 389> 349 21<161 413 158 416> 660 21<202 497 202 202>
VStem: 222 24<-143 -102>
AnchorPoint: "Anchor-14" 0 0 basechar 0
AnchorPoint: "Anchor-13" 0 0 basechar 0
AnchorPoint: "Anchor-12" 346 681 basechar 0
AnchorPoint: "Anchor-11" 398 0 basechar 0
AnchorPoint: "Anchor-10" 247 0 basechar 0
LayerCount: 2
Back
Fore
SplineSet
497 660 m 1xbc
 202 660 l 1
 161 370 l 1
 416 370 l 1
 413 349 l 1
 158 349 l 1
 112 21 l 1
 418 21 l 1
 414 0 l 1
 389 0 l 1
 302 -35 246 -69 246 -126 c 0
 246 -160 265 -181 309 -181 c 0xbc
 328 -181 341 -179 364 -174 c 1x7c
 359 -196 l 1
 338 -201 324 -203 306 -203 c 0
 249 -203 222 -175 222 -134 c 0
 222 -70 273 -33 350 0 c 1
 86 0 l 1
 182 681 l 1
 503 681 l 1
 497 660 l 1xbc
EndSplineSet
Substitution2: "'c2sc' Capitals to Small Capitals lookup 27 subtable" eogonek.sc
Substitution2: "'aalt' Access All Alternates lookup 0 subtable" eogonek.sc
Position2: "'cpsp' Capital Spacing lookup 0 subtable" dx=5 dy=0 dh=10 dv=0
EndChar
StartChar: eogonek
Encoding: 281 281 428
Width: 517
GlyphClass: 2
Flags: MW
HStem: -197 22<255 284.5> -10 21<197 247.5> 215 19 509 20<245.5 360.5>
VStem: 67 23<133 196 196 215 133 264.5> 182 24<-133.5 -92> 448 23<359.5 440.5>
AnchorPoint: "Anchor-14" 0 0 basechar 0
AnchorPoint: "Anchor-13" 0 0 basechar 0
AnchorPoint: "Anchor-12" 309 519 basechar 0
AnchorPoint: "Anchor-11" 341 6 basechar 0
AnchorPoint: "Anchor-10" 238 0 basechar 0
LayerCount: 2
Back
Fore
SplineSet
471 411 m 0
 471 293 336 228 90 215 c 1
 90 196 l 2
 90 70 151 11 243 11 c 0
 306 11 348 31 399 67 c 1
 410 51 l 1
 382 30 355 14 326 4 c 0
 258 -26 206 -58 206 -115 c 0
 206 -152 232 -175 278 -175 c 0
 296 -175 310 -173 331 -168 c 1
 329 -190 l 1
 308 -195 294 -197 275 -197 c 0
 212 -197 182 -163 182 -115 c 0
 182 -69 214 -36 267 -9 c 1
 260 -9 252 -10 243 -10 c 0
 133 -10 67 62 67 195 c 0
 67 334 140 529 321 529 c 0
 410 529 471 484 471 411 c 0
321 509 m 0
 170 509 103 358 92 234 c 1
 332 248 448 309 448 410 c 0
 448 471 400 509 321 509 c 0
EndSplineSet
Substitution2: "'smcp' Lowercase to Small Capitals lookup 28 subtable" eogonek.sc
Substitution2: "'aalt' Access All Alternates lookup 0 subtable" eogonek.sc
EndChar

StartChar: Ecaron
Encoding: 282 282 27
Width: 494
GlyphClass: 2
Flags: MW
HStem: 0 21<112 414> 349 21<161 413 158 416> 660 21<202 497 202 202> 760 24<355 355 355 358 346 355>
VStem: 86 417
AnchorPoint: "Anchor-11" 247 0 basechar 0
AnchorPoint: "Anchor-10" 88 519 basechar 0
AnchorPoint: "Anchor-9" 346 681 basechar 0
AnchorPoint: "Anchor-8" 398 0 basechar 0
LayerCount: 2
Fore
SplineSet
490 850 m 1
 358 760 l 1
 346 760 l 1
 239 850 l 1
 251 862 l 1
 355 784 l 1
 480 863 l 1
 490 850 l 1
497 660 m 1
 202 660 l 1
 161 370 l 1
 416 370 l 1
 413 349 l 1
 158 349 l 1
 112 21 l 1
 418 21 l 1
 414 0 l 1
 86 0 l 1
 182 681 l 1
 503 681 l 1
 497 660 l 1
EndSplineSet
Substitution2: "'c2sc' Capitals to Small Capitals lookup 23 subtable" ecaron.sc
Substitution2: "'aalt' Access All Alternates lookup 0 subtable" ecaron.sc
Position2: "'cpsp' Capital Spacing lookup 0 subtable" dx=5 dy=0 dh=10 dv=0
EndChar

StartChar: ecaron
Encoding: 283 283 160
Width: 521
GlyphClass: 2
Flags: MW
HStem: -10 21<198 275.5 198 277> 214 20 509 20<246.5 361.5> 643 24<325 334 334 334 334 337> 718 20G<219 219 471 471>
VStem: 68 23<133 196 196 214 133 264.5> 449 22<360 440.5>
AnchorPoint: "Anchor-11" 243 0 basechar 0
AnchorPoint: "Anchor-10" 0 0 basechar 0
AnchorPoint: "Anchor-9" 310 519 basechar 0
AnchorPoint: "Anchor-8" 342 6 basechar 0
LayerCount: 2
Fore
SplineSet
325 643 m 1
 219 738 l 1
 231 751 l 1
 334 667 l 1
 460 751 l 1
 471 738 l 1
 337 643 l 1
 325 643 l 1
322 529 m 0
 411 529 471 484 471 411 c 0
 471 293 337 228 91 214 c 1
 91 196 l 2
 91 70 152 11 244 11 c 0
 307 11 349 31 399 67 c 1
 411 51 l 1
 359 12 310 -10 244 -10 c 0
 134 -10 68 62 68 195 c 0
 68 334 141 529 322 529 c 0
93 234 m 1
 334 248 449 310 449 410 c 0
 449 471 401 509 322 509 c 0
 171 509 104 358 93 234 c 1
EndSplineSet
Substitution2: "'smcp' Lowercase to Small Capitals lookup 24 subtable" ecaron.sc
Substitution2: "'aalt' Access All Alternates lookup 0 subtable" ecaron.sc
EndChar
StartChar: Gcircumflex
Encoding: 284 284 101
Width: 605
GlyphClass: 2
Flags: MW
HStem: -10 22<251.5 348.5> 333 21<375 520 375 546> 670 21<303 436> 845 24<422 422>
VStem: 83 24<175 353 175 359.5>
AnchorPoint: "Anchor-14" 0 0 basechar 0
AnchorPoint: "Anchor-13" 491 721 basechar 0
AnchorPoint: "Anchor-12" 425 869 basechar 0
AnchorPoint: "Anchor-11" 0 0 basechar 0
AnchorPoint: "Anchor-10" 300 0 basechar 0
LayerCount: 2
Back
Fore
SplineSet
526 766 m 1
 422 845 l 1
 297 766 l 1
 286 780 l 1
 419 869 l 1
 431 869 l 1
 538 780 l 1
 526 766 l 1
405 691 m 0
 472 691 521 672 568 632 c 1
 553 617 l 1
 511 653 467 670 405 670 c 0
 201 670 107 449 107 257 c 0
 107 93 187 12 316 12 c 0
 383 12 433 28 480 53 c 1
 520 333 l 1
 375 333 l 1
 375 354 l 1
 546 354 l 1
 502 40 l 1
 446 10 381 -10 316 -10 c 0
 173 -10 83 82 83 259 c 0
 83 460 189 691 405 691 c 0
EndSplineSet
Substitution2: "'c2sc' Capitals to Small Capitals lookup 27 subtable" gcircumflex.sc
Substitution2: "'aalt' Access All Alternates lookup 0 subtable" gcircumflex.sc
Position2: "'cpsp' Capital Spacing lookup 0 subtable" dx=5 dy=0 dh=10 dv=0
EndChar

StartChar: gcircumflex
Encoding: 285 285 170
Width: 553
GlyphClass: 2
Flags: MW
HStem: -197 19<176.5 251 176.5 255.5> 0 21<185 262> 510 19<239.5 353> 738 24<350 350>
VStem: 68 23<200 200>
AnchorPoint: "Anchor-11" 0 0 basechar 0
AnchorPoint: "Anchor-10" 0 0 basechar 0
AnchorPoint: "Anchor-9" 315 519 basechar 0
AnchorPoint: "Anchor-8" 0 0 basechar 0
LayerCount: 2
Fore
SplineSet
213 667 m 1
 347 762 l 1
 359 762 l 1
 464 667 l 1
 453 654 l 1
 350 738 l 1
 224 654 l 1
 213 667 l 1
328 529 m 0
 393 529 434 511 473 488 c 1
 402 -5 l 2
 381 -151 302 -197 209 -197 c 0
 140 -197 85 -173 45 -150 c 1
 54 -134 l 1
 95 -156 143 -178 210 -178 c 0
 292 -178 362 -135 380 -7 c 2
 397 108 l 1
 356 41 296 0 228 0 c 0
 128 0 69 80 68 200 c 0
 67 334 135 529 328 529 c 0
328 510 m 0
 151 510 90 325 91 201 c 0
 92 91 141 21 229 21 c 0
 298 21 356 64 402 144 c 1
 451 477 l 1
 420 497 378 510 328 510 c 0
EndSplineSet
Substitution2: "'smcp' Lowercase to Small Capitals lookup 24 subtable" gcircumflex.sc
Substitution2: "'aalt' Access All Alternates lookup 0 subtable" gcircumflex.sc
EndChar

StartChar: Gbreve
Encoding: 286 286 36
Width: 605
GlyphClass: 2
Flags: MW
HStem: -10 22<251.5 348.5> 333 21<375 520 375 546> 670 21<303 436> 772 20<389.5 439 389.5 441.5>
VStem: 83 24<175 353 175 359.5> 315 15<848 850>
AnchorPoint: "Anchor-11" 300 0 basechar 0
AnchorPoint: "Anchor-10" 0 0 basechar 0
AnchorPoint: "Anchor-9" 404 681 basechar 0
AnchorPoint: "Anchor-8" 0 0 basechar 0
LayerCount: 2
Fore
SplineSet
414 772 m 0
 356 772 319 807 315 848 c 1
 330 850 l 1
 337 817 365 792 414 792 c 0
 464 792 498 819 515 851 c 1
 530 846 l 1
 514 805 469 772 414 772 c 0
405 691 m 0
 472 691 521 672 568 632 c 1
 553 617 l 1
 511 653 467 670 405 670 c 0
 201 670 107 449 107 257 c 0
 107 93 187 12 316 12 c 0
 383 12 433 28 480 53 c 1
 520 333 l 1
 375 333 l 1
 375 354 l 1
 546 354 l 1
 502 40 l 1
 446 10 381 -10 316 -10 c 0
 173 -10 83 82 83 259 c 0
 83 460 189 691 405 691 c 0
EndSplineSet
Substitution2: "'c2sc' Capitals to Small Capitals lookup 23 subtable" gbreve.sc
Substitution2: "'aalt' Access All Alternates lookup 0 subtable" gbreve.sc
Position2: "'cpsp' Capital Spacing lookup 0 subtable" dx=5 dy=0 dh=10 dv=0
EndChar
StartChar: gbreve
Encoding: 287 287 453
Width: 554
GlyphClass: 2
Flags: MW
HStem: -197 19<176.5 251 176.5 255.5> 0 21<185 262> 510 19<239.5 353> 662 22<310.5 358 310.5 363>
VStem: 68 23<200 200> 236 17<749 751>
AnchorPoint: "Anchor-14" 0 0 basechar 0
AnchorPoint: "Anchor-13" 0 0 basechar 0
AnchorPoint: "Anchor-12" 347 753 basechar 0
AnchorPoint: "Anchor-11" 0 0 basechar 0
AnchorPoint: "Anchor-10" 209 -192 basechar 0
LayerCount: 2
Back
Fore
SplineSet
334 662 m 0
 275 662 239 699 236 749 c 1
 253 751 l 1
 259 707 287 684 334 684 c 0
 382 684 419 709 437 753 c 1
 453 747 l 1
 436 698 392 662 334 662 c 0
328 529 m 0
 393 529 434 511 473 488 c 1
 402 -5 l 2
 381 -151 302 -197 209 -197 c 0
 140 -197 85 -173 45 -150 c 1
 54 -134 l 1
 95 -156 143 -178 210 -178 c 0
 292 -178 362 -135 380 -7 c 2
 397 108 l 1
 356 41 296 0 228 0 c 0
 128 0 69 80 68 200 c 0
 67 334 135 529 328 529 c 0
328 510 m 0
 151 510 90 325 91 201 c 0
 92 91 141 21 229 21 c 0
 298 21 356 64 402 144 c 1
 450 477 l 1
 418 497 378 510 328 510 c 0
EndSplineSet
Substitution2: "'smcp' Lowercase to Small Capitals lookup 28 subtable" gbreve.sc
Substitution2: "'aalt' Access All Alternates lookup 0 subtable" gbreve.sc
EndChar
StartChar: Gdotaccent
Encoding: 288 288 103
Width: 605
GlyphClass: 2
Flags: MW
HStem: -10 22<251.5 348.5> 333 21<375 520 375 546> 670 21<303 436> 811 39<420.5 430.5>
VStem: 83 24<175 353 175 359.5> 405 40
AnchorPoint: "Anchor-14" 0 0 basechar 0
AnchorPoint: "Anchor-13" 0 0 basechar 0
AnchorPoint: "Anchor-12" 427 850 basechar 0
AnchorPoint: "Anchor-11" 0 0 basechar 0
AnchorPoint: "Anchor-10" 300 0 basechar 0
LayerCount: 2
Back
Fore
SplineSet
426 850 m 0
 440 850 447 840 445 829 c 0
 444 819 437 811 424 811 c 0
 411 811 404 820 405 832 c 0
 407 842 415 850 426 850 c 0
405 691 m 0
 472 691 521 672 568 632 c 1
 553 617 l 1
 511 653 467 670 405 670 c 0
 201 670 107 449 107 257 c 0
 107 93 187 12 316 12 c 0
 383 12 433 28 480 53 c 1
 520 333 l 1
 375 333 l 1
 375 354 l 1
 546 354 l 1
 502 40 l 1
 446 10 381 -10 316 -10 c 0
 173 -10 83 82 83 259 c 0
 83 460 189 691 405 691 c 0
EndSplineSet
Substitution2: "'c2sc' Capitals to Small Capitals lookup 27 subtable" gdotaccent.sc
Substitution2: "'aalt' Access All Alternates lookup 0 subtable" gdotaccent.sc
Position2: "'cpsp' Capital Spacing lookup 0 subtable" dx=5 dy=0 dh=10 dv=0
EndChar

StartChar: gdotaccent
Encoding: 289 289 172
Width: 553
GlyphClass: 2
Flags: MW
HStem: -197 19<176.5 251 176.5 255.5> 0 21<185 262> 510 19<239.5 353> 685 39<335.5 345.5>
VStem: 68 23<200 200> 320 40
AnchorPoint: "Anchor-11" 0 0 basechar 0
AnchorPoint: "Anchor-10" 0 0 basechar 0
AnchorPoint: "Anchor-9" 315 519 basechar 0
AnchorPoint: "Anchor-8" 0 0 basechar 0
LayerCount: 2
Fore
SplineSet
341 724 m 0
 355 724 362 714 360 703 c 0
 359 693 352 685 339 685 c 0
 326 685 319 694 320 706 c 1
 322 716 330 724 341 724 c 0
328 529 m 0
 393 529 434 511 473 488 c 1
 402 -5 l 2
 381 -151 302 -197 209 -197 c 0
 140 -197 85 -173 45 -150 c 1
 54 -134 l 1
 95 -156 143 -178 210 -178 c 0
 292 -178 362 -135 380 -7 c 2
 397 108 l 1
 356 41 296 0 228 0 c 0
 128 0 69 80 68 200 c 0
 67 334 135 529 328 529 c 0
328 510 m 0
 151 510 90 325 91 201 c 0
 92 91 141 21 229 21 c 0
 298 21 356 64 402 144 c 1
 451 477 l 1
 420 497 378 510 328 510 c 0
EndSplineSet
Substitution2: "'smcp' Lowercase to Small Capitals lookup 24 subtable" gdotaccent.sc
Substitution2: "'aalt' Access All Alternates lookup 0 subtable" gdotaccent.sc
EndChar

StartChar: Gcommaaccent
Encoding: 290 290 38
Width: 605
GlyphClass: 2
Flags: MW
HStem: -10 22<251.5 348.5> 333 21<375 520 375 546> 670 21<303 436>
VStem: 83 24<175 353 175 359.5> 260 49<-123.5 -114>
AnchorPoint: "Anchor-11" 300 0 basechar 0
AnchorPoint: "Anchor-10" 0 0 basechar 0
AnchorPoint: "Anchor-9" 404 681 basechar 0
AnchorPoint: "Anchor-8" 0 0 basechar 0
LayerCount: 2
Fore
SplineSet
405 691 m 0
 472 691 521 672 568 632 c 1
 553 617 l 1
 511 653 467 670 405 670 c 0
 201 670 107 449 107 257 c 0
 107 93 187 12 316 12 c 0
 383 12 433 28 480 53 c 1
 520 333 l 1
 375 333 l 1
 375 354 l 1
 546 354 l 1
 502 40 l 1
 446 10 381 -10 316 -10 c 0
 173 -10 83 82 83 259 c 0
 83 460 189 691 405 691 c 0
286 -96 m 0
 300 -96 309 -105 309 -117 c 0
 309 -130 304 -138 290 -164 c 2
 241 -258 l 1
 226 -258 l 1
 274 -142 l 1
 264 -138 260 -129 260 -121 c 0
 260 -107 270 -96 286 -96 c 0
EndSplineSet
Substitution2: "'c2sc' Capitals to Small Capitals lookup 23 subtable" gcommaaccent.sc
Substitution2: "'aalt' Access All Alternates lookup 0 subtable" gcommaaccent.sc
Position2: "'cpsp' Capital Spacing lookup 0 subtable" dx=5 dy=0 dh=10 dv=0
EndChar

StartChar: gcommaaccent
Encoding: 291 291 171
Width: 553
GlyphClass: 2
Flags: MW
HStem: -197 19<176.5 251 176.5 255.5> 0 21<185 262> 510 19<239.5 353>
VStem: 68 23<200 200> 305 49<633 642.5>
AnchorPoint: "Anchor-11" 0 0 basechar 0
AnchorPoint: "Anchor-10" 0 0 basechar 0
AnchorPoint: "Anchor-9" 315 519 basechar 0
AnchorPoint: "Anchor-8" 0 0 basechar 0
LayerCount: 2
Fore
SplineSet
328 615 m 0
 314 615 305 624 305 636 c 0
 305 649 310 657 324 683 c 2
 373 777 l 1
 388 777 l 1
 340 661 l 1
 350 657 354 648 354 640 c 0
 354 626 344 615 328 615 c 0
328 529 m 0
 393 529 434 511 473 488 c 1
 402 -5 l 2
 381 -151 302 -197 209 -197 c 0
 140 -197 85 -173 45 -150 c 1
 54 -134 l 1
 95 -156 143 -178 210 -178 c 0
 292 -178 362 -135 380 -7 c 2
 397 108 l 1
 356 41 296 0 228 0 c 0
 128 0 69 80 68 200 c 0
 67 334 135 529 328 529 c 0
328 510 m 0
 151 510 90 325 91 201 c 0
 92 91 141 21 229 21 c 0
 298 21 356 64 402 144 c 1
 451 477 l 1
 420 497 378 510 328 510 c 0
EndSplineSet
Substitution2: "'smcp' Lowercase to Small Capitals lookup 24 subtable" gcommaaccent.sc
Substitution2: "'aalt' Access All Alternates lookup 0 subtable" gcommaaccent.sc
EndChar

StartChar: Hcircumflex
Encoding: 292 292 42
Width: 660
GlyphClass: 2
Flags: MW
HStem: 0 21G<86 109 86 86 477 477 477 500> 351 21<161 527 158 530> 661 20G<182 205 205 205 573 596 596 596> 845 24<416 416>
VStem: 86 510
AnchorPoint: "Anchor-11" 0 0 basechar 0
AnchorPoint: "Anchor-10" 88 519 basechar 0
AnchorPoint: "Anchor-9" 387 681 basechar 0
AnchorPoint: "Anchor-8" 0 0 basechar 0
LayerCount: 2
Fore
SplineSet
416 845 m 1
 291 766 l 1
 280 780 l 1
 413 869 l 1
 425 869 l 1
 532 780 l 1
 520 766 l 1
 416 845 l 1
527 351 m 1
 158 351 l 1
 109 0 l 1
 86 0 l 1
 182 681 l 1
 205 681 l 1
 161 372 l 1
 530 372 l 1
 573 681 l 1
 596 681 l 1
 500 0 l 1
 477 0 l 1
 527 351 l 1
EndSplineSet
Substitution2: "'c2sc' Capitals to Small Capitals lookup 23 subtable" hcircumflex.sc
Substitution2: "'aalt' Access All Alternates lookup 0 subtable" hcircumflex.sc
Position2: "'cpsp' Capital Spacing lookup 0 subtable" dx=5 dy=0 dh=10 dv=0
EndChar
StartChar: hcircumflex
Encoding: 293 293 471
Width: 581
GlyphClass: 2
Flags: MW
HStem: 0 21G<81 103 81 81 410 432 410 410> 510 19<328 405.5> 716 20G<207 207> 896 24<369 369>
VStem: 464.84 22
AnchorPoint: "Anchor-14" 292 260 basechar 0
AnchorPoint: "Anchor-13" 438 772 basechar 0
AnchorPoint: "Anchor-12" 372 920 basechar 0
AnchorPoint: "Anchor-11" 0 0 basechar 0
AnchorPoint: "Anchor-10" 257 0 basechar 0
LayerCount: 2
Back
Fore
SplineSet
473 817 m 1
 369 896 l 1
 244 817 l 1
 233 831 l 1
 366 920 l 1
 378 920 l 1
 485 831 l 1
 473 817 l 1
369 529 m 0
 461 529 498 470 484 369 c 2
 432 0 l 1
 410 0 l 1
 462 367 l 2
 475 462 445 510 366 510 c 0
 280 510 211 437 148 315 c 1
 103 0 l 1
 81 0 l 1
 185 733 l 1
 207 736 l 1
 154 359 l 1
 211 472 287 529 369 529 c 0
EndSplineSet
Substitution2: "'smcp' Lowercase to Small Capitals lookup 28 subtable" hcircumflex.sc
Substitution2: "'aalt' Access All Alternates lookup 0 subtable" hcircumflex.sc
EndChar

StartChar: Hbar
Encoding: 294 294 41
Width: 657
GlyphClass: 2
Flags: MW
HStem: 0 21G<88 111 88 88 479 502 479 479> 351 21<163 529 160 532> 520 18<105 161 102 164 187 553 578 631> 520 161<102 207 102 207 184 207 184 207 184 553 575 598>
VStem: 88 546<0 538>
AnchorPoint: "Anchor-11" 0 0 basechar 0
AnchorPoint: "Anchor-10" 90 519 basechar 0
AnchorPoint: "Anchor-9" 389 681 basechar 0
AnchorPoint: "Anchor-8" 0 0 basechar 0
LayerCount: 2
Fore
SplineSet
631 520 m 1xe8
 575 520 l 1
 502 0 l 1
 479 0 l 1
 529 351 l 1
 160 351 l 1
 111 0 l 1
 88 0 l 1
 161 520 l 1
 102 520 l 1
 105 538 l 1
 164 538 l 1xe8
 184 681 l 1
 207 681 l 1xd8
 187 538 l 1
 555 538 l 1xe8
 575 681 l 1
 598 681 l 1xd8
 578 538 l 1
 634 538 l 1
 631 520 l 1xe8
553 520 m 1
 184 520 l 1
 163 372 l 1
 532 372 l 1
 553 520 l 1
EndSplineSet
Substitution2: "'c2sc' Capitals to Small Capitals lookup 23 subtable" hbar.sc
Substitution2: "'aalt' Access All Alternates lookup 0 subtable" hbar.sc
Position2: "'cpsp' Capital Spacing lookup 0 subtable" dx=5 dy=0 dh=10 dv=0
EndChar

StartChar: Itilde
Encoding: 296 296 53
Width: 268
GlyphClass: 2
Flags: MW
HStem: 0 21G<86 109 86 86> 661 20G<182 205 205 205> 805 18<249.5 282.5 249.5 285.5> 848 19<159 159>
VStem: 81 268<821 857>
AnchorPoint: "Anchor-11" 0 0 basechar 0
AnchorPoint: "Anchor-10" 88 519 basechar 0
AnchorPoint: "Anchor-9" 193 681 basechar 0
AnchorPoint: "Anchor-8" 119 0 basechar 0
LayerCount: 2
Fore
SplineSet
273 805 m 0
 220 805 196 849 159 848 c 0
 130 847 118 837 93 812 c 1
 81 821 l 1
 106 851 129 867 159 867 c 0xf8
 198 867 228 823 271 823 c 0
 294 823 311 835 336 866 c 1
 349 857 l 1
 322 819 298 805 273 805 c 0
109 0 m 1
 86 0 l 1
 182 681 l 1
 205 681 l 1
 109 0 l 1
EndSplineSet
Substitution2: "'c2sc' Capitals to Small Capitals lookup 23 subtable" itilde.sc
Substitution2: "'aalt' Access All Alternates lookup 0 subtable" itilde.sc
Position2: "'cpsp' Capital Spacing lookup 0 subtable" dx=5 dy=0 dh=10 dv=0
EndChar

StartChar: itilde
Encoding: 297 297 187
Width: 258
GlyphClass: 2
Flags: MW
HStem: 0 21G<81 103 81 81> 499 20G<155 177 177 177> 679 18<227.5 260.5 227.5 263.5> 711 20G<327 327> 722 19<137 137>
VStem: 59 268<695 731>
AnchorPoint: "Anchor-11" 0 0 basechar 0
AnchorPoint: "Anchor-10" 0 0 basechar 0
AnchorPoint: "Anchor-9" 166 519 basechar 0
AnchorPoint: "Anchor-8" 113 0 basechar 0
LayerCount: 2
Fore
SplineSet
251 679 m 0xf4
 198 679 174 723 137 722 c 0
 108 721 96 711 71 686 c 1
 59 695 l 1
 84 725 107 741 137 741 c 0xcc
 176 741 206 697 249 697 c 0
 272 697 289 709 314 740 c 1
 327 731 l 1
 300 693 276 679 251 679 c 0xf4
103 0 m 1xcc
 81 0 l 1
 155 519 l 1
 177 519 l 1
 103 0 l 1xcc
EndSplineSet
Substitution2: "'smcp' Lowercase to Small Capitals lookup 24 subtable" itilde.sc
Substitution2: "'aalt' Access All Alternates lookup 0 subtable" itilde.sc
EndChar

StartChar: Imacron
Encoding: 298 298 51
Width: 268
GlyphClass: 2
Flags: MW
HStem: 0 21G<86 109 86 86> 661 20G<182 205 205 205> 811 21<107 318 111 314>
VStem: 86 232
AnchorPoint: "Anchor-11" 0 0 basechar 0
AnchorPoint: "Anchor-10" 88 519 basechar 0
AnchorPoint: "Anchor-9" 193 681 basechar 0
AnchorPoint: "Anchor-8" 119 0 basechar 0
LayerCount: 2
Fore
SplineSet
107 811 m 1
 111 832 l 1
 318 832 l 1
 314 811 l 1
 107 811 l 1
109 0 m 1
 86 0 l 1
 182 681 l 1
 205 681 l 1
 109 0 l 1
EndSplineSet
Substitution2: "'c2sc' Capitals to Small Capitals lookup 23 subtable" imacron.sc
Substitution2: "'aalt' Access All Alternates lookup 0 subtable" imacron.sc
Position2: "'cpsp' Capital Spacing lookup 0 subtable" dx=5 dy=0 dh=10 dv=0
EndChar

StartChar: imacron
Encoding: 299 299 185
Width: 258
GlyphClass: 2
Flags: MW
HStem: 0 21G<81 103 81 81> 499 20G<155 177 177 177> 685 21<84 295 88 291>
VStem: 81 214
AnchorPoint: "Anchor-11" 0 0 basechar 0
AnchorPoint: "Anchor-10" 0 0 basechar 0
AnchorPoint: "Anchor-9" 166 519 basechar 0
AnchorPoint: "Anchor-8" 113 0 basechar 0
LayerCount: 2
Fore
SplineSet
84 685 m 1
 88 706 l 1
 295 706 l 1
 291 685 l 1
 84 685 l 1
103 0 m 1
 81 0 l 1
 155 519 l 1
 177 519 l 1
 103 0 l 1
EndSplineSet
Substitution2: "'smcp' Lowercase to Small Capitals lookup 24 subtable" imacron.sc
Substitution2: "'aalt' Access All Alternates lookup 0 subtable" imacron.sc
EndChar
StartChar: Ibreve
Encoding: 300 300 118
Width: 268
GlyphClass: 2
Flags: MW
HStem: 0 21G<86 109 86 86> 661 20G<182 205 205 205> 772 20<179.5 229 179.5 231.5>
VStem: 105 15<848 850>
AnchorPoint: "Anchor-14" 0 0 basechar 0
AnchorPoint: "Anchor-13" 0 0 basechar 0
AnchorPoint: "Anchor-12" 214 851 basechar 0
AnchorPoint: "Anchor-11" 111 0 basechar 0
AnchorPoint: "Anchor-10" 98 0 basechar 0
LayerCount: 2
Back
Fore
SplineSet
204 772 m 0
 146 772 109 807 105 848 c 1
 120 850 l 1
 127 817 155 792 204 792 c 0
 254 792 288 819 305 851 c 1
 320 846 l 1
 304 805 259 772 204 772 c 0
205 681 m 1
 109 0 l 1
 86 0 l 1
 182 681 l 1
 205 681 l 1
EndSplineSet
Substitution2: "'c2sc' Capitals to Small Capitals lookup 27 subtable" ibreve.sc
Substitution2: "'aalt' Access All Alternates lookup 0 subtable" ibreve.sc
Position2: "'cpsp' Capital Spacing lookup 0 subtable" dx=5 dy=0 dh=10 dv=0
EndChar
StartChar: ibreve
Encoding: 301 301 480
Width: 258
GlyphClass: 2
Flags: MW
HStem: 0 21G<81 103 81 81> 499 20G<155 177 177 177> 662 22<161.5 209 161.5 214>
VStem: 87 17<749 751>
AnchorPoint: "Anchor-14" 0 0 basechar 0
AnchorPoint: "Anchor-13" 0 0 basechar 0
AnchorPoint: "Anchor-12" 198 753 basechar 0
AnchorPoint: "Anchor-11" 106 0 basechar 0
AnchorPoint: "Anchor-10" 92 0 basechar 0
LayerCount: 2
Back
Fore
SplineSet
185 662 m 0
 126 662 90 699 87 749 c 1
 104 751 l 1
 110 707 138 684 185 684 c 0
 233 684 270 709 288 753 c 1
 304 747 l 1
 287 698 243 662 185 662 c 0
177 519 m 1
 103 0 l 1
 81 0 l 1
 155 519 l 1
 177 519 l 1
EndSplineSet
Substitution2: "'smcp' Lowercase to Small Capitals lookup 28 subtable" ibreve.sc
Substitution2: "'aalt' Access All Alternates lookup 0 subtable" ibreve.sc
EndChar

StartChar: Iogonek
Encoding: 302 302 52
Width: 268
GlyphClass: 2
Flags: MW
HStem: -203 22<8 36> -196 21G<80 80> 661 20G<182 205 205 205>
VStem: -57 24<-143 -99.5>
AnchorPoint: "Anchor-11" 0 0 basechar 0
AnchorPoint: "Anchor-10" 88 519 basechar 0
AnchorPoint: "Anchor-9" 193 681 basechar 0
AnchorPoint: "Anchor-8" 119 0 basechar 0
LayerCount: 2
Fore
SplineSet
110 0 m 1xb0
 23 -35 -33 -69 -33 -126 c 0
 -33 -160 -14 -181 30 -181 c 0xb0
 49 -181 62 -179 85 -174 c 1x70
 80 -196 l 1
 59 -201 45 -203 27 -203 c 0
 -30 -203 -57 -175 -57 -134 c 0
 -57 -65 1 -28 87 7 c 1
 182 681 l 1
 205 681 l 1
 109 1 l 1
 110 0 l 1xb0
EndSplineSet
Substitution2: "'c2sc' Capitals to Small Capitals lookup 23 subtable" iogonek.sc
Substitution2: "'aalt' Access All Alternates lookup 0 subtable" iogonek.sc
Position2: "'cpsp' Capital Spacing lookup 0 subtable" dx=5 dy=0 dh=10 dv=0
EndChar
StartChar: iogonek
Encoding: 303 303 493
Width: 258
GlyphClass: 2
Flags: MW
HStem: -203 22<-5 23> -196 21G<67 67> 0 21G<97 103 97 97> 499 20G<155 177 177 177> 685 39<187.5 197.5>
VStem: -70 24<-143 -98.5> 172 40
AnchorPoint: "Anchor-14" 0 0 basechar 0
AnchorPoint: "Anchor-13" 0 0 basechar 0
AnchorPoint: "Anchor-12" 194 724 basechar 0
AnchorPoint: "Anchor-11" 106 0 basechar 0
AnchorPoint: "Anchor-10" 92 0 basechar 0
LayerCount: 2
Back
Fore
SplineSet
193 724 m 0xbe
 207 724 214 714 212 703 c 0
 211 693 204 685 191 685 c 0
 178 685 171 694 172 706 c 0
 174 716 182 724 193 724 c 0xbe
83 10 m 1
 155 519 l 1
 177 519 l 1
 103 0 l 1
 97 0 l 1
 10 -35 -46 -69 -46 -126 c 0
 -46 -160 -27 -181 17 -181 c 0xbe
 36 -181 49 -179 72 -174 c 1x7e
 67 -196 l 1
 46 -201 32 -203 14 -203 c 0
 -43 -203 -70 -175 -70 -134 c 0
 -70 -63 -8 -26 83 10 c 1
EndSplineSet
Substitution2: "'smcp' Lowercase to Small Capitals lookup 28 subtable" iogonek.sc
Substitution2: "'aalt' Access All Alternates lookup 0 subtable" iogonek.sc
EndChar

StartChar: Idotaccent
Encoding: 304 304 49
Width: 268
GlyphClass: 2
Flags: MW
HStem: 0 21G<86 109 86 86> 661 20G<182 205 205 205> 811 39<208.5 218.5>
VStem: 193 40
AnchorPoint: "Anchor-11" 0 0 basechar 0
AnchorPoint: "Anchor-10" 88 519 basechar 0
AnchorPoint: "Anchor-9" 193 681 basechar 0
AnchorPoint: "Anchor-8" 119 0 basechar 0
LayerCount: 2
Fore
SplineSet
214 850 m 0
 228 850 235 840 233 829 c 0
 232 819 225 811 212 811 c 0
 199 811 192 820 193 832 c 1
 195 842 203 850 214 850 c 0
109 0 m 1
 86 0 l 1
 182 681 l 1
 205 681 l 1
 109 0 l 1
EndSplineSet
Substitution2: "'c2sc' Capitals to Small Capitals lookup 23 subtable" i.sc.loclTRK
Substitution2: "'aalt' Access All Alternates lookup 0 subtable" i.sc.loclTRK
Position2: "'cpsp' Capital Spacing lookup 0 subtable" dx=5 dy=0 dh=10 dv=0
EndChar

StartChar: dotlessi
Encoding: 305 305 177
Width: 258
GlyphClass: 2
Flags: MW
HStem: 0 21G<81 103 81 81> 499 20G<155 177 177 177>
VStem: 81 96
AnchorPoint: "Anchor-11" 0 0 basechar 0
AnchorPoint: "Anchor-10" 0 0 basechar 0
AnchorPoint: "Anchor-9" 166 519 basechar 0
AnchorPoint: "Anchor-8" 113 0 basechar 0
LayerCount: 2
Fore
SplineSet
103 0 m 1
 81 0 l 1
 155 519 l 1
 177 519 l 1
 103 0 l 1
EndSplineSet
Substitution2: "'smcp' Lowercase to Small Capitals lookup 24 subtable" dotlessi.sc
Substitution2: "'aalt' Access All Alternates lookup 0 subtable" dotlessi.sc
EndChar

StartChar: IJ
Encoding: 306 306 44
Width: 546
GlyphClass: 2
Flags: MW
HStem: 0 21G<86 109 86 86> 661 20G<182 205 205 205 465 488 488 488>
VStem: 86 402
AnchorPoint: "Anchor-11" 0 0 basechar 0
AnchorPoint: "Anchor-10" 88 519 basechar 0
AnchorPoint: "Anchor-9" 475 681 basechar 0
AnchorPoint: "Anchor-8" 119 0 basechar 0
LayerCount: 2
Fore
SplineSet
109 0 m 1
 86 0 l 1
 182 681 l 1
 205 681 l 1
 109 0 l 1
405 87 m 1
 390 -13 363 -53 248 -100 c 1
 242 -83 l 1
 341 -40 369 -3 382 90 c 2
 465 681 l 1
 488 681 l 1
 405 87 l 1
EndSplineSet
Substitution2: "'c2sc' Capitals to Small Capitals lookup 23 subtable" ij.sc
Substitution2: "'aalt' Access All Alternates lookup 0 subtable" ij.sc
Position2: "'cpsp' Capital Spacing lookup 0 subtable" dx=5 dy=0 dh=10 dv=0
EndChar
StartChar: ij
Encoding: 307 307 491
Width: 516
GlyphClass: 2
Flags: MW
HStem: -195 21G<223 223> 0 21G<81 103 81 81> 499 20G<155 177 177 177 413 435 435 435> 685 39<187.5 197.5 445.5 455.5>
VStem: 172 40 430 40
AnchorPoint: "Anchor-14" 0 0 basechar 0
AnchorPoint: "Anchor-13" 0 0 basechar 0
AnchorPoint: "Anchor-12" 452 724 basechar 0
AnchorPoint: "Anchor-11" 106 0 basechar 0
AnchorPoint: "Anchor-10" 321 -192 basechar 0
LayerCount: 2
Back
Fore
SplineSet
193 724 m 0
 207 724 214 714 212 703 c 0
 211 693 204 685 191 685 c 0
 178 685 171 694 172 706 c 0
 174 716 182 724 193 724 c 0
451 724 m 0
 465 724 472 714 470 703 c 0
 469 693 462 685 449 685 c 0
 436 685 429 694 430 706 c 0
 432 716 440 724 451 724 c 0
177 519 m 1
 103 0 l 1
 81 0 l 1
 155 519 l 1
 177 519 l 1
435 519 m 1
 363 5 l 2
 345 -123 306 -155 223 -195 c 1
 217 -178 l 1
 291 -142 325 -110 341 7 c 2
 413 519 l 1
 435 519 l 1
EndSplineSet
Substitution2: "'smcp' Lowercase to Small Capitals lookup 28 subtable" ij.sc
Substitution2: "'aalt' Access All Alternates lookup 0 subtable" ij.sc
EndChar
StartChar: Jcircumflex
Encoding: 308 308 135
Width: 278
GlyphClass: 2
Flags: MW
HStem: 661 20G<197 220 220 220> 845 24<225 225>
VStem: -26 367
AnchorPoint: "Anchor-14" 0 0 basechar 0
AnchorPoint: "Anchor-13" 294 721 basechar 0
AnchorPoint: "Anchor-12" 228 869 basechar 0
AnchorPoint: "Anchor-11" 0 0 basechar 0
AnchorPoint: "Anchor-10" 0 0 basechar 0
LayerCount: 2
Back
Fore
SplineSet
329 766 m 1
 225 845 l 1
 100 766 l 1
 89 780 l 1
 222 869 l 1
 234 869 l 1
 341 780 l 1
 329 766 l 1
220 681 m 1
 137 87 l 2
 122 -13 95 -53 -20 -100 c 1
 -26 -83 l 1
 73 -40 101 -3 114 90 c 2
 197 681 l 1
 220 681 l 1
EndSplineSet
Substitution2: "'c2sc' Capitals to Small Capitals lookup 27 subtable" jcircumflex.sc
Substitution2: "'aalt' Access All Alternates lookup 0 subtable" jcircumflex.sc
Position2: "'cpsp' Capital Spacing lookup 0 subtable" dx=5 dy=0 dh=10 dv=0
EndChar
StartChar: jcircumflex
Encoding: 309 309 500
Width: 258
GlyphClass: 2
Flags: MW
HStem: -195 21G<-35 -35> 499 20G<155 177 177 177> 738 24<196 196>
VStem: -41 351
AnchorPoint: "Anchor-14" 0 0 basechar 0
AnchorPoint: "Anchor-13" 0 0 basechar 0
AnchorPoint: "Anchor-12" 199 762 basechar 0
AnchorPoint: "Anchor-11" 0 0 basechar 0
AnchorPoint: "Anchor-10" 63 -192 basechar 0
LayerCount: 2
Back
Fore
SplineSet
70 654 m 1
 59 667 l 1
 193 762 l 1
 205 762 l 1
 310 667 l 1
 299 654 l 1
 196 738 l 1
 70 654 l 1
177 519 m 1
 105 5 l 2
 87 -123 48 -155 -35 -195 c 1
 -41 -178 l 1
 33 -142 67 -110 83 7 c 2
 155 519 l 1
 177 519 l 1
EndSplineSet
Substitution2: "'smcp' Lowercase to Small Capitals lookup 28 subtable" jcircumflex.sc
Substitution2: "'aalt' Access All Alternates lookup 0 subtable" jcircumflex.sc
EndChar
StartChar: Kcommaaccent
Encoding: 310 310 139
Width: 510
GlyphClass: 2
Flags: MW
HStem: 0 21G<86 109 86 86 442 442 442 469> 661 20G<182 205 205 205 520 549 549 549>
VStem: 86 463 218 49<-123.5 -114>
AnchorPoint: "Anchor-14" 0 0 basechar 0
AnchorPoint: "Anchor-13" 0 0 basechar 0
AnchorPoint: "Anchor-12" 347 681 basechar 0
AnchorPoint: "Anchor-11" 0 0 basechar 0
AnchorPoint: "Anchor-10" 259 0 basechar 0
LayerCount: 2
Back
Fore
SplineSet
205 681 m 1xe0
 109 0 l 1
 86 0 l 1
 182 681 l 1
 205 681 l 1xe0
549 681 m 1
 192 365 l 1
 469 0 l 1
 442 0 l 1
 164 367 l 1
 520 681 l 1
 549 681 l 1
244 -96 m 0xd0
 258 -96 267 -105 267 -117 c 0
 267 -130 262 -138 248 -164 c 2
 199 -258 l 1
 184 -258 l 1
 232 -142 l 1
 222 -138 218 -129 218 -121 c 0
 218 -107 228 -96 244 -96 c 0xd0
EndSplineSet
Substitution2: "'c2sc' Capitals to Small Capitals lookup 27 subtable" kcommaaccent.sc
Substitution2: "'aalt' Access All Alternates lookup 0 subtable" kcommaaccent.sc
Position2: "'cpsp' Capital Spacing lookup 0 subtable" dx=5 dy=0 dh=10 dv=0
EndChar
StartChar: kcommaaccent
Encoding: 311 311 507
Width: 505
GlyphClass: 2
Flags: MW
HStem: 0 21G<81 103 81 81 392 416 392 392> 510 19<328 397.5> 716 20G<207 207>
VStem: 198 49<-123.5 -114> 455 22<382.5 449>
AnchorPoint: "Anchor-14" 0 0 basechar 0
AnchorPoint: "Anchor-13" 0 0 basechar 0
AnchorPoint: "Anchor-12" 348 732 basechar 0
AnchorPoint: "Anchor-11" 0 0 basechar 0
AnchorPoint: "Anchor-10" 237 0 basechar 0
LayerCount: 2
Back
Fore
SplineSet
207 736 m 1
 152 347 l 1
 213 473 289 529 367 529 c 0
 435 529 477 490 477 424 c 0
 477 337 410 277 295 240 c 1
 416 0 l 1
 392 0 l 1
 267 250 l 1
 386 284 455 341 455 424 c 0
 455 474 429 510 366 510 c 0
 279 510 206 428 145 298 c 1
 103 0 l 1
 81 0 l 1
 185 733 l 1
 207 736 l 1
224 -96 m 0
 238 -96 247 -105 247 -117 c 0
 247 -130 242 -138 228 -164 c 2
 179 -258 l 1
 164 -258 l 1
 212 -142 l 1
 202 -138 198 -129 198 -121 c 0
 198 -107 208 -96 224 -96 c 0
EndSplineSet
Substitution2: "'smcp' Lowercase to Small Capitals lookup 28 subtable" kcommaaccent.sc
Substitution2: "'aalt' Access All Alternates lookup 0 subtable" kcommaaccent.sc
EndChar

StartChar: kgreenlandic
Encoding: 312 312 193
Width: 462
GlyphClass: 2
Flags: MW
HStem: 0 21G<81 103 81 81 381 381 381 408> 499 20G<155 177 177 177 428 456 456 456>
VStem: 81 375
LayerCount: 2
Fore
SplineSet
103 0 m 1
 81 0 l 1
 155 519 l 1
 177 519 l 1
 103 0 l 1
176 272 m 1
 408 0 l 1
 381 0 l 1
 148 274 l 1
 428 519 l 1
 456 519 l 1
 176 272 l 1
EndSplineSet
Substitution2: "'smcp' Lowercase to Small Capitals lookup 24 subtable" kgreenlandic.sc
Substitution2: "'aalt' Access All Alternates lookup 0 subtable" kgreenlandic.sc
EndChar

StartChar: Lacute
Encoding: 313 313 59
Width: 452
GlyphClass: 2
Flags: MW
HStem: 0 22<112 393> 661 20G<182 205 205 205>
VStem: 86 315<0 22>
AnchorPoint: "Anchor-11" 243 0 basechar 0
AnchorPoint: "Anchor-10" 0 0 basechar 0
AnchorPoint: "Anchor-9" 194 681 basechar 0
AnchorPoint: "Anchor-8" 0 0 basechar 0
LayerCount: 2
Fore
SplineSet
309 838 m 1
 119 764 l 1
 115 779 l 1
 300 861 l 1
 309 838 l 1
112 22 m 1
 401 22 l 1
 393 0 l 1
 86 0 l 1
 182 681 l 1
 205 681 l 1
 112 22 l 1
EndSplineSet
Substitution2: "'c2sc' Capitals to Small Capitals lookup 23 subtable" lacute.sc
Substitution2: "'aalt' Access All Alternates lookup 0 subtable" lacute.sc
Position2: "'cpsp' Capital Spacing lookup 0 subtable" dx=5 dy=0 dh=10 dv=0
EndChar

StartChar: lacute
Encoding: 314 314 195
Width: 276
GlyphClass: 2
Flags: MW
HStem: -10 19<132.5 157> 0 21G<197 197> 716 20G<201 201>
VStem: 87 21<73 75>
AnchorPoint: "Anchor-11" 104 0 basechar 0
AnchorPoint: "Anchor-10" 0 0 basechar 0
AnchorPoint: "Anchor-9" 53 209 basechar 0
AnchorPoint: "Anchor-8" 0 0 basechar 0
LayerCount: 2
Fore
SplineSet
151 9 m 0xb0
 165 9 178 13 191 18 c 1x70
 197 0 l 1
 183 -5 165 -10 149 -10 c 0
 102 -10 78 18 87 75 c 1
 125 348 l 1
 -21 291 l 1
 -25 306 l 1
 129 374 l 1
 179 733 l 1
 201 736 l 1
 152 384 l 1
 160 388 l 1
 169 365 l 1
 148 357 l 1
 108 73 l 2
 103 32 114 9 151 9 c 0xb0
EndSplineSet
Substitution2: "'smcp' Lowercase to Small Capitals lookup 24 subtable" lacute.sc
Substitution2: "'aalt' Access All Alternates lookup 0 subtable" lacute.sc
EndChar

StartChar: Lcommaaccent
Encoding: 315 315 61
Width: 452
GlyphClass: 2
Flags: MW
HStem: 0 22<112 393> 661 20G<182 205 205 205>
VStem: 86 315<0 22> 202 49<-123.5 -114>
AnchorPoint: "Anchor-11" 243 0 basechar 0
AnchorPoint: "Anchor-10" 0 0 basechar 0
AnchorPoint: "Anchor-9" 194 681 basechar 0
AnchorPoint: "Anchor-8" 0 0 basechar 0
LayerCount: 2
Fore
SplineSet
112 22 m 1xe0
 401 22 l 1
 393 0 l 1
 86 0 l 1
 182 681 l 1
 205 681 l 1
 112 22 l 1xe0
228 -96 m 0xd0
 242 -96 251 -105 251 -117 c 0
 251 -130 246 -138 232 -164 c 2
 183 -258 l 1
 168 -258 l 1
 216 -142 l 1
 206 -138 202 -129 202 -121 c 0
 202 -107 212 -96 228 -96 c 0xd0
EndSplineSet
Substitution2: "'c2sc' Capitals to Small Capitals lookup 23 subtable" lcommaaccent.sc
Substitution2: "'aalt' Access All Alternates lookup 0 subtable" lcommaaccent.sc
Position2: "'cpsp' Capital Spacing lookup 0 subtable" dx=5 dy=0 dh=10 dv=0
EndChar

StartChar: lcommaaccent
Encoding: 316 316 197
Width: 276
GlyphClass: 2
Flags: MW
HStem: -10 19<132.5 157> 0 21G<197 197> 716 20G<201 201>
VStem: 66 49<-123.5 -114> 87 21<73 75>
AnchorPoint: "Anchor-11" 104 0 basechar 0
AnchorPoint: "Anchor-10" 0 0 basechar 0
AnchorPoint: "Anchor-9" 53 209 basechar 0
AnchorPoint: "Anchor-8" 0 0 basechar 0
LayerCount: 2
Fore
SplineSet
108 73 m 2xa8
 103 32 114 9 151 9 c 0xa8
 165 9 178 13 191 18 c 1x68
 197 0 l 1
 183 -5 165 -10 149 -10 c 0
 102 -10 78 18 87 75 c 1
 179 733 l 1
 201 736 l 1
 108 73 l 2xa8
92 -96 m 0xb0
 106 -96 115 -105 115 -117 c 0
 115 -130 110 -138 96 -164 c 2
 47 -258 l 1
 32 -258 l 1
 80 -142 l 1
 70 -138 66 -129 66 -121 c 0
 66 -107 76 -96 92 -96 c 0xb0
EndSplineSet
Substitution2: "'smcp' Lowercase to Small Capitals lookup 24 subtable" lcommaaccent.sc
Substitution2: "'aalt' Access All Alternates lookup 0 subtable" lcommaaccent.sc
EndChar
StartChar: Lcaron
Encoding: 317 317 145
Width: 452
GlyphClass: 2
Flags: MW
HStem: 0 22<112 393> 661 20G<182 205 205 205> 666 20G<311 311>
VStem: 86 315<0 22>
AnchorPoint: "Anchor-14" 364 354 basechar 0
AnchorPoint: "Anchor-13" 250 681 basechar 0
AnchorPoint: "Anchor-12" 194 681 basechar 0
AnchorPoint: "Anchor-11" 0 0 basechar 0
AnchorPoint: "Anchor-10" 240 0 basechar 0
LayerCount: 2
Back
Fore
SplineSet
311 686 m 1xb0
 334 684 l 1
 288 539 l 1
 272 542 l 1
 311 686 l 1xb0
205 681 m 1xd0
 112 22 l 1
 401 22 l 1
 393 0 l 1
 86 0 l 1
 182 681 l 1
 205 681 l 1xd0
EndSplineSet
Substitution2: "'c2sc' Capitals to Small Capitals lookup 27 subtable" lcaron.sc
Substitution2: "'aalt' Access All Alternates lookup 0 subtable" lcaron.sc
Position2: "'cpsp' Capital Spacing lookup 0 subtable" dx=5 dy=0 dh=10 dv=0
EndChar

StartChar: lcaron
Encoding: 318 318 196
Width: 276
GlyphClass: 2
Flags: MW
HStem: -10 19<132.5 157> 0 21G<197 197> 716 20G<201 201> 717 20G<297 297>
VStem: 87 21<73 75>
AnchorPoint: "Anchor-11" 104 0 basechar 0
AnchorPoint: "Anchor-10" 0 0 basechar 0
AnchorPoint: "Anchor-9" 53 209 basechar 0
AnchorPoint: "Anchor-8" 0 0 basechar 0
LayerCount: 2
Fore
SplineSet
320 735 m 1x98
 274 590 l 1
 258 593 l 1
 297 737 l 1
 320 735 l 1x98
108 73 m 2
 103 32 114 9 151 9 c 0x98
 165 9 178 13 191 18 c 1x58
 197 0 l 1
 183 -5 165 -10 149 -10 c 0
 102 -10 78 18 87 75 c 1
 179 733 l 1
 201 736 l 1xa8
 108 73 l 2
EndSplineSet
Substitution2: "'smcp' Lowercase to Small Capitals lookup 24 subtable" lcaron.sc
Substitution2: "'aalt' Access All Alternates lookup 0 subtable" lcaron.sc
EndChar

StartChar: Ldot
Encoding: 319 319 62
Width: 452
GlyphClass: 2
Flags: MW
HStem: 0 22<112 393> 335 39<359.5 369.5> 661 20G<182 205 205 205>
VStem: 86 315<0 22> 344 40
AnchorPoint: "Anchor-11" 243 0 basechar 0
AnchorPoint: "Anchor-10" 0 0 basechar 0
AnchorPoint: "Anchor-9" 194 681 basechar 0
AnchorPoint: "Anchor-8" 0 0 basechar 0
LayerCount: 2
Fore
SplineSet
112 22 m 1xf0
 401 22 l 1
 393 0 l 1
 86 0 l 1
 182 681 l 1
 205 681 l 1
 112 22 l 1xf0
365 374 m 0xe8
 379 374 386 364 384 353 c 0
 383 343 376 335 363 335 c 0
 350 335 343 344 344 356 c 1
 346 366 354 374 365 374 c 0xe8
EndSplineSet
Ligature2: "Ligature Substitution lookup 29 subtable" L periodcentered
Substitution2: "'c2sc' Capitals to Small Capitals lookup 23 subtable" ldot.sc
Substitution2: "'aalt' Access All Alternates lookup 0 subtable" ldot.sc
Position2: "'cpsp' Capital Spacing lookup 0 subtable" dx=5 dy=0 dh=10 dv=0
EndChar

StartChar: ldot
Encoding: 320 320 198
Width: 276
GlyphClass: 2
Flags: MW
HStem: -10 19<95.5 121 95.5 121> 0 21G<160 160> 356 39<232.5 242.5> 716 20G<164 164>
VStem: 50 21<73 75> 217 40
AnchorPoint: "Anchor-11" 68 0 basechar 0
AnchorPoint: "Anchor-10" 0 0 basechar 0
AnchorPoint: "Anchor-9" 17 209 basechar 0
AnchorPoint: "Anchor-8" 0 0 basechar 0
LayerCount: 2
Fore
SplineSet
71 73 m 2xb8
 66 32 77 9 114 9 c 0xb8
 128 9 142 13 155 18 c 1x78
 160 0 l 1
 147 -5 129 -10 113 -10 c 0
 66 -10 42 18 50 75 c 2
 142 733 l 1
 164 736 l 1
 71 73 l 2xb8
238 395 m 0xbc
 252 395 259 385 257 374 c 0
 256 364 249 356 236 356 c 0
 223 356 216 365 217 377 c 1
 219 387 227 395 238 395 c 0xbc
EndSplineSet
Ligature2: "Ligature Substitution lookup 29 subtable" l periodcentered
Substitution2: "'smcp' Lowercase to Small Capitals lookup 24 subtable" ldot.sc
Substitution2: "'aalt' Access All Alternates lookup 0 subtable" ldot.sc
EndChar
StartChar: Lslash
Encoding: 321 321 151
Width: 463
GlyphClass: 2
Flags: MW
HStem: 0 22<123 404> 661 20G<193 215 215 215>
VStem: 54 358<22 279>
LayerCount: 2
Back
Fore
SplineSet
412 22 m 1
 404 0 l 1
 97 0 l 1
 140 308 l 1
 62 262 l 1
 54 279 l 1
 143 330 l 1
 193 681 l 1
 215 681 l 1
 168 344 l 1
 386 470 l 1
 394 453 l 1
 165 321 l 1
 123 22 l 1
 412 22 l 1
EndSplineSet
Substitution2: "'c2sc' Capitals to Small Capitals lookup 27 subtable" lslash.sc
Substitution2: "'aalt' Access All Alternates lookup 0 subtable" lslash.sc
Position2: "'cpsp' Capital Spacing lookup 0 subtable" dx=5 dy=0 dh=10 dv=0
EndChar
StartChar: lslash
Encoding: 322 322 527
Width: 281
GlyphClass: 2
Flags: MW
HStem: -10 21<133 158 133 158> 0 21G<198 198> 716 20G<202 202>
VStem: 87 22<73 75>
AnchorPoint: "Anchor-14" 276 375 basechar 0
AnchorPoint: "Anchor-13" 237 732 basechar 0
AnchorPoint: "Anchor-12" 191 733 basechar 0
AnchorPoint: "Anchor-11" 0 0 basechar 0
AnchorPoint: "Anchor-10" 143 0 basechar 0
LayerCount: 2
Back
Fore
SplineSet
151 11 m 0xb0
 165 11 180 15 192 19 c 1x70
 198 0 l 1
 184 -5 166 -10 150 -10 c 0
 103 -10 79 18 87 75 c 2
 126 353 l 1
 61 316 l 1
 52 332 l 1
 130 376 l 1
 180 733 l 1
 202 736 l 1
 153 389 l 1
 272 458 l 1
 280 441 l 1
 150 366 l 1
 109 73 l 2
 103 33 115 11 151 11 c 0xb0
EndSplineSet
Substitution2: "'smcp' Lowercase to Small Capitals lookup 28 subtable" lslash.sc
Substitution2: "'aalt' Access All Alternates lookup 0 subtable" lslash.sc
EndChar

StartChar: Nacute
Encoding: 323 323 66
Width: 661
GlyphClass: 2
Flags: MW
HStem: 0 25<487 487 487 502 474 487> 658 23<197 197>
VStem: 86 511
AnchorPoint: "Anchor-11" 292 0 basechar 0
AnchorPoint: "Anchor-10" 0 0 basechar 0
AnchorPoint: "Anchor-9" 396 681 basechar 0
AnchorPoint: "Anchor-8" 0 0 basechar 0
LayerCount: 2
Fore
SplineSet
511 838 m 1
 321 764 l 1
 317 779 l 1
 502 861 l 1
 511 838 l 1
502 0 m 1
 474 0 l 1
 197 658 l 1
 195 619 189 575 175 476 c 2
 108 0 l 1
 86 0 l 1
 182 681 l 1
 211 681 l 1
 487 25 l 1
 491 67 498 128 509 205 c 2
 575 681 l 1
 597 681 l 1
 502 0 l 1
EndSplineSet
Substitution2: "'c2sc' Capitals to Small Capitals lookup 23 subtable" nacute.sc
Substitution2: "'locl' Localized Forms in Latin lookup 7 subtable" Nacute.loclPLK
AlternateSubs2: "'aalt' Access All Alternates lookup 1 subtable" Nacute.loclPLK nacute.sc
Position2: "'cpsp' Capital Spacing lookup 0 subtable" dx=5 dy=0 dh=10 dv=0
EndChar
StartChar: nacute
Encoding: 324 324 536
Width: 581
GlyphClass: 2
Flags: MW
HStem: 0 21G<81 103 81 81 410 432 410 410> 499 20G<155 173 173 173> 510 19<327.5 405.5>
VStem: 464.76 22
AnchorPoint: "Anchor-14" 0 0 basechar 0
AnchorPoint: "Anchor-13" 0 0 basechar 0
AnchorPoint: "Anchor-12" 359 761 basechar 0
AnchorPoint: "Anchor-11" 0 0 basechar 0
AnchorPoint: "Anchor-10" 257 0 basechar 0
LayerCount: 2
Back
Fore
SplineSet
447 761 m 1xb0
 454 738 l 1
 264 654 l 1
 259 670 l 1
 447 761 l 1xb0
369 529 m 0
 459 529 498 470 484 369 c 2
 432 0 l 1
 410 0 l 1
 462 367 l 2
 475 462 443 510 368 510 c 0xb0
 282 510 211 437 148 315 c 1
 103 0 l 1
 81 0 l 1
 155 519 l 1
 173 519 l 1xd0
 153 358 l 1
 212 471 286 529 369 529 c 0
EndSplineSet
Substitution2: "'smcp' Lowercase to Small Capitals lookup 28 subtable" nacute.sc
Substitution2: "'locl' Localized Forms in Latin lookup 7 subtable" nacute.loclPLK
AlternateSubs2: "'aalt' Access All Alternates lookup 1 subtable" nacute.loclPLK nacute.sc
EndChar

StartChar: Ncommaaccent
Encoding: 325 325 68
Width: 661
GlyphClass: 2
Flags: MW
HStem: 0 25<487 487 487 502 474 487> 658 23<197 197>
VStem: 86 511 252 49<-123.5 -114>
AnchorPoint: "Anchor-11" 292 0 basechar 0
AnchorPoint: "Anchor-10" 0 0 basechar 0
AnchorPoint: "Anchor-9" 396 681 basechar 0
AnchorPoint: "Anchor-8" 0 0 basechar 0
LayerCount: 2
Fore
SplineSet
502 0 m 1xe0
 474 0 l 1
 197 658 l 1
 195 619 189 575 175 476 c 2
 108 0 l 1
 86 0 l 1
 182 681 l 1
 211 681 l 1
 487 25 l 1
 491 67 498 128 509 205 c 2
 575 681 l 1
 597 681 l 1
 502 0 l 1xe0
278 -96 m 0xd0
 292 -96 301 -105 301 -117 c 0
 301 -130 296 -138 282 -164 c 2
 233 -258 l 1
 218 -258 l 1
 266 -142 l 1
 256 -138 252 -129 252 -121 c 0
 252 -107 262 -96 278 -96 c 0xd0
EndSplineSet
Substitution2: "'c2sc' Capitals to Small Capitals lookup 23 subtable" ncommaaccent.sc
Substitution2: "'aalt' Access All Alternates lookup 0 subtable" ncommaaccent.sc
Position2: "'cpsp' Capital Spacing lookup 0 subtable" dx=5 dy=0 dh=10 dv=0
EndChar

StartChar: ncommaaccent
Encoding: 326 326 205
Width: 581
GlyphClass: 2
Flags: MW
HStem: 0 21G<81 103 81 81 410 432 410 410> 499 20G<155 173 173 173> 510 19<328 405.5>
VStem: 214 49<-123.5 -114> 464.84 22.04
AnchorPoint: "Anchor-11" 253 0 basechar 0
AnchorPoint: "Anchor-10" 0 0 basechar 0
AnchorPoint: "Anchor-9" 332 519 basechar 0
AnchorPoint: "Anchor-8" 0 0 basechar 0
LayerCount: 2
Fore
SplineSet
369 529 m 0xa8
 462 529 498 470 484 369 c 2
 432 0 l 1
 410 0 l 1
 462 367 l 2
 475 462 445 510 366 510 c 0xa8
 282 510 211 437 148 315 c 1
 103 0 l 1
 81 0 l 1
 155 519 l 1
 173 519 l 1xc8
 153 358 l 1
 211 471 287 529 369 529 c 0xa8
240 -96 m 0xb8
 254 -96 263 -105 263 -117 c 0
 263 -130 258 -138 244 -164 c 2
 195 -258 l 1
 180 -258 l 1
 228 -142 l 1
 218 -138 214 -129 214 -121 c 0
 214 -107 224 -96 240 -96 c 0xb8
EndSplineSet
Substitution2: "'smcp' Lowercase to Small Capitals lookup 24 subtable" ncommaaccent.sc
Substitution2: "'aalt' Access All Alternates lookup 0 subtable" ncommaaccent.sc
EndChar
StartChar: ncaron
Encoding: 328 328 538
Width: 581
GlyphClass: 2
Flags: MW
HStem: 0 21G<81 103 81 81 410 432 410 410> 499 20G<155 173 173 173> 510 19<327.5 405.5> 641 24<349 349 349 352 340 349> 716 20G<234 234 486 486>
VStem: 464.76 22
AnchorPoint: "Anchor-14" 0 0 basechar 0
AnchorPoint: "Anchor-13" 0 0 basechar 0
AnchorPoint: "Anchor-12" 362 749 basechar 0
AnchorPoint: "Anchor-11" 0 0 basechar 0
AnchorPoint: "Anchor-10" 257 0 basechar 0
LayerCount: 2
Back
Fore
SplineSet
475 749 m 1xbc
 486 736 l 1
 352 641 l 1
 340 641 l 1
 234 736 l 1
 246 749 l 1
 349 665 l 1
 475 749 l 1xbc
369 529 m 0
 459 529 498 470 484 369 c 2
 432 0 l 1
 410 0 l 1
 462 367 l 2
 475 462 443 510 368 510 c 0xbc
 282 510 211 437 148 315 c 1
 103 0 l 1
 81 0 l 1
 155 519 l 1
 173 519 l 1xdc
 153 358 l 1
 212 471 286 529 369 529 c 0
EndSplineSet
Substitution2: "'smcp' Lowercase to Small Capitals lookup 28 subtable" ncaron.sc
Substitution2: "'aalt' Access All Alternates lookup 0 subtable" ncaron.sc
EndChar
StartChar: napostrophe
Encoding: 329 329 537
Width: 643
GlyphClass: 2
Flags: MW
HStem: 0 21G<143 165 143 143 472 494 472 472> 499 20G<216 235 235 235> 510 19<389.5 467> 717 20G<152 168>
VStem: 134 49<708 718.5> 526.72 22
AnchorPoint: "Anchor-14" 0 0 basechar 0
AnchorPoint: "Anchor-13" 0 0 basechar 0
AnchorPoint: "Anchor-12" 391 519 basechar 0
AnchorPoint: "Anchor-11" 0 0 basechar 0
AnchorPoint: "Anchor-10" 319 0 basechar 0
LayerCount: 2
Back
Fore
SplineSet
160 737 m 0xbc
 176 737 183 725 183 715 c 0
 183 701 179 693 166 668 c 2
 119 570 l 1
 104 570 l 1
 150 690 l 1
 140 694 134 701 134 712 c 0
 134 725 144 737 160 737 c 0xbc
431 529 m 0
 520 529 560 470 546 369 c 2
 494 0 l 1
 472 0 l 1
 524 367 l 2
 537 462 504 510 430 510 c 0xbc
 344 510 273 437 209 315 c 1
 165 0 l 1
 143 0 l 1
 216 519 l 1
 235 519 l 1xdc
 215 358 l 1
 274 471 348 529 431 529 c 0
EndSplineSet
Substitution2: "'smcp' Lowercase to Small Capitals lookup 28 subtable" napostrophe.sc
Ligature2: "'locl' Localized Forms in Latin lookup 12 subtable" quoteright n
Ligature2: "'locl' Localized Forms in Latin lookup 12 subtable" quotesingle n
Substitution2: "'aalt' Access All Alternates lookup 0 subtable" napostrophe.sc
EndChar

StartChar: Eng
Encoding: 330 330 69
Width: 661
GlyphClass: 2
Flags: MW
HStem: -195 21G<363 363> 0 21G<86 108 86 86 474 482 474 474 502 502> 0 25<474 487 474 487 487 502> 658 23<197 197>
VStem: 86 511
AnchorPoint: "Anchor-11" 292 0 basechar 0
AnchorPoint: "Anchor-10" 0 0 basechar 0
AnchorPoint: "Anchor-9" 396 681 basechar 0
AnchorPoint: "Anchor-8" 0 0 basechar 0
LayerCount: 2
Fore
SplineSet
597 681 m 1xd8
 502 0 l 2
 484 -122 446 -155 363 -195 c 1
 356 -177 l 1
 429 -141 465 -111 482 0 c 1
 474 0 l 1
 197 658 l 1
 195 619 189 575 175 476 c 2
 108 0 l 1
 86 0 l 1
 182 681 l 1
 211 681 l 1
 487 25 l 1xb8
 491 67 498 127 509 205 c 2
 575 681 l 1
 597 681 l 1xd8
EndSplineSet
Substitution2: "'c2sc' Capitals to Small Capitals lookup 23 subtable" eng.sc
Substitution2: "'aalt' Access All Alternates lookup 0 subtable" eng.sc
Position2: "'cpsp' Capital Spacing lookup 0 subtable" dx=5 dy=0 dh=10 dv=0
EndChar

StartChar: eng
Encoding: 331 331 206
Width: 581
GlyphClass: 2
Flags: MW
HStem: -195 21G<293 293> 0 21G<81 103 81 81> 499 20G<155 173 173 173> 510 19<328 405.5>
VStem: 464.84 22.04
LayerCount: 2
Fore
SplineSet
369 529 m 0xd8
 462 529 498 470 484 369 c 2
 432 4 l 2
 413 -123 376 -155 293 -195 c 1
 286 -178 l 1
 358 -142 395 -110 411 2 c 2
 462 367 l 2
 475 462 445 510 366 510 c 0xd8
 283 510 211 439 148 315 c 1
 103 0 l 1
 81 0 l 1
 155 519 l 1
 173 519 l 1xe8
 153 358 l 1
 211 472 287 529 369 529 c 0xd8
EndSplineSet
Substitution2: "'smcp' Lowercase to Small Capitals lookup 24 subtable" eng.sc
Substitution2: "'aalt' Access All Alternates lookup 0 subtable" eng.sc
EndChar

StartChar: Omacron
Encoding: 332 332 78
Width: 689
GlyphClass: 2
Flags: MW
HStem: -10 22<246 424.5 246 430.5> 671 20<291.5 467> 811 21<306 517 310 513>
VStem: 83 23<176 335 176 342> 606 24<348.5 508>
AnchorPoint: "Anchor-11" 0 0 basechar 0
AnchorPoint: "Anchor-10" 87 519 basechar 0
AnchorPoint: "Anchor-9" 392 681 basechar 0
AnchorPoint: "Anchor-8" 0 0 basechar 0
LayerCount: 2
Fore
SplineSet
306 811 m 1
 310 832 l 1
 517 832 l 1
 513 811 l 1
 306 811 l 1
404 691 m 0
 543 691 630 600 630 427 c 0
 630 253 553 -10 308 -10 c 0
 169 -10 83 85 83 257 c 0
 83 427 165 691 404 691 c 0
404 671 m 0
 179 671 106 415 106 255 c 0
 106 97 184 12 308 12 c 0
 541 12 606 269 606 428 c 0
 606 588 530 671 404 671 c 0
EndSplineSet
Substitution2: "'c2sc' Capitals to Small Capitals lookup 23 subtable" omacron.sc
Substitution2: "'aalt' Access All Alternates lookup 0 subtable" omacron.sc
Position2: "'cpsp' Capital Spacing lookup 0 subtable" dx=5 dy=0 dh=10 dv=0
EndChar
StartChar: Obreve
Encoding: 334 334 173
Width: 689
GlyphClass: 2
Flags: MW
HStem: -10 22<246 424.5 246 430.5> 671 20<291.5 467> 772 20<389.5 439 389.5 441.5>
VStem: 83 23<176 336 176 342> 315 15<848 850> 606 24<347.5 507.5>
AnchorPoint: "Anchor-14" 0 0 basechar 0
AnchorPoint: "Anchor-13" 591 681 basechar 0
AnchorPoint: "Anchor-12" 424 851 basechar 0
AnchorPoint: "Anchor-11" 0 0 basechar 0
AnchorPoint: "Anchor-10" 308 0 basechar 0
LayerCount: 2
Back
Fore
SplineSet
414 772 m 0
 356 772 319 807 315 848 c 1
 330 850 l 1
 337 817 365 792 414 792 c 0
 464 792 498 819 515 851 c 1
 530 846 l 1
 514 805 469 772 414 772 c 0
404 691 m 0
 543 691 630 600 630 427 c 0
 630 253 553 -10 308 -10 c 0
 169 -10 83 85 83 257 c 0
 83 427 165 691 404 691 c 0
404 671 m 0
 179 671 106 416 106 256 c 0
 106 96 184 12 308 12 c 0
 541 12 606 268 606 427 c 0
 606 588 530 671 404 671 c 0
EndSplineSet
Substitution2: "'c2sc' Capitals to Small Capitals lookup 27 subtable" obreve.sc
Substitution2: "'aalt' Access All Alternates lookup 0 subtable" obreve.sc
Position2: "'cpsp' Capital Spacing lookup 0 subtable" dx=5 dy=0 dh=10 dv=0
EndChar
StartChar: obreve
Encoding: 335 335 554
Width: 560
GlyphClass: 2
Flags: MW
HStem: -10 21<194.5 329 194.5 338> 509 20<230.5 366> 662 22<313.5 361 313.5 366>
VStem: 68 23<136 255 136 262.5> 239 17<749 751> 470 23<265 386>
AnchorPoint: "Anchor-14" 0 0 basechar 0
AnchorPoint: "Anchor-13" 485 519 basechar 0
AnchorPoint: "Anchor-12" 350 753 basechar 0
AnchorPoint: "Anchor-11" 0 0 basechar 0
AnchorPoint: "Anchor-10" 243 0 basechar 0
LayerCount: 2
Back
Fore
SplineSet
337 662 m 0
 278 662 242 699 239 749 c 1
 256 751 l 1
 262 707 290 684 337 684 c 0
 385 684 422 709 440 753 c 1
 456 747 l 1
 439 698 395 662 337 662 c 0
317 529 m 0
 427 529 493 458 493 327 c 0
 493 197 433 -10 243 -10 c 0
 132 -10 68 66 68 196 c 0
 68 329 130 529 317 529 c 0
317 509 m 0
 144 509 91 315 91 195 c 0
 91 77 146 11 243 11 c 0
 415 11 470 203 470 327 c 0
 470 445 415 509 317 509 c 0
EndSplineSet
Substitution2: "'smcp' Lowercase to Small Capitals lookup 28 subtable" obreve.sc
Substitution2: "'aalt' Access All Alternates lookup 0 subtable" obreve.sc
EndChar
StartChar: Ohungarumlaut
Encoding: 336 336 196
Width: 689
GlyphClass: 2
Flags: MW
HStem: -10 22<246 424.5 246 430.5> 671 20<291.5 467>
VStem: 83 23<176 336 176 342> 606 24<347.5 507.5>
AnchorPoint: "Anchor-14" 0 0 basechar 0
AnchorPoint: "Anchor-13" 591 681 basechar 0
AnchorPoint: "Anchor-12" 403 681 basechar 0
AnchorPoint: "Anchor-11" 0 0 basechar 0
AnchorPoint: "Anchor-10" 308 0 basechar 0
LayerCount: 2
Back
Fore
SplineSet
545 917 m 1
 566 906 l 1
 471 778 l 1
 455 787 l 1
 545 917 l 1
435 916 m 1
 456 904 l 1
 368 782 l 1
 353 790 l 1
 435 916 l 1
404 691 m 0
 543 691 630 600 630 427 c 0
 630 253 553 -10 308 -10 c 0
 169 -10 83 85 83 257 c 0
 83 427 165 691 404 691 c 0
404 671 m 0
 179 671 106 416 106 256 c 0
 106 96 184 12 308 12 c 0
 541 12 606 268 606 427 c 0
 606 588 530 671 404 671 c 0
EndSplineSet
Substitution2: "'c2sc' Capitals to Small Capitals lookup 27 subtable" ohungarumlaut.sc
Substitution2: "'aalt' Access All Alternates lookup 0 subtable" ohungarumlaut.sc
Position2: "'cpsp' Capital Spacing lookup 0 subtable" dx=5 dy=0 dh=10 dv=0
EndChar
StartChar: OE
Encoding: 338 338 210
Width: 844
GlyphClass: 2
Flags: MW
HStem: -10 22<237.5 306.5> 0 12<361 406.5 237.5 765 361 361> 0 21<413 765> 349 21<603 764 601 766> 660 21<501 848 501 501> 671 20<285 402.5 278.5 450>
VStem: 82 23<174.5 333 174.5 339.5> 584 22<422 487.5 422 510>
LayerCount: 2
Back
Fore
SplineSet
853 681 m 1x3b
 848 660 l 1
 501 660 l 1
 569 621 606 543 606 432 c 0
 606 412 605 391 603 370 c 1
 766 370 l 1
 764 349 l 1
 601 349 l 1
 585 224 531 79 413 21 c 1
 768 21 l 1
 765 0 l 1
 361 0 l 1x3b
 340 -6 318 -10 295 -10 c 0
 166 -10 82 85 82 255 c 0
 82 424 167 691 390 691 c 0x97
 415 691 438 688 458 681 c 1
 853 681 l 1x3b
584 433 m 0x57
 584 587 510 671 390 671 c 0
 180 671 105 413 105 253 c 0
 105 96 180 12 295 12 c 0
 518 12 584 282 584 433 c 0x57
EndSplineSet
Substitution2: "'c2sc' Capitals to Small Capitals lookup 27 subtable" oe.sc
Substitution2: "'aalt' Access All Alternates lookup 0 subtable" oe.sc
Position2: "'cpsp' Capital Spacing lookup 0 subtable" dx=5 dy=0 dh=10 dv=0
EndChar
StartChar: oe
Encoding: 339 339 592
Width: 911
GlyphClass: 2
Flags: MW
HStem: -10 21<194.5 301 590.5 668.5> 215 19<484 484> 509 20<230.5 366 655.5 754.5>
VStem: 68 23<136 255 136 262.5> 463 20<133 199> 470 15 841 23<359.5 440.5>
AnchorPoint: "Anchor-14" 0 0 basechar 0
AnchorPoint: "Anchor-13" 0 0 basechar 0
AnchorPoint: "Anchor-12" 493 519 basechar 0
AnchorPoint: "Anchor-11" 0 0 basechar 0
AnchorPoint: "Anchor-10" 451 0 basechar 0
LayerCount: 2
Back
Fore
SplineSet
864 411 m 0xf6
 864 293 730 228 484 215 c 1
 483 208 483 202 483 196 c 0
 483 70 544 11 637 11 c 0
 700 11 741 31 792 67 c 1
 804 51 l 1
 752 12 702 -10 637 -10 c 0
 535 -10 476 52 463 166 c 1xfa
 428 72 359 -10 243 -10 c 0
 132 -10 68 66 68 196 c 0
 68 329 130 529 317 529 c 0
 421 529 479 471 491 350 c 1
 526 447 596 529 715 529 c 0
 803 529 864 484 864 411 c 0xf6
243 11 m 0
 415 11 470 203 470 327 c 0
 470 445 415 509 317 509 c 0
 144 509 91 315 91 195 c 0
 91 77 146 11 243 11 c 0
715 509 m 0
 564 509 497 358 485 234 c 1
 726 248 841 309 841 410 c 0
 841 471 794 509 715 509 c 0
EndSplineSet
Substitution2: "'smcp' Lowercase to Small Capitals lookup 28 subtable" oe.sc
Substitution2: "'aalt' Access All Alternates lookup 0 subtable" oe.sc
EndChar

StartChar: Racute
Encoding: 340 340 87
Width: 572
GlyphClass: 2
Flags: MW
HStem: 0 21G<86 109 86 86 466 491 466 466> 324 21<158 302 302 322 155 302> 660 21<202 330 330 333 202 202>
VStem: 509 24<492.5 575.5>
AnchorPoint: "Anchor-11" 267 0 basechar 0
AnchorPoint: "Anchor-10" 0 0 basechar 0
AnchorPoint: "Anchor-9" 346 681 basechar 0
AnchorPoint: "Anchor-8" 0 0 basechar 0
LayerCount: 2
Fore
SplineSet
272 764 m 1
 268 779 l 1
 453 861 l 1
 462 838 l 1
 272 764 l 1
533 535 m 0
 533 446 487 350 345 327 c 1
 491 0 l 1
 466 0 l 1
 322 324 l 1
 155 324 l 1
 109 0 l 1
 86 0 l 1
 182 681 l 1
 330 681 l 2
 473 681 533 631 533 535 c 0
302 345 m 2
 458 345 509 450 509 535 c 0
 509 616 461 660 333 660 c 2
 202 660 l 1
 158 345 l 1
 302 345 l 2
EndSplineSet
Substitution2: "'c2sc' Capitals to Small Capitals lookup 23 subtable" racute.sc
Substitution2: "'aalt' Access All Alternates lookup 0 subtable" racute.sc
Position2: "'cpsp' Capital Spacing lookup 0 subtable" dx=5 dy=0 dh=10 dv=0
EndChar
StartChar: racute
Encoding: 341 341 604
Width: 362
GlyphClass: 2
Flags: MW
HStem: 0 21G<81 103 81 81> 499 20G<155 174 174 174> 502 20G<381 381> 509 20<291.5 341>
VStem: 81 309
AnchorPoint: "Anchor-14" 0 0 basechar 0
AnchorPoint: "Anchor-13" 0 0 basechar 0
AnchorPoint: "Anchor-12" 295 761 basechar 0
AnchorPoint: "Anchor-11" 0 0 basechar 0
AnchorPoint: "Anchor-10" 91 0 basechar 0
LayerCount: 2
Back
Fore
SplineSet
383 761 m 1x98
 390 738 l 1
 200 654 l 1
 195 670 l 1
 383 761 l 1x98
333 529 m 0
 353 529 370 525 381 522 c 1xa8
 375 503 l 1
 365 506 349 509 333 509 c 0x98
 250 509 199 446 149 324 c 1
 103 0 l 1
 81 0 l 1
 155 519 l 1
 174 519 l 1xc8
 153 371 l 1
 195 475 249 529 333 529 c 0
EndSplineSet
Substitution2: "'smcp' Lowercase to Small Capitals lookup 28 subtable" racute.sc
Substitution2: "'aalt' Access All Alternates lookup 0 subtable" racute.sc
EndChar

StartChar: Rcommaaccent
Encoding: 342 342 89
Width: 572
GlyphClass: 2
Flags: MW
HStem: 0 21G<86 109 86 86 466 491 466 466> 324 21<158 302 302 322 155 302> 660 21<202 330 330 333 202 202>
VStem: 227 49<-123.5 -114> 509 24<492.5 575.5>
AnchorPoint: "Anchor-11" 267 0 basechar 0
AnchorPoint: "Anchor-10" 0 0 basechar 0
AnchorPoint: "Anchor-9" 346 681 basechar 0
AnchorPoint: "Anchor-8" 0 0 basechar 0
LayerCount: 2
Fore
SplineSet
533 535 m 0
 533 446 487 350 345 327 c 1
 491 0 l 1
 466 0 l 1
 322 324 l 1
 155 324 l 1
 109 0 l 1
 86 0 l 1
 182 681 l 1
 330 681 l 2
 473 681 533 631 533 535 c 0
302 345 m 2
 458 345 509 450 509 535 c 0
 509 616 461 660 333 660 c 2
 202 660 l 1
 158 345 l 1
 302 345 l 2
253 -96 m 0
 267 -96 276 -105 276 -117 c 0
 276 -130 271 -138 257 -164 c 2
 208 -258 l 1
 193 -258 l 1
 241 -142 l 1
 231 -138 227 -129 227 -121 c 0
 227 -107 237 -96 253 -96 c 0
EndSplineSet
Substitution2: "'c2sc' Capitals to Small Capitals lookup 23 subtable" rcommaaccent.sc
Substitution2: "'aalt' Access All Alternates lookup 0 subtable" rcommaaccent.sc
Position2: "'cpsp' Capital Spacing lookup 0 subtable" dx=5 dy=0 dh=10 dv=0
EndChar
StartChar: rcommaaccent
Encoding: 343 343 607
Width: 362
GlyphClass: 2
Flags: MW
HStem: 0 21G<81 103 81 81> 499 20G<155 174 174 174> 502 20G<381 381> 509 20<291.5 341>
VStem: 19 362 53 49<-123.5 -114>
AnchorPoint: "Anchor-14" 0 0 basechar 0
AnchorPoint: "Anchor-13" 0 0 basechar 0
AnchorPoint: "Anchor-12" 266 519 basechar 0
AnchorPoint: "Anchor-11" 0 0 basechar 0
AnchorPoint: "Anchor-10" 91 0 basechar 0
LayerCount: 2
Back
Fore
SplineSet
333 529 m 0x98
 353 529 370 525 381 522 c 1xa8
 375 503 l 1
 365 506 349 509 333 509 c 0x98
 250 509 199 446 149 324 c 1
 103 0 l 1
 81 0 l 1
 155 519 l 1
 174 519 l 1xc8
 153 371 l 1
 195 475 249 529 333 529 c 0x98
79 -96 m 0x94
 93 -96 102 -105 102 -117 c 0
 102 -130 97 -138 83 -164 c 2
 34 -258 l 1
 19 -258 l 1
 67 -142 l 1
 57 -138 53 -129 53 -121 c 0
 53 -107 63 -96 79 -96 c 0x94
EndSplineSet
Substitution2: "'smcp' Lowercase to Small Capitals lookup 28 subtable" rcommaaccent.sc
Substitution2: "'aalt' Access All Alternates lookup 0 subtable" rcommaaccent.sc
EndChar
StartChar: Rcaron
Encoding: 344 344 220
Width: 572
GlyphClass: 2
Flags: MW
HStem: 0 21G<86 109 86 86 466 491 466 466> 324 21<157 302 302 322 154 302> 660 21<202 330 330 333 202 202> 760 24<355 355 355 358 346 355>
VStem: 509 24<491 574.5>
AnchorPoint: "Anchor-14" 0 0 basechar 0
AnchorPoint: "Anchor-13" 0 0 basechar 0
AnchorPoint: "Anchor-12" 367 863 basechar 0
AnchorPoint: "Anchor-11" 0 0 basechar 0
AnchorPoint: "Anchor-10" 267 0 basechar 0
LayerCount: 2
Back
Fore
SplineSet
358 760 m 1
 346 760 l 1
 239 850 l 1
 251 862 l 1
 355 784 l 1
 480 863 l 1
 490 850 l 1
 358 760 l 1
533 533 m 0
 533 445 486 349 345 327 c 1
 491 0 l 1
 466 0 l 1
 322 324 l 1
 154 324 l 1
 109 0 l 1
 86 0 l 1
 182 681 l 1
 330 681 l 2
 473 681 533 629 533 533 c 0
157 345 m 1
 302 345 l 2
 458 345 509 448 509 534 c 0
 509 615 461 660 333 660 c 2
 202 660 l 1
 157 345 l 1
EndSplineSet
Substitution2: "'c2sc' Capitals to Small Capitals lookup 27 subtable" rcaron.sc
Substitution2: "'aalt' Access All Alternates lookup 0 subtable" rcaron.sc
Position2: "'cpsp' Capital Spacing lookup 0 subtable" dx=5 dy=0 dh=10 dv=0
EndChar
StartChar: rcaron
Encoding: 345 345 606
Width: 362
GlyphClass: 2
Flags: MW
HStem: 0 21G<81 103 81 81> 499 20G<155 174 174 174> 502 20G<381 381> 509 20<291.5 341> 641 24<286 286 286 289 277 286> 716 20G<171 171 423 423>
VStem: 81 342
AnchorPoint: "Anchor-14" 0 0 basechar 0
AnchorPoint: "Anchor-13" 0 0 basechar 0
AnchorPoint: "Anchor-12" 299 749 basechar 0
AnchorPoint: "Anchor-11" 0 0 basechar 0
AnchorPoint: "Anchor-10" 91 0 basechar 0
LayerCount: 2
Back
Fore
SplineSet
412 749 m 1x9e
 423 736 l 1
 289 641 l 1
 277 641 l 1
 171 736 l 1
 183 749 l 1
 286 665 l 1
 412 749 l 1x9e
333 529 m 0
 353 529 370 525 381 522 c 1xae
 375 503 l 1
 365 506 349 509 333 509 c 0x9e
 250 509 199 446 149 324 c 1
 103 0 l 1
 81 0 l 1
 155 519 l 1
 174 519 l 1xce
 153 371 l 1
 195 475 249 529 333 529 c 0
EndSplineSet
Substitution2: "'smcp' Lowercase to Small Capitals lookup 28 subtable" rcaron.sc
Substitution2: "'aalt' Access All Alternates lookup 0 subtable" rcaron.sc
EndChar

StartChar: Sacute
Encoding: 346 346 91
Width: 536
GlyphClass: 2
Flags: MW
HStem: -10 22<178.5 301.5 178.5 306.5> 671 20<265 358>
VStem: 117 23<485.5 559.5> 435 23<161 240>
AnchorPoint: "Anchor-11" 224 0 basechar 0
AnchorPoint: "Anchor-10" 0 0 basechar 0
AnchorPoint: "Anchor-9" 328 681 basechar 0
AnchorPoint: "Anchor-8" 0 0 basechar 0
LayerCount: 2
Fore
SplineSet
444 838 m 1
 254 764 l 1
 250 779 l 1
 435 861 l 1
 444 838 l 1
324 691 m 0
 402 691 453 663 495 621 c 1
 480 606 l 1
 438 650 392 671 324 671 c 0
 206 671 140 599 140 523 c 0
 140 448 183 413 290 379 c 0
 403 342 458 293 458 199 c 0
 458 109 391 -10 222 -10 c 0
 131 -10 75 23 28 73 c 1
 44 87 l 1
 86 42 136 12 221 12 c 0
 382 12 435 123 435 199 c 0
 435 281 387 325 281 359 c 0
 163 398 117 440 117 522 c 0
 117 597 179 691 324 691 c 0
EndSplineSet
Substitution2: "'c2sc' Capitals to Small Capitals lookup 23 subtable" sacute.sc
Substitution2: "'locl' Localized Forms in Latin lookup 7 subtable" Sacute.loclPLK
AlternateSubs2: "'aalt' Access All Alternates lookup 1 subtable" Sacute.loclPLK sacute.sc
Position2: "'cpsp' Capital Spacing lookup 0 subtable" dx=5 dy=0 dh=10 dv=0
EndChar

StartChar: sacute
Encoding: 347 347 228
Width: 460
GlyphClass: 2
Flags: MW
HStem: -10 21<155.5 238 155.5 257> 509 20<216 287>
VStem: 90 23<374 433 374 438> 358 23<100 170.5>
AnchorPoint: "Anchor-11" 193 0 basechar 0
AnchorPoint: "Anchor-10" 0 0 basechar 0
AnchorPoint: "Anchor-9" 267 519 basechar 0
AnchorPoint: "Anchor-8" 0 0 basechar 0
LayerCount: 2
Fore
SplineSet
382 738 m 1
 192 654 l 1
 187 670 l 1
 375 761 l 1
 382 738 l 1
258 529 m 0
 320 529 366 512 407 476 c 1
 392 460 l 1
 354 493 316 509 258 509 c 0
 174 509 113 467 113 399 c 0
 113 349 138 317 238 286 c 0
 343 253 381 212 381 141 c 0
 381 59 320 -10 194 -10 c 0
 111 -10 61 19 21 56 c 1
 35 72 l 1
 76 35 119 11 192 11 c 0
 284 11 358 52 358 140 c 0
 358 201 329 235 229 267 c 0
 121 301 90 340 90 399 c 0
 90 477 163 529 258 529 c 0
EndSplineSet
Substitution2: "'smcp' Lowercase to Small Capitals lookup 24 subtable" sacute.sc
Substitution2: "'locl' Localized Forms in Latin lookup 7 subtable" sacute.loclPLK
AlternateSubs2: "'aalt' Access All Alternates lookup 1 subtable" sacute.loclPLK sacute.sc
EndChar

StartChar: Scircumflex
Encoding: 348 348 94
Width: 536
GlyphClass: 2
Flags: MW
HStem: -10 22<178.5 301.5 178.5 306.5> 671 20<265 358> 845 24<357 357>
VStem: 117 23<485.5 559.5> 435 23<161 240>
AnchorPoint: "Anchor-11" 224 0 basechar 0
AnchorPoint: "Anchor-10" 0 0 basechar 0
AnchorPoint: "Anchor-9" 328 681 basechar 0
AnchorPoint: "Anchor-8" 0 0 basechar 0
LayerCount: 2
Fore
SplineSet
357 845 m 1
 232 766 l 1
 221 780 l 1
 354 869 l 1
 366 869 l 1
 473 780 l 1
 461 766 l 1
 357 845 l 1
324 691 m 0
 402 691 453 663 495 621 c 1
 480 606 l 1
 438 650 392 671 324 671 c 0
 206 671 140 599 140 523 c 0
 140 448 183 413 290 379 c 0
 403 342 458 293 458 199 c 0
 458 109 391 -10 222 -10 c 0
 131 -10 75 23 28 73 c 1
 44 87 l 1
 86 42 136 12 221 12 c 0
 382 12 435 123 435 199 c 0
 435 281 387 325 281 359 c 0
 163 398 117 440 117 522 c 0
 117 597 179 691 324 691 c 0
EndSplineSet
Substitution2: "'c2sc' Capitals to Small Capitals lookup 23 subtable" scircumflex.sc
Substitution2: "'aalt' Access All Alternates lookup 0 subtable" scircumflex.sc
Position2: "'cpsp' Capital Spacing lookup 0 subtable" dx=5 dy=0 dh=10 dv=0
EndChar
StartChar: scircumflex
Encoding: 349 349 625
Width: 460
GlyphClass: 2
Flags: MW
HStem: -10 21<155.5 238 155.5 257> 509 20<216 287> 738 24<298 298>
VStem: 90 23<374 433 374 438> 358 23<100 170.5>
AnchorPoint: "Anchor-14" 0 0 basechar 0
AnchorPoint: "Anchor-13" 0 0 basechar 0
AnchorPoint: "Anchor-12" 301 762 basechar 0
AnchorPoint: "Anchor-11" 0 0 basechar 0
AnchorPoint: "Anchor-10" 193 0 basechar 0
LayerCount: 2
Back
Fore
SplineSet
172 654 m 1
 161 667 l 1
 295 762 l 1
 307 762 l 1
 412 667 l 1
 401 654 l 1
 298 738 l 1
 172 654 l 1
258 529 m 0
 320 529 366 512 407 476 c 1
 392 462 l 1
 354 493 316 509 258 509 c 0
 174 509 113 467 113 399 c 0
 113 349 138 317 238 286 c 0
 343 253 381 212 381 141 c 0
 381 59 320 -10 194 -10 c 0
 111 -10 61 19 21 56 c 1
 34 70 l 1
 76 35 119 11 192 11 c 0
 284 11 358 52 358 140 c 0
 358 201 330 235 229 267 c 0
 121 301 90 340 90 399 c 0
 90 477 163 529 258 529 c 0
EndSplineSet
Substitution2: "'smcp' Lowercase to Small Capitals lookup 28 subtable" scircumflex.sc
Substitution2: "'aalt' Access All Alternates lookup 0 subtable" scircumflex.sc
EndChar

StartChar: Scedilla
Encoding: 350 350 93
Width: 536
GlyphClass: 2
Flags: MW
HStem: -212 20<195.5 228 195.5 233.5> -194 21G<141 141> -90 16 -10 22<212 212 229 229> 671 20<265 358>
VStem: 117 23<485.5 559.5> 278 24<-153.5 -137> 435 23<161 240>
AnchorPoint: "Anchor-11" 224 0 basechar 0
AnchorPoint: "Anchor-10" 0 0 basechar 0
AnchorPoint: "Anchor-9" 328 681 basechar 0
AnchorPoint: "Anchor-8" 0 0 basechar 0
LayerCount: 2
Fore
SplineSet
324 691 m 0x7f
 402 691 453 663 495 621 c 1
 480 606 l 1
 438 650 392 671 324 671 c 0
 206 671 140 599 140 523 c 0
 140 448 183 413 290 379 c 0
 403 342 458 293 458 199 c 0
 458 110 393 -7 229 -10 c 1
 218 -74 l 1
 274 -78 302 -95 302 -135 c 0
 302 -179 259 -212 208 -212 c 0
 177 -212 157 -204 141 -194 c 1
 152 -177 l 1
 165 -186 183 -192 208 -192 c 0xbf
 248 -192 278 -170 278 -137 c 1
 279 -105 256 -91 196 -90 c 1
 212 -10 l 1
 127 -8 73 25 28 73 c 1
 44 87 l 1
 86 42 136 12 221 12 c 0
 382 12 435 123 435 199 c 0
 435 281 387 325 281 359 c 0
 163 398 117 440 117 522 c 0
 117 597 179 691 324 691 c 0x7f
EndSplineSet
Substitution2: "'c2sc' Capitals to Small Capitals lookup 23 subtable" scedilla.sc
Substitution2: "'locl' Localized Forms in Latin lookup 5 subtable" Scommaaccent
Substitution2: "'locl' Localized Forms in Latin lookup 4 subtable" Scommaaccent
AlternateSubs2: "'aalt' Access All Alternates lookup 1 subtable" Scommaaccent scedilla.sc
Position2: "'cpsp' Capital Spacing lookup 0 subtable" dx=5 dy=0 dh=10 dv=0
EndChar
StartChar: scedilla
Encoding: 351 351 623
Width: 460
GlyphClass: 2
Flags: MW
HStem: -212 20<161.5 195.5 161.5 200.5> -194 21G<107 107> -91 17 -9 20<178 178> 509 20<216 287>
VStem: 90 23<374 433 374 438> 244 24<-154.5 -138> 358 23<100.5 170.5>
AnchorPoint: "Anchor-14" 0 0 basechar 0
AnchorPoint: "Anchor-13" 0 0 basechar 0
AnchorPoint: "Anchor-12" 267 519 basechar 0
AnchorPoint: "Anchor-11" 0 0 basechar 0
AnchorPoint: "Anchor-10" 190 -212 basechar 0
LayerCount: 2
Back
Fore
SplineSet
258 509 m 0x7f
 174 509 113 467 113 399 c 0
 113 349 138 317 238 286 c 0
 343 253 381 212 381 141 c 0
 381 60 321 -9 196 -10 c 1
 184 -74 l 1
 240 -78 268 -96 268 -137 c 0
 268 -183 227 -212 174 -212 c 0
 143 -212 123 -204 107 -194 c 1
 118 -178 l 1
 131 -186 149 -192 174 -192 c 0xbf
 217 -192 244 -171 244 -138 c 0
 245 -105 222 -92 162 -91 c 1
 178 -9 l 1
 105 -6 59 21 21 56 c 1
 34 70 l 1
 76 35 119 11 192 11 c 0
 284 11 358 52 358 140 c 0
 358 201 330 235 229 267 c 0
 121 301 90 340 90 399 c 0
 90 477 163 529 258 529 c 0
 320 529 366 512 407 476 c 1
 392 462 l 1
 354 493 316 509 258 509 c 0x7f
EndSplineSet
Substitution2: "'smcp' Lowercase to Small Capitals lookup 28 subtable" scedilla.sc
Substitution2: "'locl' Localized Forms in Latin lookup 5 subtable" scommaaccent
Substitution2: "'locl' Localized Forms in Latin lookup 4 subtable" scommaaccent
AlternateSubs2: "'aalt' Access All Alternates lookup 1 subtable" scommaaccent scedilla.sc
EndChar

StartChar: Scaron
Encoding: 352 352 92
Width: 536
GlyphClass: 2
Flags: MW
HStem: -10 22<178.5 301.5 178.5 306.5> 671 20<265 358> 760 24<337 337 337 340 328 337>
VStem: 117 23<485.5 559.5> 435 23<161 240>
AnchorPoint: "Anchor-11" 224 0 basechar 0
AnchorPoint: "Anchor-10" 0 0 basechar 0
AnchorPoint: "Anchor-9" 328 681 basechar 0
AnchorPoint: "Anchor-8" 0 0 basechar 0
LayerCount: 2
Fore
SplineSet
472 850 m 1
 340 760 l 1
 328 760 l 1
 221 850 l 1
 233 862 l 1
 337 784 l 1
 462 863 l 1
 472 850 l 1
324 691 m 0
 402 691 453 663 495 621 c 1
 480 606 l 1
 438 650 392 671 324 671 c 0
 206 671 140 599 140 523 c 0
 140 448 183 413 290 379 c 0
 403 342 458 293 458 199 c 0
 458 109 391 -10 222 -10 c 0
 131 -10 75 23 28 73 c 1
 44 87 l 1
 86 42 136 12 221 12 c 0
 382 12 435 123 435 199 c 0
 435 281 387 325 281 359 c 0
 163 398 117 440 117 522 c 0
 117 597 179 691 324 691 c 0
EndSplineSet
Substitution2: "'c2sc' Capitals to Small Capitals lookup 23 subtable" scaron.sc
Substitution2: "'aalt' Access All Alternates lookup 0 subtable" scaron.sc
Position2: "'cpsp' Capital Spacing lookup 0 subtable" dx=5 dy=0 dh=10 dv=0
EndChar
